{"glyphs":{"0":{"ha":1613,"x_min":92,"x_max":1474,"o":"m 139 817 l 353 863 l 344 892 l 376 901 l 369 933 l 403 940 l 399 975 l 431 978 l 431 1010 l 460 1010 l 463 1039 l 494 1035 l 500 1067 l 535 1061 l 543 1093 l 574 1085 l 586 1114 l 618 1101 l 635 1132 l 664 1117 l 681 1144 l 710 1125 l 731 1151 l 757 1131 l 779 1153 l 800 1133 l 821 1151 l 842 1128 l 869 1146 l 888 1117 l 918 1133 l 933 1106 l 963 1118 l 976 1086 l 1010 1096 l 1019 1065 l 1050 1072 l 1057 1039 l 1092 1042 l 1093 1021 l 1414 1090 l 1414 697 l 1267 665 l 1269 663 l 1251 642 l 1269 619 l 1244 599 l 1263 571 l 1233 553 l 1251 524 l 1222 507 l 1235 478 l 1203 464 l 1214 431 l 1183 421 l 1189 390 l 1156 383 l 1158 349 l 1126 346 l 1126 314 l 1099 314 l 1094 285 l 1064 288 l 1057 257 l 1024 263 l 1014 231 l 983 240 l 972 208 l 939 222 l 924 192 l 894 207 l 876 179 l 847 197 l 828 172 l 803 193 l 779 171 l 758 190 l 736 171 l 717 196 l 689 178 l 669 207 l 640 190 l 625 218 l 594 206 l 581 238 l 549 228 l 539 258 l 507 251 l 500 285 l 467 282 l 463 314 l 431 314 l 431 343 l 403 346 l 406 378 l 374 383 l 381 417 l 347 426 l 357 457 l 335 465 l 139 424 l 139 817 m 993 722 q 1008 733 1001 726 l 1026 750 q 1025 746 1025 749 q 1028 733 1025 739 q 1040 726 1032 726 q 1056 731 1047 726 q 1071 739 1064 735 l 1088 751 q 1093 757 1090 754 q 1099 763 1096 760 l 1110 772 q 1107 764 1107 769 l 1107 758 q 1106 754 1106 757 q 1119 740 1106 740 q 1126 742 1124 740 l 1132 744 l 1149 754 l 1188 789 l 1183 779 q 1181 764 1181 774 l 1181 760 q 1189 756 1185 756 q 1197 758 1190 756 q 1206 764 1203 761 l 1222 778 q 1233 787 1228 781 q 1246 800 1239 793 l 1260 817 q 1261 819 1261 818 q 1258 821 1260 821 q 1253 818 1256 821 l 1250 814 l 1232 793 q 1227 788 1229 790 q 1222 783 1225 786 l 1211 774 l 1199 767 q 1197 765 1199 767 q 1194 767 1196 765 l 1201 778 q 1204 783 1203 781 q 1208 789 1206 786 l 1214 797 q 1219 806 1217 800 l 1269 879 q 1281 893 1278 888 l 1322 939 q 1335 956 1329 947 q 1349 972 1342 964 l 1357 986 l 1357 993 q 1350 994 1356 994 q 1338 991 1347 994 q 1324 982 1329 988 l 1317 976 q 1308 970 1313 974 q 1300 963 1304 967 l 1286 947 q 1263 917 1275 936 q 1239 881 1250 899 l 1218 846 l 1197 807 q 1196 806 1196 807 l 1185 794 q 1178 787 1182 790 q 1169 779 1174 783 l 1154 765 l 1142 756 q 1139 754 1142 756 l 1131 751 l 1129 750 q 1128 751 1129 750 l 1136 767 q 1150 790 1140 778 q 1167 814 1160 803 l 1183 840 q 1189 849 1186 843 l 1190 850 q 1192 853 1188 850 q 1197 858 1197 856 q 1192 863 1197 863 l 1183 860 l 1161 846 q 1156 840 1158 843 q 1150 835 1153 838 q 1135 850 1150 850 q 1103 840 1119 850 q 1071 817 1086 831 q 1044 788 1056 804 q 1029 760 1033 772 q 1023 754 1028 760 q 1010 741 1018 749 q 994 728 1003 733 q 978 722 986 722 l 975 722 q 974 724 974 722 l 975 725 l 985 739 l 1011 772 q 1019 783 1015 778 q 1026 794 1024 788 l 1033 808 q 1035 817 1035 811 q 1028 829 1035 829 q 1021 828 1024 829 l 1001 818 q 989 806 996 813 q 976 797 982 800 l 960 781 q 951 773 956 776 q 944 765 947 769 l 928 747 l 931 751 l 971 808 q 973 813 971 810 q 975 819 975 817 l 971 824 q 969 824 969 824 q 965 825 968 825 q 963 824 964 825 q 958 824 961 824 l 946 815 q 943 813 943 814 q 942 810 943 811 l 876 699 q 875 693 875 697 q 877 692 876 693 q 879 692 878 692 q 886 693 883 692 l 893 697 q 895 701 893 699 q 899 704 897 704 l 903 708 q 906 713 903 710 l 935 746 l 965 779 l 989 801 q 997 808 992 803 l 1015 818 q 1017 817 1017 818 l 1011 813 q 1006 807 1010 808 l 992 790 q 979 776 985 783 q 971 761 974 768 l 960 744 q 953 722 953 735 q 961 711 953 711 q 993 722 975 711 m 686 654 q 715 667 701 657 q 736 688 729 676 l 743 701 q 747 717 747 710 l 747 729 q 744 742 747 733 l 735 760 q 729 769 735 764 l 729 774 q 731 776 731 775 l 724 776 q 717 772 721 774 q 711 767 714 769 l 706 756 l 676 715 l 668 703 l 667 700 q 664 699 665 700 l 656 686 l 626 656 q 607 647 618 647 l 606 647 q 607 649 606 647 l 613 657 l 624 672 q 629 679 626 674 l 636 690 l 647 714 q 649 725 649 718 q 647 731 647 726 l 644 735 q 643 739 644 738 l 643 757 l 649 765 l 649 769 q 640 776 649 776 q 616 767 624 776 q 608 750 608 757 q 610 742 608 744 l 613 739 q 615 736 613 739 l 607 726 l 572 683 q 568 681 571 683 l 567 678 q 565 676 567 676 l 557 665 q 525 637 546 654 q 482 619 504 619 q 471 629 471 619 q 474 636 471 631 l 485 657 q 494 654 490 654 q 549 676 519 654 l 561 689 q 566 695 564 692 q 569 701 568 699 l 575 713 q 567 729 575 726 q 551 732 560 732 q 488 700 519 721 q 446 640 456 679 l 446 626 q 465 611 451 611 q 503 620 482 613 q 543 646 524 628 l 574 675 q 576 679 574 676 q 579 682 578 682 l 582 688 l 607 717 q 615 725 611 721 q 621 733 618 729 l 629 726 q 631 721 631 724 q 625 714 631 719 l 613 700 l 592 669 l 588 656 q 586 649 586 653 l 586 643 q 596 636 589 636 q 610 639 599 636 l 622 647 q 643 665 631 654 q 660 683 656 676 l 667 692 l 674 700 q 676 704 676 703 l 703 740 q 705 728 703 733 q 707 718 707 724 l 710 713 q 690 703 696 707 l 675 690 q 665 675 667 682 q 663 663 663 668 q 672 655 665 656 q 686 654 678 654 m 768 708 q 767 699 767 706 q 785 676 767 676 q 786 677 786 676 q 788 678 786 678 l 797 678 q 818 685 804 679 l 839 696 l 872 725 l 892 754 l 896 768 q 897 772 896 771 q 897 775 897 774 q 894 785 897 779 q 872 796 889 796 q 860 794 867 796 q 847 790 854 793 l 818 774 q 808 767 813 771 q 800 760 804 763 l 786 744 l 776 729 q 768 708 769 718 m 243 -12 q 226 35 226 4 q 228 53 226 42 q 238 74 231 64 q 256 92 244 85 q 286 99 267 99 l 290 99 q 320 88 301 99 q 339 58 339 78 l 313 58 q 305 72 313 65 q 288 78 297 78 q 281 76 283 78 l 275 76 l 264 68 q 255 53 257 61 q 253 33 253 44 q 261 3 253 13 q 282 -8 269 -6 l 286 -8 q 305 -2 293 -8 q 317 18 317 4 l 288 18 l 288 40 l 339 40 l 339 -26 l 322 -26 l 319 -11 q 301 -27 311 -24 q 279 -31 290 -31 q 258 -25 268 -31 q 243 -12 249 -19 m 1469 -153 q 1474 -167 1474 -157 l 1474 -229 l 1450 -229 l 1450 -175 q 1436 -157 1450 -157 q 1421 -175 1421 -157 l 1421 -229 l 1397 -229 l 1397 -175 q 1395 -162 1397 -168 q 1383 -157 1393 -157 q 1368 -174 1368 -157 l 1368 -229 l 1344 -229 l 1344 -139 l 1367 -139 l 1367 -153 q 1393 -136 1376 -136 q 1418 -151 1410 -136 q 1443 -136 1425 -136 q 1460 -141 1453 -136 q 1469 -153 1467 -146 m 644 -142 q 653 -150 649 -144 q 657 -167 657 -156 l 657 -229 l 635 -229 l 635 -175 q 621 -157 635 -157 q 606 -175 606 -157 l 606 -229 l 581 -229 l 581 -167 q 567 -157 581 -157 q 551 -174 551 -157 l 551 -229 l 529 -229 l 529 -139 l 551 -139 l 551 -153 q 578 -136 560 -136 q 603 -151 594 -136 q 626 -136 610 -136 q 644 -142 638 -136 m 1317 -149 q 1328 -185 1328 -160 q 1316 -217 1328 -204 q 1282 -231 1304 -231 q 1248 -217 1260 -231 q 1236 -185 1236 -204 q 1238 -171 1236 -179 q 1244 -155 1239 -162 q 1258 -142 1249 -147 q 1282 -136 1267 -136 q 1317 -149 1300 -136 m 947 65 q 980 53 967 65 q 993 18 993 42 q 983 -14 993 1 q 947 -29 972 -29 q 913 -14 924 -29 q 901 18 901 1 q 910 49 901 33 q 947 65 919 65 m 196 -139 l 219 -139 l 194 -229 l 169 -229 l 156 -164 l 142 -229 l 117 -229 l 92 -139 l 117 -139 l 131 -204 l 143 -139 l 168 -139 l 181 -204 l 196 -139 m 482 -139 l 456 -229 l 432 -229 l 418 -164 l 403 -229 l 379 -229 l 354 -139 l 379 -139 l 393 -204 l 406 -139 l 431 -139 l 443 -204 l 457 -139 l 482 -139 m 326 -139 l 351 -139 l 325 -229 l 301 -229 l 286 -164 l 272 -229 l 247 -229 l 224 -139 l 247 -139 l 263 -204 l 275 -139 l 299 -139 l 313 -204 l 326 -139 m 868 -139 l 892 -139 l 867 -229 l 842 -229 l 828 -164 l 814 -229 l 789 -229 l 764 -139 l 789 -139 l 803 -204 l 815 -139 l 839 -139 l 853 -204 l 868 -139 m 242 536 l 250 544 l 264 561 q 271 569 265 564 l 321 639 q 329 651 325 646 q 336 663 333 656 l 353 688 q 372 715 360 699 q 383 740 383 731 q 378 744 383 744 q 371 743 372 744 l 364 739 l 338 707 q 326 692 331 700 l 314 676 l 249 579 q 239 563 243 571 q 231 546 235 554 l 228 542 q 227 540 228 540 q 226 538 226 539 l 226 535 q 228 532 226 533 l 235 532 l 242 536 m 1250 -26 q 1244 -28 1246 -28 q 1238 -29 1242 -29 q 1217 -21 1224 -29 q 1210 -1 1210 -12 q 1236 26 1210 22 l 1257 29 q 1265 36 1265 31 q 1251 47 1265 47 q 1241 45 1244 47 q 1235 33 1238 43 l 1213 33 q 1222 55 1215 44 q 1251 65 1228 65 q 1281 58 1274 65 q 1289 40 1289 50 l 1289 -18 q 1294 -22 1289 -22 l 1294 -26 l 1268 -26 q 1267 -25 1267 -26 l 1267 -24 l 1267 -22 q 1266 -18 1267 -19 q 1265 -15 1265 -17 q 1258 -23 1263 -19 q 1250 -26 1253 -26 m 753 -221 q 757 -225 753 -225 l 757 -229 l 732 -229 q 731 -226 732 -228 l 731 -225 q 729 -218 729 -222 q 721 -225 724 -224 l 713 -229 q 701 -231 710 -231 q 681 -226 690 -231 q 672 -206 672 -221 q 699 -176 672 -181 l 721 -174 q 728 -167 728 -171 q 714 -156 728 -156 q 699 -168 699 -156 l 676 -168 q 685 -145 676 -154 q 714 -136 694 -136 q 744 -145 738 -136 q 751 -162 751 -154 l 751 -211 q 753 -221 751 -218 m 439 11 l 376 11 q 382 -3 376 4 q 399 -10 388 -10 q 410 -6 406 -10 q 414 0 414 -3 l 439 0 q 419 -24 432 -19 q 399 -29 407 -29 q 354 21 354 -29 q 366 55 354 44 q 397 65 378 65 q 432 49 425 65 q 439 17 439 32 l 439 11 m 843 490 q 849 510 849 497 q 838 535 849 521 q 804 549 828 549 q 771 536 782 549 q 760 510 760 524 q 774 481 760 490 q 804 471 788 471 q 826 476 817 471 q 843 490 836 482 m 260 694 q 258 686 258 692 q 268 671 258 678 l 282 667 q 297 668 286 667 q 306 672 308 669 q 304 674 306 674 l 300 674 q 294 672 297 674 q 289 671 292 671 q 271 676 278 671 q 264 689 264 681 q 265 699 264 694 l 271 710 l 285 725 q 324 751 303 744 q 364 765 346 758 l 386 769 q 407 772 400 772 q 424 770 414 772 q 438 764 433 768 l 444 754 q 446 740 446 750 q 443 725 446 736 l 435 710 q 417 685 428 694 q 392 663 406 675 l 374 651 l 343 639 q 333 636 339 639 l 329 636 q 324 635 328 636 q 319 631 319 633 q 321 629 319 629 l 325 629 q 329 631 328 629 l 354 638 l 396 656 l 435 681 l 465 711 q 476 734 472 725 q 479 750 479 743 q 473 767 479 761 q 458 777 467 774 q 441 781 450 781 q 426 782 432 782 q 401 779 421 782 q 358 768 382 776 q 308 746 333 760 q 267 710 283 732 l 260 694 m 1076 -183 q 1083 -200 1083 -187 q 1044 -231 1083 -231 l 1036 -231 q 1010 -221 1018 -231 q 1001 -200 1001 -211 l 1025 -200 q 1046 -212 1025 -212 q 1055 -212 1050 -212 q 1060 -204 1060 -211 q 1050 -197 1060 -199 l 1029 -192 q 1011 -183 1018 -189 q 1004 -167 1004 -176 q 1010 -147 1004 -158 q 1040 -136 1017 -136 q 1065 -141 1056 -136 q 1078 -153 1075 -146 l 1081 -167 l 1057 -167 q 1056 -159 1057 -162 q 1042 -156 1054 -156 q 1028 -164 1028 -156 q 1036 -169 1028 -168 l 1057 -175 q 1076 -183 1065 -176 m 971 -140 q 981 -151 978 -143 q 985 -167 985 -160 l 985 -229 l 961 -229 l 961 -175 q 959 -161 961 -165 q 946 -157 957 -157 q 931 -163 935 -157 q 928 -178 928 -169 l 928 -229 l 903 -229 l 903 -139 l 926 -139 l 926 -153 q 954 -136 936 -136 q 971 -140 963 -136 m 1060 65 q 1081 58 1071 65 q 1092 36 1092 51 l 1092 -26 l 1068 -26 l 1068 28 q 1065 41 1068 36 q 1051 46 1063 46 q 1035 25 1035 46 l 1035 -26 l 1010 -26 l 1010 64 l 1032 64 l 1032 51 q 1060 65 1042 65 m 672 -14 q 660 -25 668 -21 q 644 -29 651 -29 q 624 -21 633 -29 q 614 4 614 -12 l 614 64 l 638 64 l 638 8 q 653 -8 638 -8 q 665 -5 658 -8 q 672 11 672 -1 l 672 64 l 694 64 l 694 -26 l 672 -26 l 672 -14 m 1186 -157 q 1172 -164 1176 -157 q 1167 -182 1167 -171 q 1170 -205 1167 -199 q 1185 -211 1174 -211 q 1195 -209 1190 -211 q 1200 -196 1200 -207 l 1225 -196 q 1214 -221 1225 -211 q 1183 -231 1203 -231 q 1143 -186 1143 -231 q 1152 -151 1143 -167 q 1183 -136 1161 -136 q 1210 -144 1196 -136 q 1225 -171 1225 -151 l 1200 -171 q 1186 -157 1200 -157 m 588 76 q 585 74 585 76 l 585 64 l 600 64 l 600 47 l 585 47 l 585 -26 l 561 -26 l 561 47 l 549 47 l 549 64 l 561 64 l 561 71 q 588 96 561 96 l 600 96 l 600 78 l 593 78 q 588 76 589 78 m 878 64 l 894 64 l 894 47 l 878 47 l 878 -26 l 854 -26 l 854 47 l 842 47 l 842 64 l 854 64 l 854 71 q 881 96 854 96 l 892 96 l 892 78 l 886 78 q 878 74 879 78 l 878 64 m 1351 -26 l 1336 -26 q 1319 -24 1328 -26 q 1311 -8 1311 -21 l 1311 47 l 1300 47 l 1300 64 l 1311 64 l 1311 88 l 1336 88 l 1336 64 l 1351 64 l 1351 47 l 1336 47 l 1336 -1 q 1344 -10 1336 -10 l 1351 -8 l 1351 -26 m 790 683 q 786 692 786 686 q 794 710 786 700 q 806 729 801 721 l 814 739 l 833 764 q 841 772 838 768 q 849 779 844 776 l 864 789 q 871 790 867 790 q 876 782 876 790 q 874 774 876 779 l 865 758 q 860 750 863 753 l 854 742 q 849 733 851 738 q 843 726 846 729 l 815 696 q 805 688 813 693 q 790 683 797 683 m 482 88 l 482 64 l 496 64 l 496 47 l 482 47 l 482 -1 q 483 -8 482 -6 q 492 -10 485 -10 l 494 -8 l 496 -26 l 482 -26 q 464 -23 469 -26 q 458 -8 458 -19 l 458 47 l 446 47 l 446 64 l 458 64 l 458 88 l 482 88 m 1049 744 q 1054 753 1051 750 l 1060 761 q 1072 779 1064 771 l 1086 799 l 1113 831 l 1125 840 q 1139 843 1133 843 l 1143 840 q 1144 838 1143 839 q 1144 835 1144 838 q 1144 830 1144 833 q 1140 824 1143 826 l 1117 789 l 1092 763 q 1083 756 1089 761 l 1074 747 q 1062 740 1068 744 q 1051 735 1056 735 q 1049 736 1050 735 l 1047 736 q 1046 739 1046 738 q 1047 742 1047 740 q 1049 744 1047 743 m 1154 -26 l 1139 -26 q 1124 -24 1131 -26 q 1117 -18 1118 -22 l 1117 47 l 1103 47 l 1103 64 l 1117 64 l 1117 88 l 1139 88 l 1139 64 l 1154 64 l 1154 47 l 1139 47 l 1139 -1 q 1149 -10 1139 -10 l 1154 -8 l 1154 -26 m 824 536 q 828 526 826 531 q 831 510 831 522 q 824 484 831 494 q 804 474 818 474 q 785 483 790 474 l 781 494 q 778 510 778 503 q 778 516 778 513 q 779 522 779 519 l 783 532 q 790 542 786 536 q 806 547 794 547 q 808 547 807 547 q 811 546 808 546 l 824 536 m 740 -26 l 717 -26 l 717 96 l 740 96 l 740 -26 m 781 -26 l 758 -26 l 758 96 l 781 96 l 781 -26 m 710 547 l 629 547 l 629 544 l 632 544 q 644 532 644 544 l 644 488 q 632 474 644 474 l 629 472 l 710 472 l 710 503 q 707 498 707 500 q 706 493 707 496 l 697 482 q 690 478 693 478 l 683 475 q 674 474 679 474 l 661 474 l 663 507 q 678 501 672 507 l 681 497 q 682 491 681 494 q 683 485 683 488 l 685 533 l 683 526 l 679 518 q 665 510 672 510 l 661 510 l 661 544 l 675 544 q 692 543 688 544 l 699 538 l 707 518 l 710 518 l 710 547 m 963 547 l 925 547 l 925 544 l 932 544 q 938 538 932 543 q 943 525 943 532 l 943 493 l 890 547 l 861 547 l 863 544 q 874 541 872 544 q 876 533 876 538 l 876 490 q 860 474 876 474 l 860 472 l 899 474 q 892 475 896 474 q 885 476 888 476 l 881 483 q 879 493 879 485 l 879 538 l 943 472 l 946 472 l 946 525 q 949 538 946 532 q 963 544 951 544 l 963 547 m 617 507 q 607 513 613 510 l 593 518 l 583 519 q 567 524 576 521 q 558 533 558 526 q 558 539 558 531 q 576 547 558 547 q 600 540 593 547 q 614 521 607 532 l 617 521 l 617 546 l 614 546 q 608 540 613 540 q 592 544 601 540 q 576 549 583 549 q 561 546 569 549 l 551 539 q 547 526 547 532 q 550 519 547 524 q 556 513 553 515 l 565 508 q 571 506 567 507 q 582 503 575 506 l 588 501 q 603 497 594 499 q 611 486 611 496 q 601 474 611 479 l 593 474 q 581 475 585 474 l 567 481 l 558 489 q 551 506 551 499 l 549 506 l 549 471 l 551 471 q 561 479 551 479 q 565 478 563 479 q 571 476 567 476 l 582 472 q 593 471 585 471 q 607 474 601 471 q 621 486 613 478 l 621 501 l 617 507 m 964 0 q 969 18 969 6 q 947 46 969 46 q 925 18 925 46 q 947 -8 925 -8 q 964 0 961 -8 m 1299 -203 q 1302 -194 1301 -199 q 1303 -185 1303 -189 q 1300 -165 1303 -174 q 1282 -157 1297 -157 q 1265 -165 1268 -157 q 1261 -185 1261 -174 q 1265 -203 1261 -196 q 1282 -211 1269 -211 q 1299 -203 1294 -211 m 1136 540 q 1142 544 1138 543 q 1147 544 1146 544 l 1147 547 l 1110 547 l 1110 544 l 1114 544 q 1124 542 1122 544 q 1125 538 1125 540 q 1121 529 1125 535 l 1106 508 l 1086 533 q 1083 539 1083 539 l 1083 540 q 1089 544 1083 544 l 1096 544 l 1096 547 l 1047 547 l 1049 544 q 1067 535 1064 544 l 1090 504 l 1090 488 q 1076 474 1090 474 l 1072 472 l 1125 472 l 1119 474 q 1106 488 1106 474 l 1106 506 l 1129 538 q 1136 540 1135 540 m 1051 506 l 1050 506 q 1049 502 1050 507 q 1045 491 1049 497 q 1035 479 1042 485 q 1018 474 1029 474 l 999 474 l 999 532 q 1013 544 999 544 l 1018 544 l 1018 547 l 967 547 l 967 544 l 971 544 q 983 532 983 544 l 983 488 q 971 474 983 474 l 967 472 l 1051 472 l 1051 506 m 538 547 l 500 547 l 500 544 l 508 544 q 518 538 515 544 q 521 525 521 532 l 521 499 q 514 481 521 488 l 504 474 l 492 474 q 476 476 485 474 q 467 494 467 479 l 467 532 q 471 543 467 542 q 481 544 475 544 l 486 544 l 486 547 l 435 547 l 436 544 q 451 532 451 544 l 451 494 q 460 476 451 485 l 472 472 q 488 471 476 471 q 522 497 522 471 l 522 536 l 529 543 l 531 543 q 532 544 531 543 l 538 544 l 538 547 m 510 667 q 500 664 501 664 q 490 667 496 664 l 503 683 l 522 707 q 526 710 525 710 q 529 714 528 711 l 547 725 q 551 726 550 725 q 554 726 551 726 q 560 721 560 726 q 559 719 560 719 q 558 717 558 718 l 554 710 q 545 694 551 707 q 519 672 539 682 l 510 667 m 711 708 q 712 704 711 706 q 713 700 713 703 q 710 685 710 692 l 707 678 q 700 669 706 675 l 694 665 q 678 660 689 660 q 669 664 674 660 l 669 671 l 678 686 q 693 700 685 694 l 711 708 m 1233 -1 q 1238 -10 1233 -8 q 1244 -11 1242 -11 l 1250 -11 q 1260 -6 1256 -10 q 1265 7 1265 -3 l 1265 18 q 1256 14 1261 14 l 1244 11 q 1238 8 1242 11 q 1233 -1 1233 6 m 728 -185 q 719 -189 724 -189 l 708 -190 l 700 -194 q 696 -204 696 -199 q 708 -214 696 -214 l 713 -214 q 715 -213 714 -214 q 717 -212 715 -212 l 725 -207 q 728 -197 728 -204 l 728 -185 m 1101 -204 l 1126 -204 l 1126 -229 l 1101 -229 l 1101 -204 m 482 -204 l 507 -204 l 507 -229 l 482 -229 l 482 -204 m 415 28 q 409 41 413 35 q 397 47 406 47 q 379 28 382 47 l 415 28 m 1292 910 q 1285 901 1290 907 l 1307 932 l 1339 978 q 1340 981 1338 978 q 1346 985 1343 983 l 1346 983 q 1343 975 1346 981 l 1332 960 q 1326 953 1329 954 l 1300 919 l 1292 910 z "},"1":{"ha":1613,"x_min":92,"x_max":1474,"o":"m 139 817 l 353 863 l 344 892 l 376 901 l 369 933 l 403 940 l 399 975 l 431 978 l 431 1010 l 460 1010 l 463 1039 l 494 1035 l 500 1067 l 535 1061 l 543 1093 l 574 1085 l 586 1114 l 618 1101 l 635 1132 l 664 1117 l 681 1144 l 710 1125 l 731 1151 l 757 1131 l 779 1153 l 800 1133 l 821 1151 l 842 1128 l 869 1146 l 888 1117 l 918 1133 l 933 1106 l 963 1118 l 976 1086 l 1010 1096 l 1019 1065 l 1050 1072 l 1057 1039 l 1092 1042 l 1093 1021 l 1414 1090 l 1414 697 l 1267 665 l 1269 663 l 1251 642 l 1269 619 l 1244 599 l 1263 571 l 1233 553 l 1251 524 l 1222 507 l 1235 478 l 1203 464 l 1214 431 l 1183 421 l 1189 390 l 1156 383 l 1158 349 l 1126 346 l 1126 314 l 1099 314 l 1094 285 l 1064 288 l 1057 257 l 1024 263 l 1014 231 l 983 240 l 972 208 l 939 222 l 924 192 l 894 207 l 876 179 l 847 197 l 828 172 l 803 193 l 779 171 l 758 190 l 736 171 l 717 196 l 689 178 l 669 207 l 640 190 l 625 218 l 594 206 l 581 238 l 549 228 l 539 258 l 507 251 l 500 285 l 467 282 l 463 314 l 431 314 l 431 343 l 403 346 l 406 378 l 374 383 l 381 417 l 347 426 l 357 457 l 335 465 l 139 424 l 139 817 m 993 722 q 1008 733 1001 726 l 1026 750 q 1025 746 1025 749 q 1028 733 1025 739 q 1040 726 1032 726 q 1056 731 1047 726 q 1071 739 1064 735 l 1088 751 q 1093 757 1090 754 q 1099 763 1096 760 l 1110 772 q 1107 764 1107 769 l 1107 758 q 1106 754 1106 757 q 1119 740 1106 740 q 1126 742 1124 740 l 1132 744 l 1149 754 l 1188 789 l 1183 779 q 1181 764 1181 774 l 1181 760 q 1189 756 1185 756 q 1197 758 1190 756 q 1206 764 1203 761 l 1222 778 q 1233 787 1228 781 q 1246 800 1239 793 l 1260 817 q 1261 819 1261 818 q 1258 821 1260 821 q 1253 818 1256 821 l 1250 814 l 1232 793 q 1227 788 1229 790 q 1222 783 1225 786 l 1211 774 l 1199 767 q 1197 765 1199 767 q 1194 767 1196 765 l 1201 778 q 1204 783 1203 781 q 1208 789 1206 786 l 1214 797 q 1219 806 1217 800 l 1269 879 q 1281 893 1278 888 l 1322 939 q 1335 956 1329 947 q 1349 972 1342 964 l 1357 986 l 1357 993 q 1350 994 1356 994 q 1338 991 1347 994 q 1324 982 1329 988 l 1317 976 q 1308 970 1313 974 q 1300 963 1304 967 l 1286 947 q 1263 917 1275 936 q 1239 881 1250 899 l 1218 846 l 1197 807 q 1196 806 1196 807 l 1185 794 q 1178 787 1182 790 q 1169 779 1174 783 l 1154 765 l 1142 756 q 1139 754 1142 756 l 1131 751 l 1129 750 q 1128 751 1129 750 l 1136 767 q 1150 790 1140 778 q 1167 814 1160 803 l 1183 840 q 1189 849 1186 843 l 1190 850 q 1192 853 1188 850 q 1197 858 1197 856 q 1192 863 1197 863 l 1183 860 l 1161 846 q 1156 840 1158 843 q 1150 835 1153 838 q 1135 850 1150 850 q 1103 840 1119 850 q 1071 817 1086 831 q 1044 788 1056 804 q 1029 760 1033 772 q 1023 754 1028 760 q 1010 741 1018 749 q 994 728 1003 733 q 978 722 986 722 l 975 722 q 974 724 974 722 l 975 725 l 985 739 l 1011 772 q 1019 783 1015 778 q 1026 794 1024 788 l 1033 808 q 1035 817 1035 811 q 1028 829 1035 829 q 1021 828 1024 829 l 1001 818 q 989 806 996 813 q 976 797 982 800 l 960 781 q 951 773 956 776 q 944 765 947 769 l 928 747 l 931 751 l 971 808 q 973 813 971 810 q 975 819 975 817 l 971 824 q 969 824 969 824 q 965 825 968 825 q 963 824 964 825 q 958 824 961 824 l 946 815 q 943 813 943 814 q 942 810 943 811 l 876 699 q 875 693 875 697 q 877 692 876 693 q 879 692 878 692 q 886 693 883 692 l 893 697 q 895 701 893 699 q 899 704 897 704 l 903 708 q 906 713 903 710 l 935 746 l 965 779 l 989 801 q 997 808 992 803 l 1015 818 q 1017 817 1017 818 l 1011 813 q 1006 807 1010 808 l 992 790 q 979 776 985 783 q 971 761 974 768 l 960 744 q 953 722 953 735 q 961 711 953 711 q 993 722 975 711 m 686 654 q 715 667 701 657 q 736 688 729 676 l 743 701 q 747 717 747 710 l 747 729 q 744 742 747 733 l 735 760 q 729 769 735 764 l 729 774 q 731 776 731 775 l 724 776 q 717 772 721 774 q 711 767 714 769 l 706 756 l 676 715 l 668 703 l 667 700 q 664 699 665 700 l 656 686 l 626 656 q 607 647 618 647 l 606 647 q 607 649 606 647 l 613 657 l 624 672 q 629 679 626 674 l 636 690 l 647 714 q 649 725 649 718 q 647 731 647 726 l 644 735 q 643 739 644 738 l 643 757 l 649 765 l 649 769 q 640 776 649 776 q 616 767 624 776 q 608 750 608 757 q 610 742 608 744 l 613 739 q 615 736 613 739 l 607 726 l 572 683 q 568 681 571 683 l 567 678 q 565 676 567 676 l 557 665 q 525 637 546 654 q 482 619 504 619 q 471 629 471 619 q 474 636 471 631 l 485 657 q 494 654 490 654 q 549 676 519 654 l 561 689 q 566 695 564 692 q 569 701 568 699 l 575 713 q 567 729 575 726 q 551 732 560 732 q 488 700 519 721 q 446 640 456 679 l 446 626 q 465 611 451 611 q 503 620 482 613 q 543 646 524 628 l 574 675 q 576 679 574 676 q 579 682 578 682 l 582 688 l 607 717 q 615 725 611 721 q 621 733 618 729 l 629 726 q 631 721 631 724 q 625 714 631 719 l 613 700 l 592 669 l 588 656 q 586 649 586 653 l 586 643 q 596 636 589 636 q 610 639 599 636 l 622 647 q 643 665 631 654 q 660 683 656 676 l 667 692 l 674 700 q 676 704 676 703 l 703 740 q 705 728 703 733 q 707 718 707 724 l 710 713 q 690 703 696 707 l 675 690 q 665 675 667 682 q 663 663 663 668 q 672 655 665 656 q 686 654 678 654 m 768 708 q 767 699 767 706 q 785 676 767 676 q 786 677 786 676 q 788 678 786 678 l 797 678 q 818 685 804 679 l 839 696 l 872 725 l 892 754 l 896 768 q 897 772 896 771 q 897 775 897 774 q 894 785 897 779 q 872 796 889 796 q 860 794 867 796 q 847 790 854 793 l 818 774 q 808 767 813 771 q 800 760 804 763 l 786 744 l 776 729 q 768 708 769 718 m 243 -12 q 226 35 226 4 q 228 53 226 42 q 238 74 231 64 q 256 92 244 85 q 286 99 267 99 l 290 99 q 320 88 301 99 q 339 58 339 78 l 313 58 q 305 72 313 65 q 288 78 297 78 q 281 76 283 78 l 275 76 l 264 68 q 255 53 257 61 q 253 33 253 44 q 261 3 253 13 q 282 -8 269 -6 l 286 -8 q 305 -2 293 -8 q 317 18 317 4 l 288 18 l 288 40 l 339 40 l 339 -26 l 322 -26 l 319 -11 q 301 -27 311 -24 q 279 -31 290 -31 q 258 -25 268 -31 q 243 -12 249 -19 m 1469 -153 q 1474 -167 1474 -157 l 1474 -229 l 1450 -229 l 1450 -175 q 1436 -157 1450 -157 q 1421 -175 1421 -157 l 1421 -229 l 1397 -229 l 1397 -175 q 1395 -162 1397 -168 q 1383 -157 1393 -157 q 1368 -174 1368 -157 l 1368 -229 l 1344 -229 l 1344 -139 l 1367 -139 l 1367 -153 q 1393 -136 1376 -136 q 1418 -151 1410 -136 q 1443 -136 1425 -136 q 1460 -141 1453 -136 q 1469 -153 1467 -146 m 644 -142 q 653 -150 649 -144 q 657 -167 657 -156 l 657 -229 l 635 -229 l 635 -175 q 621 -157 635 -157 q 606 -175 606 -157 l 606 -229 l 581 -229 l 581 -167 q 567 -157 581 -157 q 551 -174 551 -157 l 551 -229 l 529 -229 l 529 -139 l 551 -139 l 551 -153 q 578 -136 560 -136 q 603 -151 594 -136 q 626 -136 610 -136 q 644 -142 638 -136 m 1317 -149 q 1328 -185 1328 -160 q 1316 -217 1328 -204 q 1282 -231 1304 -231 q 1248 -217 1260 -231 q 1236 -185 1236 -204 q 1238 -171 1236 -179 q 1244 -155 1239 -162 q 1258 -142 1249 -147 q 1282 -136 1267 -136 q 1317 -149 1300 -136 m 947 65 q 980 53 967 65 q 993 18 993 42 q 983 -14 993 1 q 947 -29 972 -29 q 913 -14 924 -29 q 901 18 901 1 q 910 49 901 33 q 947 65 919 65 m 196 -139 l 219 -139 l 194 -229 l 169 -229 l 156 -164 l 142 -229 l 117 -229 l 92 -139 l 117 -139 l 131 -204 l 143 -139 l 168 -139 l 181 -204 l 196 -139 m 482 -139 l 456 -229 l 432 -229 l 418 -164 l 403 -229 l 379 -229 l 354 -139 l 379 -139 l 393 -204 l 406 -139 l 431 -139 l 443 -204 l 457 -139 l 482 -139 m 326 -139 l 351 -139 l 325 -229 l 301 -229 l 286 -164 l 272 -229 l 247 -229 l 224 -139 l 247 -139 l 263 -204 l 275 -139 l 299 -139 l 313 -204 l 326 -139 m 868 -139 l 892 -139 l 867 -229 l 842 -229 l 828 -164 l 814 -229 l 789 -229 l 764 -139 l 789 -139 l 803 -204 l 815 -139 l 839 -139 l 853 -204 l 868 -139 m 242 536 l 250 544 l 264 561 q 271 569 265 564 l 321 639 q 329 651 325 646 q 336 663 333 656 l 353 688 q 372 715 360 699 q 383 740 383 731 q 378 744 383 744 q 371 743 372 744 l 364 739 l 338 707 q 326 692 331 700 l 314 676 l 249 579 q 239 563 243 571 q 231 546 235 554 l 228 542 q 227 540 228 540 q 226 538 226 539 l 226 535 q 228 532 226 533 l 235 532 l 242 536 m 1250 -26 q 1244 -28 1246 -28 q 1238 -29 1242 -29 q 1217 -21 1224 -29 q 1210 -1 1210 -12 q 1236 26 1210 22 l 1257 29 q 1265 36 1265 31 q 1251 47 1265 47 q 1241 45 1244 47 q 1235 33 1238 43 l 1213 33 q 1222 55 1215 44 q 1251 65 1228 65 q 1281 58 1274 65 q 1289 40 1289 50 l 1289 -18 q 1294 -22 1289 -22 l 1294 -26 l 1268 -26 q 1267 -25 1267 -26 l 1267 -24 l 1267 -22 q 1266 -18 1267 -19 q 1265 -15 1265 -17 q 1258 -23 1263 -19 q 1250 -26 1253 -26 m 753 -221 q 757 -225 753 -225 l 757 -229 l 732 -229 q 731 -226 732 -228 l 731 -225 q 729 -218 729 -222 q 721 -225 724 -224 l 713 -229 q 701 -231 710 -231 q 681 -226 690 -231 q 672 -206 672 -221 q 699 -176 672 -181 l 721 -174 q 728 -167 728 -171 q 714 -156 728 -156 q 699 -168 699 -156 l 676 -168 q 685 -145 676 -154 q 714 -136 694 -136 q 744 -145 738 -136 q 751 -162 751 -154 l 751 -211 q 753 -221 751 -218 m 439 11 l 376 11 q 382 -3 376 4 q 399 -10 388 -10 q 410 -6 406 -10 q 414 0 414 -3 l 439 0 q 419 -24 432 -19 q 399 -29 407 -29 q 354 21 354 -29 q 366 55 354 44 q 397 65 378 65 q 432 49 425 65 q 439 17 439 32 l 439 11 m 843 490 q 849 510 849 497 q 838 535 849 521 q 804 549 828 549 q 771 536 782 549 q 760 510 760 524 q 774 481 760 490 q 804 471 788 471 q 826 476 817 471 q 843 490 836 482 m 260 694 q 258 686 258 692 q 268 671 258 678 l 282 667 q 297 668 286 667 q 306 672 308 669 q 304 674 306 674 l 300 674 q 294 672 297 674 q 289 671 292 671 q 271 676 278 671 q 264 689 264 681 q 265 699 264 694 l 271 710 l 285 725 q 324 751 303 744 q 364 765 346 758 l 386 769 q 407 772 400 772 q 424 770 414 772 q 438 764 433 768 l 444 754 q 446 740 446 750 q 443 725 446 736 l 435 710 q 417 685 428 694 q 392 663 406 675 l 374 651 l 343 639 q 333 636 339 639 l 329 636 q 324 635 328 636 q 319 631 319 633 q 321 629 319 629 l 325 629 q 329 631 328 629 l 354 638 l 396 656 l 435 681 l 465 711 q 476 734 472 725 q 479 750 479 743 q 473 767 479 761 q 458 777 467 774 q 441 781 450 781 q 426 782 432 782 q 401 779 421 782 q 358 768 382 776 q 308 746 333 760 q 267 710 283 732 l 260 694 m 1076 -183 q 1083 -200 1083 -187 q 1044 -231 1083 -231 l 1036 -231 q 1010 -221 1018 -231 q 1001 -200 1001 -211 l 1025 -200 q 1046 -212 1025 -212 q 1055 -212 1050 -212 q 1060 -204 1060 -211 q 1050 -197 1060 -199 l 1029 -192 q 1011 -183 1018 -189 q 1004 -167 1004 -176 q 1010 -147 1004 -158 q 1040 -136 1017 -136 q 1065 -141 1056 -136 q 1078 -153 1075 -146 l 1081 -167 l 1057 -167 q 1056 -159 1057 -162 q 1042 -156 1054 -156 q 1028 -164 1028 -156 q 1036 -169 1028 -168 l 1057 -175 q 1076 -183 1065 -176 m 971 -140 q 981 -151 978 -143 q 985 -167 985 -160 l 985 -229 l 961 -229 l 961 -175 q 959 -161 961 -165 q 946 -157 957 -157 q 931 -163 935 -157 q 928 -178 928 -169 l 928 -229 l 903 -229 l 903 -139 l 926 -139 l 926 -153 q 954 -136 936 -136 q 971 -140 963 -136 m 1060 65 q 1081 58 1071 65 q 1092 36 1092 51 l 1092 -26 l 1068 -26 l 1068 28 q 1065 41 1068 36 q 1051 46 1063 46 q 1035 25 1035 46 l 1035 -26 l 1010 -26 l 1010 64 l 1032 64 l 1032 51 q 1060 65 1042 65 m 672 -14 q 660 -25 668 -21 q 644 -29 651 -29 q 624 -21 633 -29 q 614 4 614 -12 l 614 64 l 638 64 l 638 8 q 653 -8 638 -8 q 665 -5 658 -8 q 672 11 672 -1 l 672 64 l 694 64 l 694 -26 l 672 -26 l 672 -14 m 1186 -157 q 1172 -164 1176 -157 q 1167 -182 1167 -171 q 1170 -205 1167 -199 q 1185 -211 1174 -211 q 1195 -209 1190 -211 q 1200 -196 1200 -207 l 1225 -196 q 1214 -221 1225 -211 q 1183 -231 1203 -231 q 1143 -186 1143 -231 q 1152 -151 1143 -167 q 1183 -136 1161 -136 q 1210 -144 1196 -136 q 1225 -171 1225 -151 l 1200 -171 q 1186 -157 1200 -157 m 588 76 q 585 74 585 76 l 585 64 l 600 64 l 600 47 l 585 47 l 585 -26 l 561 -26 l 561 47 l 549 47 l 549 64 l 561 64 l 561 71 q 588 96 561 96 l 600 96 l 600 78 l 593 78 q 588 76 589 78 m 878 64 l 894 64 l 894 47 l 878 47 l 878 -26 l 854 -26 l 854 47 l 842 47 l 842 64 l 854 64 l 854 71 q 881 96 854 96 l 892 96 l 892 78 l 886 78 q 878 74 879 78 l 878 64 m 1351 -26 l 1336 -26 q 1319 -24 1328 -26 q 1311 -8 1311 -21 l 1311 47 l 1300 47 l 1300 64 l 1311 64 l 1311 88 l 1336 88 l 1336 64 l 1351 64 l 1351 47 l 1336 47 l 1336 -1 q 1344 -10 1336 -10 l 1351 -8 l 1351 -26 m 790 683 q 786 692 786 686 q 794 710 786 700 q 806 729 801 721 l 814 739 l 833 764 q 841 772 838 768 q 849 779 844 776 l 864 789 q 871 790 867 790 q 876 782 876 790 q 874 774 876 779 l 865 758 q 860 750 863 753 l 854 742 q 849 733 851 738 q 843 726 846 729 l 815 696 q 805 688 813 693 q 790 683 797 683 m 482 88 l 482 64 l 496 64 l 496 47 l 482 47 l 482 -1 q 483 -8 482 -6 q 492 -10 485 -10 l 494 -8 l 496 -26 l 482 -26 q 464 -23 469 -26 q 458 -8 458 -19 l 458 47 l 446 47 l 446 64 l 458 64 l 458 88 l 482 88 m 1049 744 q 1054 753 1051 750 l 1060 761 q 1072 779 1064 771 l 1086 799 l 1113 831 l 1125 840 q 1139 843 1133 843 l 1143 840 q 1144 838 1143 839 q 1144 835 1144 838 q 1144 830 1144 833 q 1140 824 1143 826 l 1117 789 l 1092 763 q 1083 756 1089 761 l 1074 747 q 1062 740 1068 744 q 1051 735 1056 735 q 1049 736 1050 735 l 1047 736 q 1046 739 1046 738 q 1047 742 1047 740 q 1049 744 1047 743 m 1154 -26 l 1139 -26 q 1124 -24 1131 -26 q 1117 -18 1118 -22 l 1117 47 l 1103 47 l 1103 64 l 1117 64 l 1117 88 l 1139 88 l 1139 64 l 1154 64 l 1154 47 l 1139 47 l 1139 -1 q 1149 -10 1139 -10 l 1154 -8 l 1154 -26 m 824 536 q 828 526 826 531 q 831 510 831 522 q 824 484 831 494 q 804 474 818 474 q 785 483 790 474 l 781 494 q 778 510 778 503 q 778 516 778 513 q 779 522 779 519 l 783 532 q 790 542 786 536 q 806 547 794 547 q 808 547 807 547 q 811 546 808 546 l 824 536 m 740 -26 l 717 -26 l 717 96 l 740 96 l 740 -26 m 781 -26 l 758 -26 l 758 96 l 781 96 l 781 -26 m 710 547 l 629 547 l 629 544 l 632 544 q 644 532 644 544 l 644 488 q 632 474 644 474 l 629 472 l 710 472 l 710 503 q 707 498 707 500 q 706 493 707 496 l 697 482 q 690 478 693 478 l 683 475 q 674 474 679 474 l 661 474 l 663 507 q 678 501 672 507 l 681 497 q 682 491 681 494 q 683 485 683 488 l 685 533 l 683 526 l 679 518 q 665 510 672 510 l 661 510 l 661 544 l 675 544 q 692 543 688 544 l 699 538 l 707 518 l 710 518 l 710 547 m 963 547 l 925 547 l 925 544 l 932 544 q 938 538 932 543 q 943 525 943 532 l 943 493 l 890 547 l 861 547 l 863 544 q 874 541 872 544 q 876 533 876 538 l 876 490 q 860 474 876 474 l 860 472 l 899 474 q 892 475 896 474 q 885 476 888 476 l 881 483 q 879 493 879 485 l 879 538 l 943 472 l 946 472 l 946 525 q 949 538 946 532 q 963 544 951 544 l 963 547 m 617 507 q 607 513 613 510 l 593 518 l 583 519 q 567 524 576 521 q 558 533 558 526 q 558 539 558 531 q 576 547 558 547 q 600 540 593 547 q 614 521 607 532 l 617 521 l 617 546 l 614 546 q 608 540 613 540 q 592 544 601 540 q 576 549 583 549 q 561 546 569 549 l 551 539 q 547 526 547 532 q 550 519 547 524 q 556 513 553 515 l 565 508 q 571 506 567 507 q 582 503 575 506 l 588 501 q 603 497 594 499 q 611 486 611 496 q 601 474 611 479 l 593 474 q 581 475 585 474 l 567 481 l 558 489 q 551 506 551 499 l 549 506 l 549 471 l 551 471 q 561 479 551 479 q 565 478 563 479 q 571 476 567 476 l 582 472 q 593 471 585 471 q 607 474 601 471 q 621 486 613 478 l 621 501 l 617 507 m 964 0 q 969 18 969 6 q 947 46 969 46 q 925 18 925 46 q 947 -8 925 -8 q 964 0 961 -8 m 1299 -203 q 1302 -194 1301 -199 q 1303 -185 1303 -189 q 1300 -165 1303 -174 q 1282 -157 1297 -157 q 1265 -165 1268 -157 q 1261 -185 1261 -174 q 1265 -203 1261 -196 q 1282 -211 1269 -211 q 1299 -203 1294 -211 m 1136 540 q 1142 544 1138 543 q 1147 544 1146 544 l 1147 547 l 1110 547 l 1110 544 l 1114 544 q 1124 542 1122 544 q 1125 538 1125 540 q 1121 529 1125 535 l 1106 508 l 1086 533 q 1083 539 1083 539 l 1083 540 q 1089 544 1083 544 l 1096 544 l 1096 547 l 1047 547 l 1049 544 q 1067 535 1064 544 l 1090 504 l 1090 488 q 1076 474 1090 474 l 1072 472 l 1125 472 l 1119 474 q 1106 488 1106 474 l 1106 506 l 1129 538 q 1136 540 1135 540 m 1051 506 l 1050 506 q 1049 502 1050 507 q 1045 491 1049 497 q 1035 479 1042 485 q 1018 474 1029 474 l 999 474 l 999 532 q 1013 544 999 544 l 1018 544 l 1018 547 l 967 547 l 967 544 l 971 544 q 983 532 983 544 l 983 488 q 971 474 983 474 l 967 472 l 1051 472 l 1051 506 m 538 547 l 500 547 l 500 544 l 508 544 q 518 538 515 544 q 521 525 521 532 l 521 499 q 514 481 521 488 l 504 474 l 492 474 q 476 476 485 474 q 467 494 467 479 l 467 532 q 471 543 467 542 q 481 544 475 544 l 486 544 l 486 547 l 435 547 l 436 544 q 451 532 451 544 l 451 494 q 460 476 451 485 l 472 472 q 488 471 476 471 q 522 497 522 471 l 522 536 l 529 543 l 531 543 q 532 544 531 543 l 538 544 l 538 547 m 510 667 q 500 664 501 664 q 490 667 496 664 l 503 683 l 522 707 q 526 710 525 710 q 529 714 528 711 l 547 725 q 551 726 550 725 q 554 726 551 726 q 560 721 560 726 q 559 719 560 719 q 558 717 558 718 l 554 710 q 545 694 551 707 q 519 672 539 682 l 510 667 m 711 708 q 712 704 711 706 q 713 700 713 703 q 710 685 710 692 l 707 678 q 700 669 706 675 l 694 665 q 678 660 689 660 q 669 664 674 660 l 669 671 l 678 686 q 693 700 685 694 l 711 708 m 1233 -1 q 1238 -10 1233 -8 q 1244 -11 1242 -11 l 1250 -11 q 1260 -6 1256 -10 q 1265 7 1265 -3 l 1265 18 q 1256 14 1261 14 l 1244 11 q 1238 8 1242 11 q 1233 -1 1233 6 m 728 -185 q 719 -189 724 -189 l 708 -190 l 700 -194 q 696 -204 696 -199 q 708 -214 696 -214 l 713 -214 q 715 -213 714 -214 q 717 -212 715 -212 l 725 -207 q 728 -197 728 -204 l 728 -185 m 1101 -204 l 1126 -204 l 1126 -229 l 1101 -229 l 1101 -204 m 482 -204 l 507 -204 l 507 -229 l 482 -229 l 482 -204 m 415 28 q 409 41 413 35 q 397 47 406 47 q 379 28 382 47 l 415 28 m 1292 910 q 1285 901 1290 907 l 1307 932 l 1339 978 q 1340 981 1338 978 q 1346 985 1343 983 l 1346 983 q 1343 975 1346 981 l 1332 960 q 1326 953 1329 954 l 1300 919 l 1292 910 z "},"2":{"ha":1613,"x_min":92,"x_max":1474,"o":"m 139 817 l 353 863 l 344 892 l 376 901 l 369 933 l 403 940 l 399 975 l 431 978 l 431 1010 l 460 1010 l 463 1039 l 494 1035 l 500 1067 l 535 1061 l 543 1093 l 574 1085 l 586 1114 l 618 1101 l 635 1132 l 664 1117 l 681 1144 l 710 1125 l 731 1151 l 757 1131 l 779 1153 l 800 1133 l 821 1151 l 842 1128 l 869 1146 l 888 1117 l 918 1133 l 933 1106 l 963 1118 l 976 1086 l 1010 1096 l 1019 1065 l 1050 1072 l 1057 1039 l 1092 1042 l 1093 1021 l 1414 1090 l 1414 697 l 1267 665 l 1269 663 l 1251 642 l 1269 619 l 1244 599 l 1263 571 l 1233 553 l 1251 524 l 1222 507 l 1235 478 l 1203 464 l 1214 431 l 1183 421 l 1189 390 l 1156 383 l 1158 349 l 1126 346 l 1126 314 l 1099 314 l 1094 285 l 1064 288 l 1057 257 l 1024 263 l 1014 231 l 983 240 l 972 208 l 939 222 l 924 192 l 894 207 l 876 179 l 847 197 l 828 172 l 803 193 l 779 171 l 758 190 l 736 171 l 717 196 l 689 178 l 669 207 l 640 190 l 625 218 l 594 206 l 581 238 l 549 228 l 539 258 l 507 251 l 500 285 l 467 282 l 463 314 l 431 314 l 431 343 l 403 346 l 406 378 l 374 383 l 381 417 l 347 426 l 357 457 l 335 465 l 139 424 l 139 817 m 993 722 q 1008 733 1001 726 l 1026 750 q 1025 746 1025 749 q 1028 733 1025 739 q 1040 726 1032 726 q 1056 731 1047 726 q 1071 739 1064 735 l 1088 751 q 1093 757 1090 754 q 1099 763 1096 760 l 1110 772 q 1107 764 1107 769 l 1107 758 q 1106 754 1106 757 q 1119 740 1106 740 q 1126 742 1124 740 l 1132 744 l 1149 754 l 1188 789 l 1183 779 q 1181 764 1181 774 l 1181 760 q 1189 756 1185 756 q 1197 758 1190 756 q 1206 764 1203 761 l 1222 778 q 1233 787 1228 781 q 1246 800 1239 793 l 1260 817 q 1261 819 1261 818 q 1258 821 1260 821 q 1253 818 1256 821 l 1250 814 l 1232 793 q 1227 788 1229 790 q 1222 783 1225 786 l 1211 774 l 1199 767 q 1197 765 1199 767 q 1194 767 1196 765 l 1201 778 q 1204 783 1203 781 q 1208 789 1206 786 l 1214 797 q 1219 806 1217 800 l 1269 879 q 1281 893 1278 888 l 1322 939 q 1335 956 1329 947 q 1349 972 1342 964 l 1357 986 l 1357 993 q 1350 994 1356 994 q 1338 991 1347 994 q 1324 982 1329 988 l 1317 976 q 1308 970 1313 974 q 1300 963 1304 967 l 1286 947 q 1263 917 1275 936 q 1239 881 1250 899 l 1218 846 l 1197 807 q 1196 806 1196 807 l 1185 794 q 1178 787 1182 790 q 1169 779 1174 783 l 1154 765 l 1142 756 q 1139 754 1142 756 l 1131 751 l 1129 750 q 1128 751 1129 750 l 1136 767 q 1150 790 1140 778 q 1167 814 1160 803 l 1183 840 q 1189 849 1186 843 l 1190 850 q 1192 853 1188 850 q 1197 858 1197 856 q 1192 863 1197 863 l 1183 860 l 1161 846 q 1156 840 1158 843 q 1150 835 1153 838 q 1135 850 1150 850 q 1103 840 1119 850 q 1071 817 1086 831 q 1044 788 1056 804 q 1029 760 1033 772 q 1023 754 1028 760 q 1010 741 1018 749 q 994 728 1003 733 q 978 722 986 722 l 975 722 q 974 724 974 722 l 975 725 l 985 739 l 1011 772 q 1019 783 1015 778 q 1026 794 1024 788 l 1033 808 q 1035 817 1035 811 q 1028 829 1035 829 q 1021 828 1024 829 l 1001 818 q 989 806 996 813 q 976 797 982 800 l 960 781 q 951 773 956 776 q 944 765 947 769 l 928 747 l 931 751 l 971 808 q 973 813 971 810 q 975 819 975 817 l 971 824 q 969 824 969 824 q 965 825 968 825 q 963 824 964 825 q 958 824 961 824 l 946 815 q 943 813 943 814 q 942 810 943 811 l 876 699 q 875 693 875 697 q 877 692 876 693 q 879 692 878 692 q 886 693 883 692 l 893 697 q 895 701 893 699 q 899 704 897 704 l 903 708 q 906 713 903 710 l 935 746 l 965 779 l 989 801 q 997 808 992 803 l 1015 818 q 1017 817 1017 818 l 1011 813 q 1006 807 1010 808 l 992 790 q 979 776 985 783 q 971 761 974 768 l 960 744 q 953 722 953 735 q 961 711 953 711 q 993 722 975 711 m 686 654 q 715 667 701 657 q 736 688 729 676 l 743 701 q 747 717 747 710 l 747 729 q 744 742 747 733 l 735 760 q 729 769 735 764 l 729 774 q 731 776 731 775 l 724 776 q 717 772 721 774 q 711 767 714 769 l 706 756 l 676 715 l 668 703 l 667 700 q 664 699 665 700 l 656 686 l 626 656 q 607 647 618 647 l 606 647 q 607 649 606 647 l 613 657 l 624 672 q 629 679 626 674 l 636 690 l 647 714 q 649 725 649 718 q 647 731 647 726 l 644 735 q 643 739 644 738 l 643 757 l 649 765 l 649 769 q 640 776 649 776 q 616 767 624 776 q 608 750 608 757 q 610 742 608 744 l 613 739 q 615 736 613 739 l 607 726 l 572 683 q 568 681 571 683 l 567 678 q 565 676 567 676 l 557 665 q 525 637 546 654 q 482 619 504 619 q 471 629 471 619 q 474 636 471 631 l 485 657 q 494 654 490 654 q 549 676 519 654 l 561 689 q 566 695 564 692 q 569 701 568 699 l 575 713 q 567 729 575 726 q 551 732 560 732 q 488 700 519 721 q 446 640 456 679 l 446 626 q 465 611 451 611 q 503 620 482 613 q 543 646 524 628 l 574 675 q 576 679 574 676 q 579 682 578 682 l 582 688 l 607 717 q 615 725 611 721 q 621 733 618 729 l 629 726 q 631 721 631 724 q 625 714 631 719 l 613 700 l 592 669 l 588 656 q 586 649 586 653 l 586 643 q 596 636 589 636 q 610 639 599 636 l 622 647 q 643 665 631 654 q 660 683 656 676 l 667 692 l 674 700 q 676 704 676 703 l 703 740 q 705 728 703 733 q 707 718 707 724 l 710 713 q 690 703 696 707 l 675 690 q 665 675 667 682 q 663 663 663 668 q 672 655 665 656 q 686 654 678 654 m 768 708 q 767 699 767 706 q 785 676 767 676 q 786 677 786 676 q 788 678 786 678 l 797 678 q 818 685 804 679 l 839 696 l 872 725 l 892 754 l 896 768 q 897 772 896 771 q 897 775 897 774 q 894 785 897 779 q 872 796 889 796 q 860 794 867 796 q 847 790 854 793 l 818 774 q 808 767 813 771 q 800 760 804 763 l 786 744 l 776 729 q 768 708 769 718 m 243 -12 q 226 35 226 4 q 228 53 226 42 q 238 74 231 64 q 256 92 244 85 q 286 99 267 99 l 290 99 q 320 88 301 99 q 339 58 339 78 l 313 58 q 305 72 313 65 q 288 78 297 78 q 281 76 283 78 l 275 76 l 264 68 q 255 53 257 61 q 253 33 253 44 q 261 3 253 13 q 282 -8 269 -6 l 286 -8 q 305 -2 293 -8 q 317 18 317 4 l 288 18 l 288 40 l 339 40 l 339 -26 l 322 -26 l 319 -11 q 301 -27 311 -24 q 279 -31 290 -31 q 258 -25 268 -31 q 243 -12 249 -19 m 1469 -153 q 1474 -167 1474 -157 l 1474 -229 l 1450 -229 l 1450 -175 q 1436 -157 1450 -157 q 1421 -175 1421 -157 l 1421 -229 l 1397 -229 l 1397 -175 q 1395 -162 1397 -168 q 1383 -157 1393 -157 q 1368 -174 1368 -157 l 1368 -229 l 1344 -229 l 1344 -139 l 1367 -139 l 1367 -153 q 1393 -136 1376 -136 q 1418 -151 1410 -136 q 1443 -136 1425 -136 q 1460 -141 1453 -136 q 1469 -153 1467 -146 m 644 -142 q 653 -150 649 -144 q 657 -167 657 -156 l 657 -229 l 635 -229 l 635 -175 q 621 -157 635 -157 q 606 -175 606 -157 l 606 -229 l 581 -229 l 581 -167 q 567 -157 581 -157 q 551 -174 551 -157 l 551 -229 l 529 -229 l 529 -139 l 551 -139 l 551 -153 q 578 -136 560 -136 q 603 -151 594 -136 q 626 -136 610 -136 q 644 -142 638 -136 m 1317 -149 q 1328 -185 1328 -160 q 1316 -217 1328 -204 q 1282 -231 1304 -231 q 1248 -217 1260 -231 q 1236 -185 1236 -204 q 1238 -171 1236 -179 q 1244 -155 1239 -162 q 1258 -142 1249 -147 q 1282 -136 1267 -136 q 1317 -149 1300 -136 m 947 65 q 980 53 967 65 q 993 18 993 42 q 983 -14 993 1 q 947 -29 972 -29 q 913 -14 924 -29 q 901 18 901 1 q 910 49 901 33 q 947 65 919 65 m 196 -139 l 219 -139 l 194 -229 l 169 -229 l 156 -164 l 142 -229 l 117 -229 l 92 -139 l 117 -139 l 131 -204 l 143 -139 l 168 -139 l 181 -204 l 196 -139 m 482 -139 l 456 -229 l 432 -229 l 418 -164 l 403 -229 l 379 -229 l 354 -139 l 379 -139 l 393 -204 l 406 -139 l 431 -139 l 443 -204 l 457 -139 l 482 -139 m 326 -139 l 351 -139 l 325 -229 l 301 -229 l 286 -164 l 272 -229 l 247 -229 l 224 -139 l 247 -139 l 263 -204 l 275 -139 l 299 -139 l 313 -204 l 326 -139 m 868 -139 l 892 -139 l 867 -229 l 842 -229 l 828 -164 l 814 -229 l 789 -229 l 764 -139 l 789 -139 l 803 -204 l 815 -139 l 839 -139 l 853 -204 l 868 -139 m 242 536 l 250 544 l 264 561 q 271 569 265 564 l 321 639 q 329 651 325 646 q 336 663 333 656 l 353 688 q 372 715 360 699 q 383 740 383 731 q 378 744 383 744 q 371 743 372 744 l 364 739 l 338 707 q 326 692 331 700 l 314 676 l 249 579 q 239 563 243 571 q 231 546 235 554 l 228 542 q 227 540 228 540 q 226 538 226 539 l 226 535 q 228 532 226 533 l 235 532 l 242 536 m 1250 -26 q 1244 -28 1246 -28 q 1238 -29 1242 -29 q 1217 -21 1224 -29 q 1210 -1 1210 -12 q 1236 26 1210 22 l 1257 29 q 1265 36 1265 31 q 1251 47 1265 47 q 1241 45 1244 47 q 1235 33 1238 43 l 1213 33 q 1222 55 1215 44 q 1251 65 1228 65 q 1281 58 1274 65 q 1289 40 1289 50 l 1289 -18 q 1294 -22 1289 -22 l 1294 -26 l 1268 -26 q 1267 -25 1267 -26 l 1267 -24 l 1267 -22 q 1266 -18 1267 -19 q 1265 -15 1265 -17 q 1258 -23 1263 -19 q 1250 -26 1253 -26 m 753 -221 q 757 -225 753 -225 l 757 -229 l 732 -229 q 731 -226 732 -228 l 731 -225 q 729 -218 729 -222 q 721 -225 724 -224 l 713 -229 q 701 -231 710 -231 q 681 -226 690 -231 q 672 -206 672 -221 q 699 -176 672 -181 l 721 -174 q 728 -167 728 -171 q 714 -156 728 -156 q 699 -168 699 -156 l 676 -168 q 685 -145 676 -154 q 714 -136 694 -136 q 744 -145 738 -136 q 751 -162 751 -154 l 751 -211 q 753 -221 751 -218 m 439 11 l 376 11 q 382 -3 376 4 q 399 -10 388 -10 q 410 -6 406 -10 q 414 0 414 -3 l 439 0 q 419 -24 432 -19 q 399 -29 407 -29 q 354 21 354 -29 q 366 55 354 44 q 397 65 378 65 q 432 49 425 65 q 439 17 439 32 l 439 11 m 843 490 q 849 510 849 497 q 838 535 849 521 q 804 549 828 549 q 771 536 782 549 q 760 510 760 524 q 774 481 760 490 q 804 471 788 471 q 826 476 817 471 q 843 490 836 482 m 260 694 q 258 686 258 692 q 268 671 258 678 l 282 667 q 297 668 286 667 q 306 672 308 669 q 304 674 306 674 l 300 674 q 294 672 297 674 q 289 671 292 671 q 271 676 278 671 q 264 689 264 681 q 265 699 264 694 l 271 710 l 285 725 q 324 751 303 744 q 364 765 346 758 l 386 769 q 407 772 400 772 q 424 770 414 772 q 438 764 433 768 l 444 754 q 446 740 446 750 q 443 725 446 736 l 435 710 q 417 685 428 694 q 392 663 406 675 l 374 651 l 343 639 q 333 636 339 639 l 329 636 q 324 635 328 636 q 319 631 319 633 q 321 629 319 629 l 325 629 q 329 631 328 629 l 354 638 l 396 656 l 435 681 l 465 711 q 476 734 472 725 q 479 750 479 743 q 473 767 479 761 q 458 777 467 774 q 441 781 450 781 q 426 782 432 782 q 401 779 421 782 q 358 768 382 776 q 308 746 333 760 q 267 710 283 732 l 260 694 m 1076 -183 q 1083 -200 1083 -187 q 1044 -231 1083 -231 l 1036 -231 q 1010 -221 1018 -231 q 1001 -200 1001 -211 l 1025 -200 q 1046 -212 1025 -212 q 1055 -212 1050 -212 q 1060 -204 1060 -211 q 1050 -197 1060 -199 l 1029 -192 q 1011 -183 1018 -189 q 1004 -167 1004 -176 q 1010 -147 1004 -158 q 1040 -136 1017 -136 q 1065 -141 1056 -136 q 1078 -153 1075 -146 l 1081 -167 l 1057 -167 q 1056 -159 1057 -162 q 1042 -156 1054 -156 q 1028 -164 1028 -156 q 1036 -169 1028 -168 l 1057 -175 q 1076 -183 1065 -176 m 971 -140 q 981 -151 978 -143 q 985 -167 985 -160 l 985 -229 l 961 -229 l 961 -175 q 959 -161 961 -165 q 946 -157 957 -157 q 931 -163 935 -157 q 928 -178 928 -169 l 928 -229 l 903 -229 l 903 -139 l 926 -139 l 926 -153 q 954 -136 936 -136 q 971 -140 963 -136 m 1060 65 q 1081 58 1071 65 q 1092 36 1092 51 l 1092 -26 l 1068 -26 l 1068 28 q 1065 41 1068 36 q 1051 46 1063 46 q 1035 25 1035 46 l 1035 -26 l 1010 -26 l 1010 64 l 1032 64 l 1032 51 q 1060 65 1042 65 m 672 -14 q 660 -25 668 -21 q 644 -29 651 -29 q 624 -21 633 -29 q 614 4 614 -12 l 614 64 l 638 64 l 638 8 q 653 -8 638 -8 q 665 -5 658 -8 q 672 11 672 -1 l 672 64 l 694 64 l 694 -26 l 672 -26 l 672 -14 m 1186 -157 q 1172 -164 1176 -157 q 1167 -182 1167 -171 q 1170 -205 1167 -199 q 1185 -211 1174 -211 q 1195 -209 1190 -211 q 1200 -196 1200 -207 l 1225 -196 q 1214 -221 1225 -211 q 1183 -231 1203 -231 q 1143 -186 1143 -231 q 1152 -151 1143 -167 q 1183 -136 1161 -136 q 1210 -144 1196 -136 q 1225 -171 1225 -151 l 1200 -171 q 1186 -157 1200 -157 m 588 76 q 585 74 585 76 l 585 64 l 600 64 l 600 47 l 585 47 l 585 -26 l 561 -26 l 561 47 l 549 47 l 549 64 l 561 64 l 561 71 q 588 96 561 96 l 600 96 l 600 78 l 593 78 q 588 76 589 78 m 878 64 l 894 64 l 894 47 l 878 47 l 878 -26 l 854 -26 l 854 47 l 842 47 l 842 64 l 854 64 l 854 71 q 881 96 854 96 l 892 96 l 892 78 l 886 78 q 878 74 879 78 l 878 64 m 1351 -26 l 1336 -26 q 1319 -24 1328 -26 q 1311 -8 1311 -21 l 1311 47 l 1300 47 l 1300 64 l 1311 64 l 1311 88 l 1336 88 l 1336 64 l 1351 64 l 1351 47 l 1336 47 l 1336 -1 q 1344 -10 1336 -10 l 1351 -8 l 1351 -26 m 790 683 q 786 692 786 686 q 794 710 786 700 q 806 729 801 721 l 814 739 l 833 764 q 841 772 838 768 q 849 779 844 776 l 864 789 q 871 790 867 790 q 876 782 876 790 q 874 774 876 779 l 865 758 q 860 750 863 753 l 854 742 q 849 733 851 738 q 843 726 846 729 l 815 696 q 805 688 813 693 q 790 683 797 683 m 482 88 l 482 64 l 496 64 l 496 47 l 482 47 l 482 -1 q 483 -8 482 -6 q 492 -10 485 -10 l 494 -8 l 496 -26 l 482 -26 q 464 -23 469 -26 q 458 -8 458 -19 l 458 47 l 446 47 l 446 64 l 458 64 l 458 88 l 482 88 m 1049 744 q 1054 753 1051 750 l 1060 761 q 1072 779 1064 771 l 1086 799 l 1113 831 l 1125 840 q 1139 843 1133 843 l 1143 840 q 1144 838 1143 839 q 1144 835 1144 838 q 1144 830 1144 833 q 1140 824 1143 826 l 1117 789 l 1092 763 q 1083 756 1089 761 l 1074 747 q 1062 740 1068 744 q 1051 735 1056 735 q 1049 736 1050 735 l 1047 736 q 1046 739 1046 738 q 1047 742 1047 740 q 1049 744 1047 743 m 1154 -26 l 1139 -26 q 1124 -24 1131 -26 q 1117 -18 1118 -22 l 1117 47 l 1103 47 l 1103 64 l 1117 64 l 1117 88 l 1139 88 l 1139 64 l 1154 64 l 1154 47 l 1139 47 l 1139 -1 q 1149 -10 1139 -10 l 1154 -8 l 1154 -26 m 824 536 q 828 526 826 531 q 831 510 831 522 q 824 484 831 494 q 804 474 818 474 q 785 483 790 474 l 781 494 q 778 510 778 503 q 778 516 778 513 q 779 522 779 519 l 783 532 q 790 542 786 536 q 806 547 794 547 q 808 547 807 547 q 811 546 808 546 l 824 536 m 740 -26 l 717 -26 l 717 96 l 740 96 l 740 -26 m 781 -26 l 758 -26 l 758 96 l 781 96 l 781 -26 m 710 547 l 629 547 l 629 544 l 632 544 q 644 532 644 544 l 644 488 q 632 474 644 474 l 629 472 l 710 472 l 710 503 q 707 498 707 500 q 706 493 707 496 l 697 482 q 690 478 693 478 l 683 475 q 674 474 679 474 l 661 474 l 663 507 q 678 501 672 507 l 681 497 q 682 491 681 494 q 683 485 683 488 l 685 533 l 683 526 l 679 518 q 665 510 672 510 l 661 510 l 661 544 l 675 544 q 692 543 688 544 l 699 538 l 707 518 l 710 518 l 710 547 m 963 547 l 925 547 l 925 544 l 932 544 q 938 538 932 543 q 943 525 943 532 l 943 493 l 890 547 l 861 547 l 863 544 q 874 541 872 544 q 876 533 876 538 l 876 490 q 860 474 876 474 l 860 472 l 899 474 q 892 475 896 474 q 885 476 888 476 l 881 483 q 879 493 879 485 l 879 538 l 943 472 l 946 472 l 946 525 q 949 538 946 532 q 963 544 951 544 l 963 547 m 617 507 q 607 513 613 510 l 593 518 l 583 519 q 567 524 576 521 q 558 533 558 526 q 558 539 558 531 q 576 547 558 547 q 600 540 593 547 q 614 521 607 532 l 617 521 l 617 546 l 614 546 q 608 540 613 540 q 592 544 601 540 q 576 549 583 549 q 561 546 569 549 l 551 539 q 547 526 547 532 q 550 519 547 524 q 556 513 553 515 l 565 508 q 571 506 567 507 q 582 503 575 506 l 588 501 q 603 497 594 499 q 611 486 611 496 q 601 474 611 479 l 593 474 q 581 475 585 474 l 567 481 l 558 489 q 551 506 551 499 l 549 506 l 549 471 l 551 471 q 561 479 551 479 q 565 478 563 479 q 571 476 567 476 l 582 472 q 593 471 585 471 q 607 474 601 471 q 621 486 613 478 l 621 501 l 617 507 m 964 0 q 969 18 969 6 q 947 46 969 46 q 925 18 925 46 q 947 -8 925 -8 q 964 0 961 -8 m 1299 -203 q 1302 -194 1301 -199 q 1303 -185 1303 -189 q 1300 -165 1303 -174 q 1282 -157 1297 -157 q 1265 -165 1268 -157 q 1261 -185 1261 -174 q 1265 -203 1261 -196 q 1282 -211 1269 -211 q 1299 -203 1294 -211 m 1136 540 q 1142 544 1138 543 q 1147 544 1146 544 l 1147 547 l 1110 547 l 1110 544 l 1114 544 q 1124 542 1122 544 q 1125 538 1125 540 q 1121 529 1125 535 l 1106 508 l 1086 533 q 1083 539 1083 539 l 1083 540 q 1089 544 1083 544 l 1096 544 l 1096 547 l 1047 547 l 1049 544 q 1067 535 1064 544 l 1090 504 l 1090 488 q 1076 474 1090 474 l 1072 472 l 1125 472 l 1119 474 q 1106 488 1106 474 l 1106 506 l 1129 538 q 1136 540 1135 540 m 1051 506 l 1050 506 q 1049 502 1050 507 q 1045 491 1049 497 q 1035 479 1042 485 q 1018 474 1029 474 l 999 474 l 999 532 q 1013 544 999 544 l 1018 544 l 1018 547 l 967 547 l 967 544 l 971 544 q 983 532 983 544 l 983 488 q 971 474 983 474 l 967 472 l 1051 472 l 1051 506 m 538 547 l 500 547 l 500 544 l 508 544 q 518 538 515 544 q 521 525 521 532 l 521 499 q 514 481 521 488 l 504 474 l 492 474 q 476 476 485 474 q 467 494 467 479 l 467 532 q 471 543 467 542 q 481 544 475 544 l 486 544 l 486 547 l 435 547 l 436 544 q 451 532 451 544 l 451 494 q 460 476 451 485 l 472 472 q 488 471 476 471 q 522 497 522 471 l 522 536 l 529 543 l 531 543 q 532 544 531 543 l 538 544 l 538 547 m 510 667 q 500 664 501 664 q 490 667 496 664 l 503 683 l 522 707 q 526 710 525 710 q 529 714 528 711 l 547 725 q 551 726 550 725 q 554 726 551 726 q 560 721 560 726 q 559 719 560 719 q 558 717 558 718 l 554 710 q 545 694 551 707 q 519 672 539 682 l 510 667 m 711 708 q 712 704 711 706 q 713 700 713 703 q 710 685 710 692 l 707 678 q 700 669 706 675 l 694 665 q 678 660 689 660 q 669 664 674 660 l 669 671 l 678 686 q 693 700 685 694 l 711 708 m 1233 -1 q 1238 -10 1233 -8 q 1244 -11 1242 -11 l 1250 -11 q 1260 -6 1256 -10 q 1265 7 1265 -3 l 1265 18 q 1256 14 1261 14 l 1244 11 q 1238 8 1242 11 q 1233 -1 1233 6 m 728 -185 q 719 -189 724 -189 l 708 -190 l 700 -194 q 696 -204 696 -199 q 708 -214 696 -214 l 713 -214 q 715 -213 714 -214 q 717 -212 715 -212 l 725 -207 q 728 -197 728 -204 l 728 -185 m 1101 -204 l 1126 -204 l 1126 -229 l 1101 -229 l 1101 -204 m 482 -204 l 507 -204 l 507 -229 l 482 -229 l 482 -204 m 415 28 q 409 41 413 35 q 397 47 406 47 q 379 28 382 47 l 415 28 m 1292 910 q 1285 901 1290 907 l 1307 932 l 1339 978 q 1340 981 1338 978 q 1346 985 1343 983 l 1346 983 q 1343 975 1346 981 l 1332 960 q 1326 953 1329 954 l 1300 919 l 1292 910 z "},"3":{"ha":1613,"x_min":92,"x_max":1474,"o":"m 139 817 l 353 863 l 344 892 l 376 901 l 369 933 l 403 940 l 399 975 l 431 978 l 431 1010 l 460 1010 l 463 1039 l 494 1035 l 500 1067 l 535 1061 l 543 1093 l 574 1085 l 586 1114 l 618 1101 l 635 1132 l 664 1117 l 681 1144 l 710 1125 l 731 1151 l 757 1131 l 779 1153 l 800 1133 l 821 1151 l 842 1128 l 869 1146 l 888 1117 l 918 1133 l 933 1106 l 963 1118 l 976 1086 l 1010 1096 l 1019 1065 l 1050 1072 l 1057 1039 l 1092 1042 l 1093 1021 l 1414 1090 l 1414 697 l 1267 665 l 1269 663 l 1251 642 l 1269 619 l 1244 599 l 1263 571 l 1233 553 l 1251 524 l 1222 507 l 1235 478 l 1203 464 l 1214 431 l 1183 421 l 1189 390 l 1156 383 l 1158 349 l 1126 346 l 1126 314 l 1099 314 l 1094 285 l 1064 288 l 1057 257 l 1024 263 l 1014 231 l 983 240 l 972 208 l 939 222 l 924 192 l 894 207 l 876 179 l 847 197 l 828 172 l 803 193 l 779 171 l 758 190 l 736 171 l 717 196 l 689 178 l 669 207 l 640 190 l 625 218 l 594 206 l 581 238 l 549 228 l 539 258 l 507 251 l 500 285 l 467 282 l 463 314 l 431 314 l 431 343 l 403 346 l 406 378 l 374 383 l 381 417 l 347 426 l 357 457 l 335 465 l 139 424 l 139 817 m 993 722 q 1008 733 1001 726 l 1026 750 q 1025 746 1025 749 q 1028 733 1025 739 q 1040 726 1032 726 q 1056 731 1047 726 q 1071 739 1064 735 l 1088 751 q 1093 757 1090 754 q 1099 763 1096 760 l 1110 772 q 1107 764 1107 769 l 1107 758 q 1106 754 1106 757 q 1119 740 1106 740 q 1126 742 1124 740 l 1132 744 l 1149 754 l 1188 789 l 1183 779 q 1181 764 1181 774 l 1181 760 q 1189 756 1185 756 q 1197 758 1190 756 q 1206 764 1203 761 l 1222 778 q 1233 787 1228 781 q 1246 800 1239 793 l 1260 817 q 1261 819 1261 818 q 1258 821 1260 821 q 1253 818 1256 821 l 1250 814 l 1232 793 q 1227 788 1229 790 q 1222 783 1225 786 l 1211 774 l 1199 767 q 1197 765 1199 767 q 1194 767 1196 765 l 1201 778 q 1204 783 1203 781 q 1208 789 1206 786 l 1214 797 q 1219 806 1217 800 l 1269 879 q 1281 893 1278 888 l 1322 939 q 1335 956 1329 947 q 1349 972 1342 964 l 1357 986 l 1357 993 q 1350 994 1356 994 q 1338 991 1347 994 q 1324 982 1329 988 l 1317 976 q 1308 970 1313 974 q 1300 963 1304 967 l 1286 947 q 1263 917 1275 936 q 1239 881 1250 899 l 1218 846 l 1197 807 q 1196 806 1196 807 l 1185 794 q 1178 787 1182 790 q 1169 779 1174 783 l 1154 765 l 1142 756 q 1139 754 1142 756 l 1131 751 l 1129 750 q 1128 751 1129 750 l 1136 767 q 1150 790 1140 778 q 1167 814 1160 803 l 1183 840 q 1189 849 1186 843 l 1190 850 q 1192 853 1188 850 q 1197 858 1197 856 q 1192 863 1197 863 l 1183 860 l 1161 846 q 1156 840 1158 843 q 1150 835 1153 838 q 1135 850 1150 850 q 1103 840 1119 850 q 1071 817 1086 831 q 1044 788 1056 804 q 1029 760 1033 772 q 1023 754 1028 760 q 1010 741 1018 749 q 994 728 1003 733 q 978 722 986 722 l 975 722 q 974 724 974 722 l 975 725 l 985 739 l 1011 772 q 1019 783 1015 778 q 1026 794 1024 788 l 1033 808 q 1035 817 1035 811 q 1028 829 1035 829 q 1021 828 1024 829 l 1001 818 q 989 806 996 813 q 976 797 982 800 l 960 781 q 951 773 956 776 q 944 765 947 769 l 928 747 l 931 751 l 971 808 q 973 813 971 810 q 975 819 975 817 l 971 824 q 969 824 969 824 q 965 825 968 825 q 963 824 964 825 q 958 824 961 824 l 946 815 q 943 813 943 814 q 942 810 943 811 l 876 699 q 875 693 875 697 q 877 692 876 693 q 879 692 878 692 q 886 693 883 692 l 893 697 q 895 701 893 699 q 899 704 897 704 l 903 708 q 906 713 903 710 l 935 746 l 965 779 l 989 801 q 997 808 992 803 l 1015 818 q 1017 817 1017 818 l 1011 813 q 1006 807 1010 808 l 992 790 q 979 776 985 783 q 971 761 974 768 l 960 744 q 953 722 953 735 q 961 711 953 711 q 993 722 975 711 m 686 654 q 715 667 701 657 q 736 688 729 676 l 743 701 q 747 717 747 710 l 747 729 q 744 742 747 733 l 735 760 q 729 769 735 764 l 729 774 q 731 776 731 775 l 724 776 q 717 772 721 774 q 711 767 714 769 l 706 756 l 676 715 l 668 703 l 667 700 q 664 699 665 700 l 656 686 l 626 656 q 607 647 618 647 l 606 647 q 607 649 606 647 l 613 657 l 624 672 q 629 679 626 674 l 636 690 l 647 714 q 649 725 649 718 q 647 731 647 726 l 644 735 q 643 739 644 738 l 643 757 l 649 765 l 649 769 q 640 776 649 776 q 616 767 624 776 q 608 750 608 757 q 610 742 608 744 l 613 739 q 615 736 613 739 l 607 726 l 572 683 q 568 681 571 683 l 567 678 q 565 676 567 676 l 557 665 q 525 637 546 654 q 482 619 504 619 q 471 629 471 619 q 474 636 471 631 l 485 657 q 494 654 490 654 q 549 676 519 654 l 561 689 q 566 695 564 692 q 569 701 568 699 l 575 713 q 567 729 575 726 q 551 732 560 732 q 488 700 519 721 q 446 640 456 679 l 446 626 q 465 611 451 611 q 503 620 482 613 q 543 646 524 628 l 574 675 q 576 679 574 676 q 579 682 578 682 l 582 688 l 607 717 q 615 725 611 721 q 621 733 618 729 l 629 726 q 631 721 631 724 q 625 714 631 719 l 613 700 l 592 669 l 588 656 q 586 649 586 653 l 586 643 q 596 636 589 636 q 610 639 599 636 l 622 647 q 643 665 631 654 q 660 683 656 676 l 667 692 l 674 700 q 676 704 676 703 l 703 740 q 705 728 703 733 q 707 718 707 724 l 710 713 q 690 703 696 707 l 675 690 q 665 675 667 682 q 663 663 663 668 q 672 655 665 656 q 686 654 678 654 m 768 708 q 767 699 767 706 q 785 676 767 676 q 786 677 786 676 q 788 678 786 678 l 797 678 q 818 685 804 679 l 839 696 l 872 725 l 892 754 l 896 768 q 897 772 896 771 q 897 775 897 774 q 894 785 897 779 q 872 796 889 796 q 860 794 867 796 q 847 790 854 793 l 818 774 q 808 767 813 771 q 800 760 804 763 l 786 744 l 776 729 q 768 708 769 718 m 243 -12 q 226 35 226 4 q 228 53 226 42 q 238 74 231 64 q 256 92 244 85 q 286 99 267 99 l 290 99 q 320 88 301 99 q 339 58 339 78 l 313 58 q 305 72 313 65 q 288 78 297 78 q 281 76 283 78 l 275 76 l 264 68 q 255 53 257 61 q 253 33 253 44 q 261 3 253 13 q 282 -8 269 -6 l 286 -8 q 305 -2 293 -8 q 317 18 317 4 l 288 18 l 288 40 l 339 40 l 339 -26 l 322 -26 l 319 -11 q 301 -27 311 -24 q 279 -31 290 -31 q 258 -25 268 -31 q 243 -12 249 -19 m 1469 -153 q 1474 -167 1474 -157 l 1474 -229 l 1450 -229 l 1450 -175 q 1436 -157 1450 -157 q 1421 -175 1421 -157 l 1421 -229 l 1397 -229 l 1397 -175 q 1395 -162 1397 -168 q 1383 -157 1393 -157 q 1368 -174 1368 -157 l 1368 -229 l 1344 -229 l 1344 -139 l 1367 -139 l 1367 -153 q 1393 -136 1376 -136 q 1418 -151 1410 -136 q 1443 -136 1425 -136 q 1460 -141 1453 -136 q 1469 -153 1467 -146 m 644 -142 q 653 -150 649 -144 q 657 -167 657 -156 l 657 -229 l 635 -229 l 635 -175 q 621 -157 635 -157 q 606 -175 606 -157 l 606 -229 l 581 -229 l 581 -167 q 567 -157 581 -157 q 551 -174 551 -157 l 551 -229 l 529 -229 l 529 -139 l 551 -139 l 551 -153 q 578 -136 560 -136 q 603 -151 594 -136 q 626 -136 610 -136 q 644 -142 638 -136 m 1317 -149 q 1328 -185 1328 -160 q 1316 -217 1328 -204 q 1282 -231 1304 -231 q 1248 -217 1260 -231 q 1236 -185 1236 -204 q 1238 -171 1236 -179 q 1244 -155 1239 -162 q 1258 -142 1249 -147 q 1282 -136 1267 -136 q 1317 -149 1300 -136 m 947 65 q 980 53 967 65 q 993 18 993 42 q 983 -14 993 1 q 947 -29 972 -29 q 913 -14 924 -29 q 901 18 901 1 q 910 49 901 33 q 947 65 919 65 m 196 -139 l 219 -139 l 194 -229 l 169 -229 l 156 -164 l 142 -229 l 117 -229 l 92 -139 l 117 -139 l 131 -204 l 143 -139 l 168 -139 l 181 -204 l 196 -139 m 482 -139 l 456 -229 l 432 -229 l 418 -164 l 403 -229 l 379 -229 l 354 -139 l 379 -139 l 393 -204 l 406 -139 l 431 -139 l 443 -204 l 457 -139 l 482 -139 m 326 -139 l 351 -139 l 325 -229 l 301 -229 l 286 -164 l 272 -229 l 247 -229 l 224 -139 l 247 -139 l 263 -204 l 275 -139 l 299 -139 l 313 -204 l 326 -139 m 868 -139 l 892 -139 l 867 -229 l 842 -229 l 828 -164 l 814 -229 l 789 -229 l 764 -139 l 789 -139 l 803 -204 l 815 -139 l 839 -139 l 853 -204 l 868 -139 m 242 536 l 250 544 l 264 561 q 271 569 265 564 l 321 639 q 329 651 325 646 q 336 663 333 656 l 353 688 q 372 715 360 699 q 383 740 383 731 q 378 744 383 744 q 371 743 372 744 l 364 739 l 338 707 q 326 692 331 700 l 314 676 l 249 579 q 239 563 243 571 q 231 546 235 554 l 228 542 q 227 540 228 540 q 226 538 226 539 l 226 535 q 228 532 226 533 l 235 532 l 242 536 m 1250 -26 q 1244 -28 1246 -28 q 1238 -29 1242 -29 q 1217 -21 1224 -29 q 1210 -1 1210 -12 q 1236 26 1210 22 l 1257 29 q 1265 36 1265 31 q 1251 47 1265 47 q 1241 45 1244 47 q 1235 33 1238 43 l 1213 33 q 1222 55 1215 44 q 1251 65 1228 65 q 1281 58 1274 65 q 1289 40 1289 50 l 1289 -18 q 1294 -22 1289 -22 l 1294 -26 l 1268 -26 q 1267 -25 1267 -26 l 1267 -24 l 1267 -22 q 1266 -18 1267 -19 q 1265 -15 1265 -17 q 1258 -23 1263 -19 q 1250 -26 1253 -26 m 753 -221 q 757 -225 753 -225 l 757 -229 l 732 -229 q 731 -226 732 -228 l 731 -225 q 729 -218 729 -222 q 721 -225 724 -224 l 713 -229 q 701 -231 710 -231 q 681 -226 690 -231 q 672 -206 672 -221 q 699 -176 672 -181 l 721 -174 q 728 -167 728 -171 q 714 -156 728 -156 q 699 -168 699 -156 l 676 -168 q 685 -145 676 -154 q 714 -136 694 -136 q 744 -145 738 -136 q 751 -162 751 -154 l 751 -211 q 753 -221 751 -218 m 439 11 l 376 11 q 382 -3 376 4 q 399 -10 388 -10 q 410 -6 406 -10 q 414 0 414 -3 l 439 0 q 419 -24 432 -19 q 399 -29 407 -29 q 354 21 354 -29 q 366 55 354 44 q 397 65 378 65 q 432 49 425 65 q 439 17 439 32 l 439 11 m 843 490 q 849 510 849 497 q 838 535 849 521 q 804 549 828 549 q 771 536 782 549 q 760 510 760 524 q 774 481 760 490 q 804 471 788 471 q 826 476 817 471 q 843 490 836 482 m 260 694 q 258 686 258 692 q 268 671 258 678 l 282 667 q 297 668 286 667 q 306 672 308 669 q 304 674 306 674 l 300 674 q 294 672 297 674 q 289 671 292 671 q 271 676 278 671 q 264 689 264 681 q 265 699 264 694 l 271 710 l 285 725 q 324 751 303 744 q 364 765 346 758 l 386 769 q 407 772 400 772 q 424 770 414 772 q 438 764 433 768 l 444 754 q 446 740 446 750 q 443 725 446 736 l 435 710 q 417 685 428 694 q 392 663 406 675 l 374 651 l 343 639 q 333 636 339 639 l 329 636 q 324 635 328 636 q 319 631 319 633 q 321 629 319 629 l 325 629 q 329 631 328 629 l 354 638 l 396 656 l 435 681 l 465 711 q 476 734 472 725 q 479 750 479 743 q 473 767 479 761 q 458 777 467 774 q 441 781 450 781 q 426 782 432 782 q 401 779 421 782 q 358 768 382 776 q 308 746 333 760 q 267 710 283 732 l 260 694 m 1076 -183 q 1083 -200 1083 -187 q 1044 -231 1083 -231 l 1036 -231 q 1010 -221 1018 -231 q 1001 -200 1001 -211 l 1025 -200 q 1046 -212 1025 -212 q 1055 -212 1050 -212 q 1060 -204 1060 -211 q 1050 -197 1060 -199 l 1029 -192 q 1011 -183 1018 -189 q 1004 -167 1004 -176 q 1010 -147 1004 -158 q 1040 -136 1017 -136 q 1065 -141 1056 -136 q 1078 -153 1075 -146 l 1081 -167 l 1057 -167 q 1056 -159 1057 -162 q 1042 -156 1054 -156 q 1028 -164 1028 -156 q 1036 -169 1028 -168 l 1057 -175 q 1076 -183 1065 -176 m 971 -140 q 981 -151 978 -143 q 985 -167 985 -160 l 985 -229 l 961 -229 l 961 -175 q 959 -161 961 -165 q 946 -157 957 -157 q 931 -163 935 -157 q 928 -178 928 -169 l 928 -229 l 903 -229 l 903 -139 l 926 -139 l 926 -153 q 954 -136 936 -136 q 971 -140 963 -136 m 1060 65 q 1081 58 1071 65 q 1092 36 1092 51 l 1092 -26 l 1068 -26 l 1068 28 q 1065 41 1068 36 q 1051 46 1063 46 q 1035 25 1035 46 l 1035 -26 l 1010 -26 l 1010 64 l 1032 64 l 1032 51 q 1060 65 1042 65 m 672 -14 q 660 -25 668 -21 q 644 -29 651 -29 q 624 -21 633 -29 q 614 4 614 -12 l 614 64 l 638 64 l 638 8 q 653 -8 638 -8 q 665 -5 658 -8 q 672 11 672 -1 l 672 64 l 694 64 l 694 -26 l 672 -26 l 672 -14 m 1186 -157 q 1172 -164 1176 -157 q 1167 -182 1167 -171 q 1170 -205 1167 -199 q 1185 -211 1174 -211 q 1195 -209 1190 -211 q 1200 -196 1200 -207 l 1225 -196 q 1214 -221 1225 -211 q 1183 -231 1203 -231 q 1143 -186 1143 -231 q 1152 -151 1143 -167 q 1183 -136 1161 -136 q 1210 -144 1196 -136 q 1225 -171 1225 -151 l 1200 -171 q 1186 -157 1200 -157 m 588 76 q 585 74 585 76 l 585 64 l 600 64 l 600 47 l 585 47 l 585 -26 l 561 -26 l 561 47 l 549 47 l 549 64 l 561 64 l 561 71 q 588 96 561 96 l 600 96 l 600 78 l 593 78 q 588 76 589 78 m 878 64 l 894 64 l 894 47 l 878 47 l 878 -26 l 854 -26 l 854 47 l 842 47 l 842 64 l 854 64 l 854 71 q 881 96 854 96 l 892 96 l 892 78 l 886 78 q 878 74 879 78 l 878 64 m 1351 -26 l 1336 -26 q 1319 -24 1328 -26 q 1311 -8 1311 -21 l 1311 47 l 1300 47 l 1300 64 l 1311 64 l 1311 88 l 1336 88 l 1336 64 l 1351 64 l 1351 47 l 1336 47 l 1336 -1 q 1344 -10 1336 -10 l 1351 -8 l 1351 -26 m 790 683 q 786 692 786 686 q 794 710 786 700 q 806 729 801 721 l 814 739 l 833 764 q 841 772 838 768 q 849 779 844 776 l 864 789 q 871 790 867 790 q 876 782 876 790 q 874 774 876 779 l 865 758 q 860 750 863 753 l 854 742 q 849 733 851 738 q 843 726 846 729 l 815 696 q 805 688 813 693 q 790 683 797 683 m 482 88 l 482 64 l 496 64 l 496 47 l 482 47 l 482 -1 q 483 -8 482 -6 q 492 -10 485 -10 l 494 -8 l 496 -26 l 482 -26 q 464 -23 469 -26 q 458 -8 458 -19 l 458 47 l 446 47 l 446 64 l 458 64 l 458 88 l 482 88 m 1049 744 q 1054 753 1051 750 l 1060 761 q 1072 779 1064 771 l 1086 799 l 1113 831 l 1125 840 q 1139 843 1133 843 l 1143 840 q 1144 838 1143 839 q 1144 835 1144 838 q 1144 830 1144 833 q 1140 824 1143 826 l 1117 789 l 1092 763 q 1083 756 1089 761 l 1074 747 q 1062 740 1068 744 q 1051 735 1056 735 q 1049 736 1050 735 l 1047 736 q 1046 739 1046 738 q 1047 742 1047 740 q 1049 744 1047 743 m 1154 -26 l 1139 -26 q 1124 -24 1131 -26 q 1117 -18 1118 -22 l 1117 47 l 1103 47 l 1103 64 l 1117 64 l 1117 88 l 1139 88 l 1139 64 l 1154 64 l 1154 47 l 1139 47 l 1139 -1 q 1149 -10 1139 -10 l 1154 -8 l 1154 -26 m 824 536 q 828 526 826 531 q 831 510 831 522 q 824 484 831 494 q 804 474 818 474 q 785 483 790 474 l 781 494 q 778 510 778 503 q 778 516 778 513 q 779 522 779 519 l 783 532 q 790 542 786 536 q 806 547 794 547 q 808 547 807 547 q 811 546 808 546 l 824 536 m 740 -26 l 717 -26 l 717 96 l 740 96 l 740 -26 m 781 -26 l 758 -26 l 758 96 l 781 96 l 781 -26 m 710 547 l 629 547 l 629 544 l 632 544 q 644 532 644 544 l 644 488 q 632 474 644 474 l 629 472 l 710 472 l 710 503 q 707 498 707 500 q 706 493 707 496 l 697 482 q 690 478 693 478 l 683 475 q 674 474 679 474 l 661 474 l 663 507 q 678 501 672 507 l 681 497 q 682 491 681 494 q 683 485 683 488 l 685 533 l 683 526 l 679 518 q 665 510 672 510 l 661 510 l 661 544 l 675 544 q 692 543 688 544 l 699 538 l 707 518 l 710 518 l 710 547 m 963 547 l 925 547 l 925 544 l 932 544 q 938 538 932 543 q 943 525 943 532 l 943 493 l 890 547 l 861 547 l 863 544 q 874 541 872 544 q 876 533 876 538 l 876 490 q 860 474 876 474 l 860 472 l 899 474 q 892 475 896 474 q 885 476 888 476 l 881 483 q 879 493 879 485 l 879 538 l 943 472 l 946 472 l 946 525 q 949 538 946 532 q 963 544 951 544 l 963 547 m 617 507 q 607 513 613 510 l 593 518 l 583 519 q 567 524 576 521 q 558 533 558 526 q 558 539 558 531 q 576 547 558 547 q 600 540 593 547 q 614 521 607 532 l 617 521 l 617 546 l 614 546 q 608 540 613 540 q 592 544 601 540 q 576 549 583 549 q 561 546 569 549 l 551 539 q 547 526 547 532 q 550 519 547 524 q 556 513 553 515 l 565 508 q 571 506 567 507 q 582 503 575 506 l 588 501 q 603 497 594 499 q 611 486 611 496 q 601 474 611 479 l 593 474 q 581 475 585 474 l 567 481 l 558 489 q 551 506 551 499 l 549 506 l 549 471 l 551 471 q 561 479 551 479 q 565 478 563 479 q 571 476 567 476 l 582 472 q 593 471 585 471 q 607 474 601 471 q 621 486 613 478 l 621 501 l 617 507 m 964 0 q 969 18 969 6 q 947 46 969 46 q 925 18 925 46 q 947 -8 925 -8 q 964 0 961 -8 m 1299 -203 q 1302 -194 1301 -199 q 1303 -185 1303 -189 q 1300 -165 1303 -174 q 1282 -157 1297 -157 q 1265 -165 1268 -157 q 1261 -185 1261 -174 q 1265 -203 1261 -196 q 1282 -211 1269 -211 q 1299 -203 1294 -211 m 1136 540 q 1142 544 1138 543 q 1147 544 1146 544 l 1147 547 l 1110 547 l 1110 544 l 1114 544 q 1124 542 1122 544 q 1125 538 1125 540 q 1121 529 1125 535 l 1106 508 l 1086 533 q 1083 539 1083 539 l 1083 540 q 1089 544 1083 544 l 1096 544 l 1096 547 l 1047 547 l 1049 544 q 1067 535 1064 544 l 1090 504 l 1090 488 q 1076 474 1090 474 l 1072 472 l 1125 472 l 1119 474 q 1106 488 1106 474 l 1106 506 l 1129 538 q 1136 540 1135 540 m 1051 506 l 1050 506 q 1049 502 1050 507 q 1045 491 1049 497 q 1035 479 1042 485 q 1018 474 1029 474 l 999 474 l 999 532 q 1013 544 999 544 l 1018 544 l 1018 547 l 967 547 l 967 544 l 971 544 q 983 532 983 544 l 983 488 q 971 474 983 474 l 967 472 l 1051 472 l 1051 506 m 538 547 l 500 547 l 500 544 l 508 544 q 518 538 515 544 q 521 525 521 532 l 521 499 q 514 481 521 488 l 504 474 l 492 474 q 476 476 485 474 q 467 494 467 479 l 467 532 q 471 543 467 542 q 481 544 475 544 l 486 544 l 486 547 l 435 547 l 436 544 q 451 532 451 544 l 451 494 q 460 476 451 485 l 472 472 q 488 471 476 471 q 522 497 522 471 l 522 536 l 529 543 l 531 543 q 532 544 531 543 l 538 544 l 538 547 m 510 667 q 500 664 501 664 q 490 667 496 664 l 503 683 l 522 707 q 526 710 525 710 q 529 714 528 711 l 547 725 q 551 726 550 725 q 554 726 551 726 q 560 721 560 726 q 559 719 560 719 q 558 717 558 718 l 554 710 q 545 694 551 707 q 519 672 539 682 l 510 667 m 711 708 q 712 704 711 706 q 713 700 713 703 q 710 685 710 692 l 707 678 q 700 669 706 675 l 694 665 q 678 660 689 660 q 669 664 674 660 l 669 671 l 678 686 q 693 700 685 694 l 711 708 m 1233 -1 q 1238 -10 1233 -8 q 1244 -11 1242 -11 l 1250 -11 q 1260 -6 1256 -10 q 1265 7 1265 -3 l 1265 18 q 1256 14 1261 14 l 1244 11 q 1238 8 1242 11 q 1233 -1 1233 6 m 728 -185 q 719 -189 724 -189 l 708 -190 l 700 -194 q 696 -204 696 -199 q 708 -214 696 -214 l 713 -214 q 715 -213 714 -214 q 717 -212 715 -212 l 725 -207 q 728 -197 728 -204 l 728 -185 m 1101 -204 l 1126 -204 l 1126 -229 l 1101 -229 l 1101 -204 m 482 -204 l 507 -204 l 507 -229 l 482 -229 l 482 -204 m 415 28 q 409 41 413 35 q 397 47 406 47 q 379 28 382 47 l 415 28 m 1292 910 q 1285 901 1290 907 l 1307 932 l 1339 978 q 1340 981 1338 978 q 1346 985 1343 983 l 1346 983 q 1343 975 1346 981 l 1332 960 q 1326 953 1329 954 l 1300 919 l 1292 910 z "},"4":{"ha":1613,"x_min":92,"x_max":1474,"o":"m 139 817 l 353 863 l 344 892 l 376 901 l 369 933 l 403 940 l 399 975 l 431 978 l 431 1010 l 460 1010 l 463 1039 l 494 1035 l 500 1067 l 535 1061 l 543 1093 l 574 1085 l 586 1114 l 618 1101 l 635 1132 l 664 1117 l 681 1144 l 710 1125 l 731 1151 l 757 1131 l 779 1153 l 800 1133 l 821 1151 l 842 1128 l 869 1146 l 888 1117 l 918 1133 l 933 1106 l 963 1118 l 976 1086 l 1010 1096 l 1019 1065 l 1050 1072 l 1057 1039 l 1092 1042 l 1093 1021 l 1414 1090 l 1414 697 l 1267 665 l 1269 663 l 1251 642 l 1269 619 l 1244 599 l 1263 571 l 1233 553 l 1251 524 l 1222 507 l 1235 478 l 1203 464 l 1214 431 l 1183 421 l 1189 390 l 1156 383 l 1158 349 l 1126 346 l 1126 314 l 1099 314 l 1094 285 l 1064 288 l 1057 257 l 1024 263 l 1014 231 l 983 240 l 972 208 l 939 222 l 924 192 l 894 207 l 876 179 l 847 197 l 828 172 l 803 193 l 779 171 l 758 190 l 736 171 l 717 196 l 689 178 l 669 207 l 640 190 l 625 218 l 594 206 l 581 238 l 549 228 l 539 258 l 507 251 l 500 285 l 467 282 l 463 314 l 431 314 l 431 343 l 403 346 l 406 378 l 374 383 l 381 417 l 347 426 l 357 457 l 335 465 l 139 424 l 139 817 m 993 722 q 1008 733 1001 726 l 1026 750 q 1025 746 1025 749 q 1028 733 1025 739 q 1040 726 1032 726 q 1056 731 1047 726 q 1071 739 1064 735 l 1088 751 q 1093 757 1090 754 q 1099 763 1096 760 l 1110 772 q 1107 764 1107 769 l 1107 758 q 1106 754 1106 757 q 1119 740 1106 740 q 1126 742 1124 740 l 1132 744 l 1149 754 l 1188 789 l 1183 779 q 1181 764 1181 774 l 1181 760 q 1189 756 1185 756 q 1197 758 1190 756 q 1206 764 1203 761 l 1222 778 q 1233 787 1228 781 q 1246 800 1239 793 l 1260 817 q 1261 819 1261 818 q 1258 821 1260 821 q 1253 818 1256 821 l 1250 814 l 1232 793 q 1227 788 1229 790 q 1222 783 1225 786 l 1211 774 l 1199 767 q 1197 765 1199 767 q 1194 767 1196 765 l 1201 778 q 1204 783 1203 781 q 1208 789 1206 786 l 1214 797 q 1219 806 1217 800 l 1269 879 q 1281 893 1278 888 l 1322 939 q 1335 956 1329 947 q 1349 972 1342 964 l 1357 986 l 1357 993 q 1350 994 1356 994 q 1338 991 1347 994 q 1324 982 1329 988 l 1317 976 q 1308 970 1313 974 q 1300 963 1304 967 l 1286 947 q 1263 917 1275 936 q 1239 881 1250 899 l 1218 846 l 1197 807 q 1196 806 1196 807 l 1185 794 q 1178 787 1182 790 q 1169 779 1174 783 l 1154 765 l 1142 756 q 1139 754 1142 756 l 1131 751 l 1129 750 q 1128 751 1129 750 l 1136 767 q 1150 790 1140 778 q 1167 814 1160 803 l 1183 840 q 1189 849 1186 843 l 1190 850 q 1192 853 1188 850 q 1197 858 1197 856 q 1192 863 1197 863 l 1183 860 l 1161 846 q 1156 840 1158 843 q 1150 835 1153 838 q 1135 850 1150 850 q 1103 840 1119 850 q 1071 817 1086 831 q 1044 788 1056 804 q 1029 760 1033 772 q 1023 754 1028 760 q 1010 741 1018 749 q 994 728 1003 733 q 978 722 986 722 l 975 722 q 974 724 974 722 l 975 725 l 985 739 l 1011 772 q 1019 783 1015 778 q 1026 794 1024 788 l 1033 808 q 1035 817 1035 811 q 1028 829 1035 829 q 1021 828 1024 829 l 1001 818 q 989 806 996 813 q 976 797 982 800 l 960 781 q 951 773 956 776 q 944 765 947 769 l 928 747 l 931 751 l 971 808 q 973 813 971 810 q 975 819 975 817 l 971 824 q 969 824 969 824 q 965 825 968 825 q 963 824 964 825 q 958 824 961 824 l 946 815 q 943 813 943 814 q 942 810 943 811 l 876 699 q 875 693 875 697 q 877 692 876 693 q 879 692 878 692 q 886 693 883 692 l 893 697 q 895 701 893 699 q 899 704 897 704 l 903 708 q 906 713 903 710 l 935 746 l 965 779 l 989 801 q 997 808 992 803 l 1015 818 q 1017 817 1017 818 l 1011 813 q 1006 807 1010 808 l 992 790 q 979 776 985 783 q 971 761 974 768 l 960 744 q 953 722 953 735 q 961 711 953 711 q 993 722 975 711 m 686 654 q 715 667 701 657 q 736 688 729 676 l 743 701 q 747 717 747 710 l 747 729 q 744 742 747 733 l 735 760 q 729 769 735 764 l 729 774 q 731 776 731 775 l 724 776 q 717 772 721 774 q 711 767 714 769 l 706 756 l 676 715 l 668 703 l 667 700 q 664 699 665 700 l 656 686 l 626 656 q 607 647 618 647 l 606 647 q 607 649 606 647 l 613 657 l 624 672 q 629 679 626 674 l 636 690 l 647 714 q 649 725 649 718 q 647 731 647 726 l 644 735 q 643 739 644 738 l 643 757 l 649 765 l 649 769 q 640 776 649 776 q 616 767 624 776 q 608 750 608 757 q 610 742 608 744 l 613 739 q 615 736 613 739 l 607 726 l 572 683 q 568 681 571 683 l 567 678 q 565 676 567 676 l 557 665 q 525 637 546 654 q 482 619 504 619 q 471 629 471 619 q 474 636 471 631 l 485 657 q 494 654 490 654 q 549 676 519 654 l 561 689 q 566 695 564 692 q 569 701 568 699 l 575 713 q 567 729 575 726 q 551 732 560 732 q 488 700 519 721 q 446 640 456 679 l 446 626 q 465 611 451 611 q 503 620 482 613 q 543 646 524 628 l 574 675 q 576 679 574 676 q 579 682 578 682 l 582 688 l 607 717 q 615 725 611 721 q 621 733 618 729 l 629 726 q 631 721 631 724 q 625 714 631 719 l 613 700 l 592 669 l 588 656 q 586 649 586 653 l 586 643 q 596 636 589 636 q 610 639 599 636 l 622 647 q 643 665 631 654 q 660 683 656 676 l 667 692 l 674 700 q 676 704 676 703 l 703 740 q 705 728 703 733 q 707 718 707 724 l 710 713 q 690 703 696 707 l 675 690 q 665 675 667 682 q 663 663 663 668 q 672 655 665 656 q 686 654 678 654 m 768 708 q 767 699 767 706 q 785 676 767 676 q 786 677 786 676 q 788 678 786 678 l 797 678 q 818 685 804 679 l 839 696 l 872 725 l 892 754 l 896 768 q 897 772 896 771 q 897 775 897 774 q 894 785 897 779 q 872 796 889 796 q 860 794 867 796 q 847 790 854 793 l 818 774 q 808 767 813 771 q 800 760 804 763 l 786 744 l 776 729 q 768 708 769 718 m 243 -12 q 226 35 226 4 q 228 53 226 42 q 238 74 231 64 q 256 92 244 85 q 286 99 267 99 l 290 99 q 320 88 301 99 q 339 58 339 78 l 313 58 q 305 72 313 65 q 288 78 297 78 q 281 76 283 78 l 275 76 l 264 68 q 255 53 257 61 q 253 33 253 44 q 261 3 253 13 q 282 -8 269 -6 l 286 -8 q 305 -2 293 -8 q 317 18 317 4 l 288 18 l 288 40 l 339 40 l 339 -26 l 322 -26 l 319 -11 q 301 -27 311 -24 q 279 -31 290 -31 q 258 -25 268 -31 q 243 -12 249 -19 m 1469 -153 q 1474 -167 1474 -157 l 1474 -229 l 1450 -229 l 1450 -175 q 1436 -157 1450 -157 q 1421 -175 1421 -157 l 1421 -229 l 1397 -229 l 1397 -175 q 1395 -162 1397 -168 q 1383 -157 1393 -157 q 1368 -174 1368 -157 l 1368 -229 l 1344 -229 l 1344 -139 l 1367 -139 l 1367 -153 q 1393 -136 1376 -136 q 1418 -151 1410 -136 q 1443 -136 1425 -136 q 1460 -141 1453 -136 q 1469 -153 1467 -146 m 644 -142 q 653 -150 649 -144 q 657 -167 657 -156 l 657 -229 l 635 -229 l 635 -175 q 621 -157 635 -157 q 606 -175 606 -157 l 606 -229 l 581 -229 l 581 -167 q 567 -157 581 -157 q 551 -174 551 -157 l 551 -229 l 529 -229 l 529 -139 l 551 -139 l 551 -153 q 578 -136 560 -136 q 603 -151 594 -136 q 626 -136 610 -136 q 644 -142 638 -136 m 1317 -149 q 1328 -185 1328 -160 q 1316 -217 1328 -204 q 1282 -231 1304 -231 q 1248 -217 1260 -231 q 1236 -185 1236 -204 q 1238 -171 1236 -179 q 1244 -155 1239 -162 q 1258 -142 1249 -147 q 1282 -136 1267 -136 q 1317 -149 1300 -136 m 947 65 q 980 53 967 65 q 993 18 993 42 q 983 -14 993 1 q 947 -29 972 -29 q 913 -14 924 -29 q 901 18 901 1 q 910 49 901 33 q 947 65 919 65 m 196 -139 l 219 -139 l 194 -229 l 169 -229 l 156 -164 l 142 -229 l 117 -229 l 92 -139 l 117 -139 l 131 -204 l 143 -139 l 168 -139 l 181 -204 l 196 -139 m 482 -139 l 456 -229 l 432 -229 l 418 -164 l 403 -229 l 379 -229 l 354 -139 l 379 -139 l 393 -204 l 406 -139 l 431 -139 l 443 -204 l 457 -139 l 482 -139 m 326 -139 l 351 -139 l 325 -229 l 301 -229 l 286 -164 l 272 -229 l 247 -229 l 224 -139 l 247 -139 l 263 -204 l 275 -139 l 299 -139 l 313 -204 l 326 -139 m 868 -139 l 892 -139 l 867 -229 l 842 -229 l 828 -164 l 814 -229 l 789 -229 l 764 -139 l 789 -139 l 803 -204 l 815 -139 l 839 -139 l 853 -204 l 868 -139 m 242 536 l 250 544 l 264 561 q 271 569 265 564 l 321 639 q 329 651 325 646 q 336 663 333 656 l 353 688 q 372 715 360 699 q 383 740 383 731 q 378 744 383 744 q 371 743 372 744 l 364 739 l 338 707 q 326 692 331 700 l 314 676 l 249 579 q 239 563 243 571 q 231 546 235 554 l 228 542 q 227 540 228 540 q 226 538 226 539 l 226 535 q 228 532 226 533 l 235 532 l 242 536 m 1250 -26 q 1244 -28 1246 -28 q 1238 -29 1242 -29 q 1217 -21 1224 -29 q 1210 -1 1210 -12 q 1236 26 1210 22 l 1257 29 q 1265 36 1265 31 q 1251 47 1265 47 q 1241 45 1244 47 q 1235 33 1238 43 l 1213 33 q 1222 55 1215 44 q 1251 65 1228 65 q 1281 58 1274 65 q 1289 40 1289 50 l 1289 -18 q 1294 -22 1289 -22 l 1294 -26 l 1268 -26 q 1267 -25 1267 -26 l 1267 -24 l 1267 -22 q 1266 -18 1267 -19 q 1265 -15 1265 -17 q 1258 -23 1263 -19 q 1250 -26 1253 -26 m 753 -221 q 757 -225 753 -225 l 757 -229 l 732 -229 q 731 -226 732 -228 l 731 -225 q 729 -218 729 -222 q 721 -225 724 -224 l 713 -229 q 701 -231 710 -231 q 681 -226 690 -231 q 672 -206 672 -221 q 699 -176 672 -181 l 721 -174 q 728 -167 728 -171 q 714 -156 728 -156 q 699 -168 699 -156 l 676 -168 q 685 -145 676 -154 q 714 -136 694 -136 q 744 -145 738 -136 q 751 -162 751 -154 l 751 -211 q 753 -221 751 -218 m 439 11 l 376 11 q 382 -3 376 4 q 399 -10 388 -10 q 410 -6 406 -10 q 414 0 414 -3 l 439 0 q 419 -24 432 -19 q 399 -29 407 -29 q 354 21 354 -29 q 366 55 354 44 q 397 65 378 65 q 432 49 425 65 q 439 17 439 32 l 439 11 m 843 490 q 849 510 849 497 q 838 535 849 521 q 804 549 828 549 q 771 536 782 549 q 760 510 760 524 q 774 481 760 490 q 804 471 788 471 q 826 476 817 471 q 843 490 836 482 m 260 694 q 258 686 258 692 q 268 671 258 678 l 282 667 q 297 668 286 667 q 306 672 308 669 q 304 674 306 674 l 300 674 q 294 672 297 674 q 289 671 292 671 q 271 676 278 671 q 264 689 264 681 q 265 699 264 694 l 271 710 l 285 725 q 324 751 303 744 q 364 765 346 758 l 386 769 q 407 772 400 772 q 424 770 414 772 q 438 764 433 768 l 444 754 q 446 740 446 750 q 443 725 446 736 l 435 710 q 417 685 428 694 q 392 663 406 675 l 374 651 l 343 639 q 333 636 339 639 l 329 636 q 324 635 328 636 q 319 631 319 633 q 321 629 319 629 l 325 629 q 329 631 328 629 l 354 638 l 396 656 l 435 681 l 465 711 q 476 734 472 725 q 479 750 479 743 q 473 767 479 761 q 458 777 467 774 q 441 781 450 781 q 426 782 432 782 q 401 779 421 782 q 358 768 382 776 q 308 746 333 760 q 267 710 283 732 l 260 694 m 1076 -183 q 1083 -200 1083 -187 q 1044 -231 1083 -231 l 1036 -231 q 1010 -221 1018 -231 q 1001 -200 1001 -211 l 1025 -200 q 1046 -212 1025 -212 q 1055 -212 1050 -212 q 1060 -204 1060 -211 q 1050 -197 1060 -199 l 1029 -192 q 1011 -183 1018 -189 q 1004 -167 1004 -176 q 1010 -147 1004 -158 q 1040 -136 1017 -136 q 1065 -141 1056 -136 q 1078 -153 1075 -146 l 1081 -167 l 1057 -167 q 1056 -159 1057 -162 q 1042 -156 1054 -156 q 1028 -164 1028 -156 q 1036 -169 1028 -168 l 1057 -175 q 1076 -183 1065 -176 m 971 -140 q 981 -151 978 -143 q 985 -167 985 -160 l 985 -229 l 961 -229 l 961 -175 q 959 -161 961 -165 q 946 -157 957 -157 q 931 -163 935 -157 q 928 -178 928 -169 l 928 -229 l 903 -229 l 903 -139 l 926 -139 l 926 -153 q 954 -136 936 -136 q 971 -140 963 -136 m 1060 65 q 1081 58 1071 65 q 1092 36 1092 51 l 1092 -26 l 1068 -26 l 1068 28 q 1065 41 1068 36 q 1051 46 1063 46 q 1035 25 1035 46 l 1035 -26 l 1010 -26 l 1010 64 l 1032 64 l 1032 51 q 1060 65 1042 65 m 672 -14 q 660 -25 668 -21 q 644 -29 651 -29 q 624 -21 633 -29 q 614 4 614 -12 l 614 64 l 638 64 l 638 8 q 653 -8 638 -8 q 665 -5 658 -8 q 672 11 672 -1 l 672 64 l 694 64 l 694 -26 l 672 -26 l 672 -14 m 1186 -157 q 1172 -164 1176 -157 q 1167 -182 1167 -171 q 1170 -205 1167 -199 q 1185 -211 1174 -211 q 1195 -209 1190 -211 q 1200 -196 1200 -207 l 1225 -196 q 1214 -221 1225 -211 q 1183 -231 1203 -231 q 1143 -186 1143 -231 q 1152 -151 1143 -167 q 1183 -136 1161 -136 q 1210 -144 1196 -136 q 1225 -171 1225 -151 l 1200 -171 q 1186 -157 1200 -157 m 588 76 q 585 74 585 76 l 585 64 l 600 64 l 600 47 l 585 47 l 585 -26 l 561 -26 l 561 47 l 549 47 l 549 64 l 561 64 l 561 71 q 588 96 561 96 l 600 96 l 600 78 l 593 78 q 588 76 589 78 m 878 64 l 894 64 l 894 47 l 878 47 l 878 -26 l 854 -26 l 854 47 l 842 47 l 842 64 l 854 64 l 854 71 q 881 96 854 96 l 892 96 l 892 78 l 886 78 q 878 74 879 78 l 878 64 m 1351 -26 l 1336 -26 q 1319 -24 1328 -26 q 1311 -8 1311 -21 l 1311 47 l 1300 47 l 1300 64 l 1311 64 l 1311 88 l 1336 88 l 1336 64 l 1351 64 l 1351 47 l 1336 47 l 1336 -1 q 1344 -10 1336 -10 l 1351 -8 l 1351 -26 m 790 683 q 786 692 786 686 q 794 710 786 700 q 806 729 801 721 l 814 739 l 833 764 q 841 772 838 768 q 849 779 844 776 l 864 789 q 871 790 867 790 q 876 782 876 790 q 874 774 876 779 l 865 758 q 860 750 863 753 l 854 742 q 849 733 851 738 q 843 726 846 729 l 815 696 q 805 688 813 693 q 790 683 797 683 m 482 88 l 482 64 l 496 64 l 496 47 l 482 47 l 482 -1 q 483 -8 482 -6 q 492 -10 485 -10 l 494 -8 l 496 -26 l 482 -26 q 464 -23 469 -26 q 458 -8 458 -19 l 458 47 l 446 47 l 446 64 l 458 64 l 458 88 l 482 88 m 1049 744 q 1054 753 1051 750 l 1060 761 q 1072 779 1064 771 l 1086 799 l 1113 831 l 1125 840 q 1139 843 1133 843 l 1143 840 q 1144 838 1143 839 q 1144 835 1144 838 q 1144 830 1144 833 q 1140 824 1143 826 l 1117 789 l 1092 763 q 1083 756 1089 761 l 1074 747 q 1062 740 1068 744 q 1051 735 1056 735 q 1049 736 1050 735 l 1047 736 q 1046 739 1046 738 q 1047 742 1047 740 q 1049 744 1047 743 m 1154 -26 l 1139 -26 q 1124 -24 1131 -26 q 1117 -18 1118 -22 l 1117 47 l 1103 47 l 1103 64 l 1117 64 l 1117 88 l 1139 88 l 1139 64 l 1154 64 l 1154 47 l 1139 47 l 1139 -1 q 1149 -10 1139 -10 l 1154 -8 l 1154 -26 m 824 536 q 828 526 826 531 q 831 510 831 522 q 824 484 831 494 q 804 474 818 474 q 785 483 790 474 l 781 494 q 778 510 778 503 q 778 516 778 513 q 779 522 779 519 l 783 532 q 790 542 786 536 q 806 547 794 547 q 808 547 807 547 q 811 546 808 546 l 824 536 m 740 -26 l 717 -26 l 717 96 l 740 96 l 740 -26 m 781 -26 l 758 -26 l 758 96 l 781 96 l 781 -26 m 710 547 l 629 547 l 629 544 l 632 544 q 644 532 644 544 l 644 488 q 632 474 644 474 l 629 472 l 710 472 l 710 503 q 707 498 707 500 q 706 493 707 496 l 697 482 q 690 478 693 478 l 683 475 q 674 474 679 474 l 661 474 l 663 507 q 678 501 672 507 l 681 497 q 682 491 681 494 q 683 485 683 488 l 685 533 l 683 526 l 679 518 q 665 510 672 510 l 661 510 l 661 544 l 675 544 q 692 543 688 544 l 699 538 l 707 518 l 710 518 l 710 547 m 963 547 l 925 547 l 925 544 l 932 544 q 938 538 932 543 q 943 525 943 532 l 943 493 l 890 547 l 861 547 l 863 544 q 874 541 872 544 q 876 533 876 538 l 876 490 q 860 474 876 474 l 860 472 l 899 474 q 892 475 896 474 q 885 476 888 476 l 881 483 q 879 493 879 485 l 879 538 l 943 472 l 946 472 l 946 525 q 949 538 946 532 q 963 544 951 544 l 963 547 m 617 507 q 607 513 613 510 l 593 518 l 583 519 q 567 524 576 521 q 558 533 558 526 q 558 539 558 531 q 576 547 558 547 q 600 540 593 547 q 614 521 607 532 l 617 521 l 617 546 l 614 546 q 608 540 613 540 q 592 544 601 540 q 576 549 583 549 q 561 546 569 549 l 551 539 q 547 526 547 532 q 550 519 547 524 q 556 513 553 515 l 565 508 q 571 506 567 507 q 582 503 575 506 l 588 501 q 603 497 594 499 q 611 486 611 496 q 601 474 611 479 l 593 474 q 581 475 585 474 l 567 481 l 558 489 q 551 506 551 499 l 549 506 l 549 471 l 551 471 q 561 479 551 479 q 565 478 563 479 q 571 476 567 476 l 582 472 q 593 471 585 471 q 607 474 601 471 q 621 486 613 478 l 621 501 l 617 507 m 964 0 q 969 18 969 6 q 947 46 969 46 q 925 18 925 46 q 947 -8 925 -8 q 964 0 961 -8 m 1299 -203 q 1302 -194 1301 -199 q 1303 -185 1303 -189 q 1300 -165 1303 -174 q 1282 -157 1297 -157 q 1265 -165 1268 -157 q 1261 -185 1261 -174 q 1265 -203 1261 -196 q 1282 -211 1269 -211 q 1299 -203 1294 -211 m 1136 540 q 1142 544 1138 543 q 1147 544 1146 544 l 1147 547 l 1110 547 l 1110 544 l 1114 544 q 1124 542 1122 544 q 1125 538 1125 540 q 1121 529 1125 535 l 1106 508 l 1086 533 q 1083 539 1083 539 l 1083 540 q 1089 544 1083 544 l 1096 544 l 1096 547 l 1047 547 l 1049 544 q 1067 535 1064 544 l 1090 504 l 1090 488 q 1076 474 1090 474 l 1072 472 l 1125 472 l 1119 474 q 1106 488 1106 474 l 1106 506 l 1129 538 q 1136 540 1135 540 m 1051 506 l 1050 506 q 1049 502 1050 507 q 1045 491 1049 497 q 1035 479 1042 485 q 1018 474 1029 474 l 999 474 l 999 532 q 1013 544 999 544 l 1018 544 l 1018 547 l 967 547 l 967 544 l 971 544 q 983 532 983 544 l 983 488 q 971 474 983 474 l 967 472 l 1051 472 l 1051 506 m 538 547 l 500 547 l 500 544 l 508 544 q 518 538 515 544 q 521 525 521 532 l 521 499 q 514 481 521 488 l 504 474 l 492 474 q 476 476 485 474 q 467 494 467 479 l 467 532 q 471 543 467 542 q 481 544 475 544 l 486 544 l 486 547 l 435 547 l 436 544 q 451 532 451 544 l 451 494 q 460 476 451 485 l 472 472 q 488 471 476 471 q 522 497 522 471 l 522 536 l 529 543 l 531 543 q 532 544 531 543 l 538 544 l 538 547 m 510 667 q 500 664 501 664 q 490 667 496 664 l 503 683 l 522 707 q 526 710 525 710 q 529 714 528 711 l 547 725 q 551 726 550 725 q 554 726 551 726 q 560 721 560 726 q 559 719 560 719 q 558 717 558 718 l 554 710 q 545 694 551 707 q 519 672 539 682 l 510 667 m 711 708 q 712 704 711 706 q 713 700 713 703 q 710 685 710 692 l 707 678 q 700 669 706 675 l 694 665 q 678 660 689 660 q 669 664 674 660 l 669 671 l 678 686 q 693 700 685 694 l 711 708 m 1233 -1 q 1238 -10 1233 -8 q 1244 -11 1242 -11 l 1250 -11 q 1260 -6 1256 -10 q 1265 7 1265 -3 l 1265 18 q 1256 14 1261 14 l 1244 11 q 1238 8 1242 11 q 1233 -1 1233 6 m 728 -185 q 719 -189 724 -189 l 708 -190 l 700 -194 q 696 -204 696 -199 q 708 -214 696 -214 l 713 -214 q 715 -213 714 -214 q 717 -212 715 -212 l 725 -207 q 728 -197 728 -204 l 728 -185 m 1101 -204 l 1126 -204 l 1126 -229 l 1101 -229 l 1101 -204 m 482 -204 l 507 -204 l 507 -229 l 482 -229 l 482 -204 m 415 28 q 409 41 413 35 q 397 47 406 47 q 379 28 382 47 l 415 28 m 1292 910 q 1285 901 1290 907 l 1307 932 l 1339 978 q 1340 981 1338 978 q 1346 985 1343 983 l 1346 983 q 1343 975 1346 981 l 1332 960 q 1326 953 1329 954 l 1300 919 l 1292 910 z "},"5":{"ha":1613,"x_min":92,"x_max":1474,"o":"m 139 817 l 353 863 l 344 892 l 376 901 l 369 933 l 403 940 l 399 975 l 431 978 l 431 1010 l 460 1010 l 463 1039 l 494 1035 l 500 1067 l 535 1061 l 543 1093 l 574 1085 l 586 1114 l 618 1101 l 635 1132 l 664 1117 l 681 1144 l 710 1125 l 731 1151 l 757 1131 l 779 1153 l 800 1133 l 821 1151 l 842 1128 l 869 1146 l 888 1117 l 918 1133 l 933 1106 l 963 1118 l 976 1086 l 1010 1096 l 1019 1065 l 1050 1072 l 1057 1039 l 1092 1042 l 1093 1021 l 1414 1090 l 1414 697 l 1267 665 l 1269 663 l 1251 642 l 1269 619 l 1244 599 l 1263 571 l 1233 553 l 1251 524 l 1222 507 l 1235 478 l 1203 464 l 1214 431 l 1183 421 l 1189 390 l 1156 383 l 1158 349 l 1126 346 l 1126 314 l 1099 314 l 1094 285 l 1064 288 l 1057 257 l 1024 263 l 1014 231 l 983 240 l 972 208 l 939 222 l 924 192 l 894 207 l 876 179 l 847 197 l 828 172 l 803 193 l 779 171 l 758 190 l 736 171 l 717 196 l 689 178 l 669 207 l 640 190 l 625 218 l 594 206 l 581 238 l 549 228 l 539 258 l 507 251 l 500 285 l 467 282 l 463 314 l 431 314 l 431 343 l 403 346 l 406 378 l 374 383 l 381 417 l 347 426 l 357 457 l 335 465 l 139 424 l 139 817 m 993 722 q 1008 733 1001 726 l 1026 750 q 1025 746 1025 749 q 1028 733 1025 739 q 1040 726 1032 726 q 1056 731 1047 726 q 1071 739 1064 735 l 1088 751 q 1093 757 1090 754 q 1099 763 1096 760 l 1110 772 q 1107 764 1107 769 l 1107 758 q 1106 754 1106 757 q 1119 740 1106 740 q 1126 742 1124 740 l 1132 744 l 1149 754 l 1188 789 l 1183 779 q 1181 764 1181 774 l 1181 760 q 1189 756 1185 756 q 1197 758 1190 756 q 1206 764 1203 761 l 1222 778 q 1233 787 1228 781 q 1246 800 1239 793 l 1260 817 q 1261 819 1261 818 q 1258 821 1260 821 q 1253 818 1256 821 l 1250 814 l 1232 793 q 1227 788 1229 790 q 1222 783 1225 786 l 1211 774 l 1199 767 q 1197 765 1199 767 q 1194 767 1196 765 l 1201 778 q 1204 783 1203 781 q 1208 789 1206 786 l 1214 797 q 1219 806 1217 800 l 1269 879 q 1281 893 1278 888 l 1322 939 q 1335 956 1329 947 q 1349 972 1342 964 l 1357 986 l 1357 993 q 1350 994 1356 994 q 1338 991 1347 994 q 1324 982 1329 988 l 1317 976 q 1308 970 1313 974 q 1300 963 1304 967 l 1286 947 q 1263 917 1275 936 q 1239 881 1250 899 l 1218 846 l 1197 807 q 1196 806 1196 807 l 1185 794 q 1178 787 1182 790 q 1169 779 1174 783 l 1154 765 l 1142 756 q 1139 754 1142 756 l 1131 751 l 1129 750 q 1128 751 1129 750 l 1136 767 q 1150 790 1140 778 q 1167 814 1160 803 l 1183 840 q 1189 849 1186 843 l 1190 850 q 1192 853 1188 850 q 1197 858 1197 856 q 1192 863 1197 863 l 1183 860 l 1161 846 q 1156 840 1158 843 q 1150 835 1153 838 q 1135 850 1150 850 q 1103 840 1119 850 q 1071 817 1086 831 q 1044 788 1056 804 q 1029 760 1033 772 q 1023 754 1028 760 q 1010 741 1018 749 q 994 728 1003 733 q 978 722 986 722 l 975 722 q 974 724 974 722 l 975 725 l 985 739 l 1011 772 q 1019 783 1015 778 q 1026 794 1024 788 l 1033 808 q 1035 817 1035 811 q 1028 829 1035 829 q 1021 828 1024 829 l 1001 818 q 989 806 996 813 q 976 797 982 800 l 960 781 q 951 773 956 776 q 944 765 947 769 l 928 747 l 931 751 l 971 808 q 973 813 971 810 q 975 819 975 817 l 971 824 q 969 824 969 824 q 965 825 968 825 q 963 824 964 825 q 958 824 961 824 l 946 815 q 943 813 943 814 q 942 810 943 811 l 876 699 q 875 693 875 697 q 877 692 876 693 q 879 692 878 692 q 886 693 883 692 l 893 697 q 895 701 893 699 q 899 704 897 704 l 903 708 q 906 713 903 710 l 935 746 l 965 779 l 989 801 q 997 808 992 803 l 1015 818 q 1017 817 1017 818 l 1011 813 q 1006 807 1010 808 l 992 790 q 979 776 985 783 q 971 761 974 768 l 960 744 q 953 722 953 735 q 961 711 953 711 q 993 722 975 711 m 686 654 q 715 667 701 657 q 736 688 729 676 l 743 701 q 747 717 747 710 l 747 729 q 744 742 747 733 l 735 760 q 729 769 735 764 l 729 774 q 731 776 731 775 l 724 776 q 717 772 721 774 q 711 767 714 769 l 706 756 l 676 715 l 668 703 l 667 700 q 664 699 665 700 l 656 686 l 626 656 q 607 647 618 647 l 606 647 q 607 649 606 647 l 613 657 l 624 672 q 629 679 626 674 l 636 690 l 647 714 q 649 725 649 718 q 647 731 647 726 l 644 735 q 643 739 644 738 l 643 757 l 649 765 l 649 769 q 640 776 649 776 q 616 767 624 776 q 608 750 608 757 q 610 742 608 744 l 613 739 q 615 736 613 739 l 607 726 l 572 683 q 568 681 571 683 l 567 678 q 565 676 567 676 l 557 665 q 525 637 546 654 q 482 619 504 619 q 471 629 471 619 q 474 636 471 631 l 485 657 q 494 654 490 654 q 549 676 519 654 l 561 689 q 566 695 564 692 q 569 701 568 699 l 575 713 q 567 729 575 726 q 551 732 560 732 q 488 700 519 721 q 446 640 456 679 l 446 626 q 465 611 451 611 q 503 620 482 613 q 543 646 524 628 l 574 675 q 576 679 574 676 q 579 682 578 682 l 582 688 l 607 717 q 615 725 611 721 q 621 733 618 729 l 629 726 q 631 721 631 724 q 625 714 631 719 l 613 700 l 592 669 l 588 656 q 586 649 586 653 l 586 643 q 596 636 589 636 q 610 639 599 636 l 622 647 q 643 665 631 654 q 660 683 656 676 l 667 692 l 674 700 q 676 704 676 703 l 703 740 q 705 728 703 733 q 707 718 707 724 l 710 713 q 690 703 696 707 l 675 690 q 665 675 667 682 q 663 663 663 668 q 672 655 665 656 q 686 654 678 654 m 768 708 q 767 699 767 706 q 785 676 767 676 q 786 677 786 676 q 788 678 786 678 l 797 678 q 818 685 804 679 l 839 696 l 872 725 l 892 754 l 896 768 q 897 772 896 771 q 897 775 897 774 q 894 785 897 779 q 872 796 889 796 q 860 794 867 796 q 847 790 854 793 l 818 774 q 808 767 813 771 q 800 760 804 763 l 786 744 l 776 729 q 768 708 769 718 m 243 -12 q 226 35 226 4 q 228 53 226 42 q 238 74 231 64 q 256 92 244 85 q 286 99 267 99 l 290 99 q 320 88 301 99 q 339 58 339 78 l 313 58 q 305 72 313 65 q 288 78 297 78 q 281 76 283 78 l 275 76 l 264 68 q 255 53 257 61 q 253 33 253 44 q 261 3 253 13 q 282 -8 269 -6 l 286 -8 q 305 -2 293 -8 q 317 18 317 4 l 288 18 l 288 40 l 339 40 l 339 -26 l 322 -26 l 319 -11 q 301 -27 311 -24 q 279 -31 290 -31 q 258 -25 268 -31 q 243 -12 249 -19 m 1469 -153 q 1474 -167 1474 -157 l 1474 -229 l 1450 -229 l 1450 -175 q 1436 -157 1450 -157 q 1421 -175 1421 -157 l 1421 -229 l 1397 -229 l 1397 -175 q 1395 -162 1397 -168 q 1383 -157 1393 -157 q 1368 -174 1368 -157 l 1368 -229 l 1344 -229 l 1344 -139 l 1367 -139 l 1367 -153 q 1393 -136 1376 -136 q 1418 -151 1410 -136 q 1443 -136 1425 -136 q 1460 -141 1453 -136 q 1469 -153 1467 -146 m 644 -142 q 653 -150 649 -144 q 657 -167 657 -156 l 657 -229 l 635 -229 l 635 -175 q 621 -157 635 -157 q 606 -175 606 -157 l 606 -229 l 581 -229 l 581 -167 q 567 -157 581 -157 q 551 -174 551 -157 l 551 -229 l 529 -229 l 529 -139 l 551 -139 l 551 -153 q 578 -136 560 -136 q 603 -151 594 -136 q 626 -136 610 -136 q 644 -142 638 -136 m 1317 -149 q 1328 -185 1328 -160 q 1316 -217 1328 -204 q 1282 -231 1304 -231 q 1248 -217 1260 -231 q 1236 -185 1236 -204 q 1238 -171 1236 -179 q 1244 -155 1239 -162 q 1258 -142 1249 -147 q 1282 -136 1267 -136 q 1317 -149 1300 -136 m 947 65 q 980 53 967 65 q 993 18 993 42 q 983 -14 993 1 q 947 -29 972 -29 q 913 -14 924 -29 q 901 18 901 1 q 910 49 901 33 q 947 65 919 65 m 196 -139 l 219 -139 l 194 -229 l 169 -229 l 156 -164 l 142 -229 l 117 -229 l 92 -139 l 117 -139 l 131 -204 l 143 -139 l 168 -139 l 181 -204 l 196 -139 m 482 -139 l 456 -229 l 432 -229 l 418 -164 l 403 -229 l 379 -229 l 354 -139 l 379 -139 l 393 -204 l 406 -139 l 431 -139 l 443 -204 l 457 -139 l 482 -139 m 326 -139 l 351 -139 l 325 -229 l 301 -229 l 286 -164 l 272 -229 l 247 -229 l 224 -139 l 247 -139 l 263 -204 l 275 -139 l 299 -139 l 313 -204 l 326 -139 m 868 -139 l 892 -139 l 867 -229 l 842 -229 l 828 -164 l 814 -229 l 789 -229 l 764 -139 l 789 -139 l 803 -204 l 815 -139 l 839 -139 l 853 -204 l 868 -139 m 242 536 l 250 544 l 264 561 q 271 569 265 564 l 321 639 q 329 651 325 646 q 336 663 333 656 l 353 688 q 372 715 360 699 q 383 740 383 731 q 378 744 383 744 q 371 743 372 744 l 364 739 l 338 707 q 326 692 331 700 l 314 676 l 249 579 q 239 563 243 571 q 231 546 235 554 l 228 542 q 227 540 228 540 q 226 538 226 539 l 226 535 q 228 532 226 533 l 235 532 l 242 536 m 1250 -26 q 1244 -28 1246 -28 q 1238 -29 1242 -29 q 1217 -21 1224 -29 q 1210 -1 1210 -12 q 1236 26 1210 22 l 1257 29 q 1265 36 1265 31 q 1251 47 1265 47 q 1241 45 1244 47 q 1235 33 1238 43 l 1213 33 q 1222 55 1215 44 q 1251 65 1228 65 q 1281 58 1274 65 q 1289 40 1289 50 l 1289 -18 q 1294 -22 1289 -22 l 1294 -26 l 1268 -26 q 1267 -25 1267 -26 l 1267 -24 l 1267 -22 q 1266 -18 1267 -19 q 1265 -15 1265 -17 q 1258 -23 1263 -19 q 1250 -26 1253 -26 m 753 -221 q 757 -225 753 -225 l 757 -229 l 732 -229 q 731 -226 732 -228 l 731 -225 q 729 -218 729 -222 q 721 -225 724 -224 l 713 -229 q 701 -231 710 -231 q 681 -226 690 -231 q 672 -206 672 -221 q 699 -176 672 -181 l 721 -174 q 728 -167 728 -171 q 714 -156 728 -156 q 699 -168 699 -156 l 676 -168 q 685 -145 676 -154 q 714 -136 694 -136 q 744 -145 738 -136 q 751 -162 751 -154 l 751 -211 q 753 -221 751 -218 m 439 11 l 376 11 q 382 -3 376 4 q 399 -10 388 -10 q 410 -6 406 -10 q 414 0 414 -3 l 439 0 q 419 -24 432 -19 q 399 -29 407 -29 q 354 21 354 -29 q 366 55 354 44 q 397 65 378 65 q 432 49 425 65 q 439 17 439 32 l 439 11 m 843 490 q 849 510 849 497 q 838 535 849 521 q 804 549 828 549 q 771 536 782 549 q 760 510 760 524 q 774 481 760 490 q 804 471 788 471 q 826 476 817 471 q 843 490 836 482 m 260 694 q 258 686 258 692 q 268 671 258 678 l 282 667 q 297 668 286 667 q 306 672 308 669 q 304 674 306 674 l 300 674 q 294 672 297 674 q 289 671 292 671 q 271 676 278 671 q 264 689 264 681 q 265 699 264 694 l 271 710 l 285 725 q 324 751 303 744 q 364 765 346 758 l 386 769 q 407 772 400 772 q 424 770 414 772 q 438 764 433 768 l 444 754 q 446 740 446 750 q 443 725 446 736 l 435 710 q 417 685 428 694 q 392 663 406 675 l 374 651 l 343 639 q 333 636 339 639 l 329 636 q 324 635 328 636 q 319 631 319 633 q 321 629 319 629 l 325 629 q 329 631 328 629 l 354 638 l 396 656 l 435 681 l 465 711 q 476 734 472 725 q 479 750 479 743 q 473 767 479 761 q 458 777 467 774 q 441 781 450 781 q 426 782 432 782 q 401 779 421 782 q 358 768 382 776 q 308 746 333 760 q 267 710 283 732 l 260 694 m 1076 -183 q 1083 -200 1083 -187 q 1044 -231 1083 -231 l 1036 -231 q 1010 -221 1018 -231 q 1001 -200 1001 -211 l 1025 -200 q 1046 -212 1025 -212 q 1055 -212 1050 -212 q 1060 -204 1060 -211 q 1050 -197 1060 -199 l 1029 -192 q 1011 -183 1018 -189 q 1004 -167 1004 -176 q 1010 -147 1004 -158 q 1040 -136 1017 -136 q 1065 -141 1056 -136 q 1078 -153 1075 -146 l 1081 -167 l 1057 -167 q 1056 -159 1057 -162 q 1042 -156 1054 -156 q 1028 -164 1028 -156 q 1036 -169 1028 -168 l 1057 -175 q 1076 -183 1065 -176 m 971 -140 q 981 -151 978 -143 q 985 -167 985 -160 l 985 -229 l 961 -229 l 961 -175 q 959 -161 961 -165 q 946 -157 957 -157 q 931 -163 935 -157 q 928 -178 928 -169 l 928 -229 l 903 -229 l 903 -139 l 926 -139 l 926 -153 q 954 -136 936 -136 q 971 -140 963 -136 m 1060 65 q 1081 58 1071 65 q 1092 36 1092 51 l 1092 -26 l 1068 -26 l 1068 28 q 1065 41 1068 36 q 1051 46 1063 46 q 1035 25 1035 46 l 1035 -26 l 1010 -26 l 1010 64 l 1032 64 l 1032 51 q 1060 65 1042 65 m 672 -14 q 660 -25 668 -21 q 644 -29 651 -29 q 624 -21 633 -29 q 614 4 614 -12 l 614 64 l 638 64 l 638 8 q 653 -8 638 -8 q 665 -5 658 -8 q 672 11 672 -1 l 672 64 l 694 64 l 694 -26 l 672 -26 l 672 -14 m 1186 -157 q 1172 -164 1176 -157 q 1167 -182 1167 -171 q 1170 -205 1167 -199 q 1185 -211 1174 -211 q 1195 -209 1190 -211 q 1200 -196 1200 -207 l 1225 -196 q 1214 -221 1225 -211 q 1183 -231 1203 -231 q 1143 -186 1143 -231 q 1152 -151 1143 -167 q 1183 -136 1161 -136 q 1210 -144 1196 -136 q 1225 -171 1225 -151 l 1200 -171 q 1186 -157 1200 -157 m 588 76 q 585 74 585 76 l 585 64 l 600 64 l 600 47 l 585 47 l 585 -26 l 561 -26 l 561 47 l 549 47 l 549 64 l 561 64 l 561 71 q 588 96 561 96 l 600 96 l 600 78 l 593 78 q 588 76 589 78 m 878 64 l 894 64 l 894 47 l 878 47 l 878 -26 l 854 -26 l 854 47 l 842 47 l 842 64 l 854 64 l 854 71 q 881 96 854 96 l 892 96 l 892 78 l 886 78 q 878 74 879 78 l 878 64 m 1351 -26 l 1336 -26 q 1319 -24 1328 -26 q 1311 -8 1311 -21 l 1311 47 l 1300 47 l 1300 64 l 1311 64 l 1311 88 l 1336 88 l 1336 64 l 1351 64 l 1351 47 l 1336 47 l 1336 -1 q 1344 -10 1336 -10 l 1351 -8 l 1351 -26 m 790 683 q 786 692 786 686 q 794 710 786 700 q 806 729 801 721 l 814 739 l 833 764 q 841 772 838 768 q 849 779 844 776 l 864 789 q 871 790 867 790 q 876 782 876 790 q 874 774 876 779 l 865 758 q 860 750 863 753 l 854 742 q 849 733 851 738 q 843 726 846 729 l 815 696 q 805 688 813 693 q 790 683 797 683 m 482 88 l 482 64 l 496 64 l 496 47 l 482 47 l 482 -1 q 483 -8 482 -6 q 492 -10 485 -10 l 494 -8 l 496 -26 l 482 -26 q 464 -23 469 -26 q 458 -8 458 -19 l 458 47 l 446 47 l 446 64 l 458 64 l 458 88 l 482 88 m 1049 744 q 1054 753 1051 750 l 1060 761 q 1072 779 1064 771 l 1086 799 l 1113 831 l 1125 840 q 1139 843 1133 843 l 1143 840 q 1144 838 1143 839 q 1144 835 1144 838 q 1144 830 1144 833 q 1140 824 1143 826 l 1117 789 l 1092 763 q 1083 756 1089 761 l 1074 747 q 1062 740 1068 744 q 1051 735 1056 735 q 1049 736 1050 735 l 1047 736 q 1046 739 1046 738 q 1047 742 1047 740 q 1049 744 1047 743 m 1154 -26 l 1139 -26 q 1124 -24 1131 -26 q 1117 -18 1118 -22 l 1117 47 l 1103 47 l 1103 64 l 1117 64 l 1117 88 l 1139 88 l 1139 64 l 1154 64 l 1154 47 l 1139 47 l 1139 -1 q 1149 -10 1139 -10 l 1154 -8 l 1154 -26 m 824 536 q 828 526 826 531 q 831 510 831 522 q 824 484 831 494 q 804 474 818 474 q 785 483 790 474 l 781 494 q 778 510 778 503 q 778 516 778 513 q 779 522 779 519 l 783 532 q 790 542 786 536 q 806 547 794 547 q 808 547 807 547 q 811 546 808 546 l 824 536 m 740 -26 l 717 -26 l 717 96 l 740 96 l 740 -26 m 781 -26 l 758 -26 l 758 96 l 781 96 l 781 -26 m 710 547 l 629 547 l 629 544 l 632 544 q 644 532 644 544 l 644 488 q 632 474 644 474 l 629 472 l 710 472 l 710 503 q 707 498 707 500 q 706 493 707 496 l 697 482 q 690 478 693 478 l 683 475 q 674 474 679 474 l 661 474 l 663 507 q 678 501 672 507 l 681 497 q 682 491 681 494 q 683 485 683 488 l 685 533 l 683 526 l 679 518 q 665 510 672 510 l 661 510 l 661 544 l 675 544 q 692 543 688 544 l 699 538 l 707 518 l 710 518 l 710 547 m 963 547 l 925 547 l 925 544 l 932 544 q 938 538 932 543 q 943 525 943 532 l 943 493 l 890 547 l 861 547 l 863 544 q 874 541 872 544 q 876 533 876 538 l 876 490 q 860 474 876 474 l 860 472 l 899 474 q 892 475 896 474 q 885 476 888 476 l 881 483 q 879 493 879 485 l 879 538 l 943 472 l 946 472 l 946 525 q 949 538 946 532 q 963 544 951 544 l 963 547 m 617 507 q 607 513 613 510 l 593 518 l 583 519 q 567 524 576 521 q 558 533 558 526 q 558 539 558 531 q 576 547 558 547 q 600 540 593 547 q 614 521 607 532 l 617 521 l 617 546 l 614 546 q 608 540 613 540 q 592 544 601 540 q 576 549 583 549 q 561 546 569 549 l 551 539 q 547 526 547 532 q 550 519 547 524 q 556 513 553 515 l 565 508 q 571 506 567 507 q 582 503 575 506 l 588 501 q 603 497 594 499 q 611 486 611 496 q 601 474 611 479 l 593 474 q 581 475 585 474 l 567 481 l 558 489 q 551 506 551 499 l 549 506 l 549 471 l 551 471 q 561 479 551 479 q 565 478 563 479 q 571 476 567 476 l 582 472 q 593 471 585 471 q 607 474 601 471 q 621 486 613 478 l 621 501 l 617 507 m 964 0 q 969 18 969 6 q 947 46 969 46 q 925 18 925 46 q 947 -8 925 -8 q 964 0 961 -8 m 1299 -203 q 1302 -194 1301 -199 q 1303 -185 1303 -189 q 1300 -165 1303 -174 q 1282 -157 1297 -157 q 1265 -165 1268 -157 q 1261 -185 1261 -174 q 1265 -203 1261 -196 q 1282 -211 1269 -211 q 1299 -203 1294 -211 m 1136 540 q 1142 544 1138 543 q 1147 544 1146 544 l 1147 547 l 1110 547 l 1110 544 l 1114 544 q 1124 542 1122 544 q 1125 538 1125 540 q 1121 529 1125 535 l 1106 508 l 1086 533 q 1083 539 1083 539 l 1083 540 q 1089 544 1083 544 l 1096 544 l 1096 547 l 1047 547 l 1049 544 q 1067 535 1064 544 l 1090 504 l 1090 488 q 1076 474 1090 474 l 1072 472 l 1125 472 l 1119 474 q 1106 488 1106 474 l 1106 506 l 1129 538 q 1136 540 1135 540 m 1051 506 l 1050 506 q 1049 502 1050 507 q 1045 491 1049 497 q 1035 479 1042 485 q 1018 474 1029 474 l 999 474 l 999 532 q 1013 544 999 544 l 1018 544 l 1018 547 l 967 547 l 967 544 l 971 544 q 983 532 983 544 l 983 488 q 971 474 983 474 l 967 472 l 1051 472 l 1051 506 m 538 547 l 500 547 l 500 544 l 508 544 q 518 538 515 544 q 521 525 521 532 l 521 499 q 514 481 521 488 l 504 474 l 492 474 q 476 476 485 474 q 467 494 467 479 l 467 532 q 471 543 467 542 q 481 544 475 544 l 486 544 l 486 547 l 435 547 l 436 544 q 451 532 451 544 l 451 494 q 460 476 451 485 l 472 472 q 488 471 476 471 q 522 497 522 471 l 522 536 l 529 543 l 531 543 q 532 544 531 543 l 538 544 l 538 547 m 510 667 q 500 664 501 664 q 490 667 496 664 l 503 683 l 522 707 q 526 710 525 710 q 529 714 528 711 l 547 725 q 551 726 550 725 q 554 726 551 726 q 560 721 560 726 q 559 719 560 719 q 558 717 558 718 l 554 710 q 545 694 551 707 q 519 672 539 682 l 510 667 m 711 708 q 712 704 711 706 q 713 700 713 703 q 710 685 710 692 l 707 678 q 700 669 706 675 l 694 665 q 678 660 689 660 q 669 664 674 660 l 669 671 l 678 686 q 693 700 685 694 l 711 708 m 1233 -1 q 1238 -10 1233 -8 q 1244 -11 1242 -11 l 1250 -11 q 1260 -6 1256 -10 q 1265 7 1265 -3 l 1265 18 q 1256 14 1261 14 l 1244 11 q 1238 8 1242 11 q 1233 -1 1233 6 m 728 -185 q 719 -189 724 -189 l 708 -190 l 700 -194 q 696 -204 696 -199 q 708 -214 696 -214 l 713 -214 q 715 -213 714 -214 q 717 -212 715 -212 l 725 -207 q 728 -197 728 -204 l 728 -185 m 1101 -204 l 1126 -204 l 1126 -229 l 1101 -229 l 1101 -204 m 482 -204 l 507 -204 l 507 -229 l 482 -229 l 482 -204 m 415 28 q 409 41 413 35 q 397 47 406 47 q 379 28 382 47 l 415 28 m 1292 910 q 1285 901 1290 907 l 1307 932 l 1339 978 q 1340 981 1338 978 q 1346 985 1343 983 l 1346 983 q 1343 975 1346 981 l 1332 960 q 1326 953 1329 954 l 1300 919 l 1292 910 z "},"6":{"ha":1613,"x_min":92,"x_max":1474,"o":"m 139 817 l 353 863 l 344 892 l 376 901 l 369 933 l 403 940 l 399 975 l 431 978 l 431 1010 l 460 1010 l 463 1039 l 494 1035 l 500 1067 l 535 1061 l 543 1093 l 574 1085 l 586 1114 l 618 1101 l 635 1132 l 664 1117 l 681 1144 l 710 1125 l 731 1151 l 757 1131 l 779 1153 l 800 1133 l 821 1151 l 842 1128 l 869 1146 l 888 1117 l 918 1133 l 933 1106 l 963 1118 l 976 1086 l 1010 1096 l 1019 1065 l 1050 1072 l 1057 1039 l 1092 1042 l 1093 1021 l 1414 1090 l 1414 697 l 1267 665 l 1269 663 l 1251 642 l 1269 619 l 1244 599 l 1263 571 l 1233 553 l 1251 524 l 1222 507 l 1235 478 l 1203 464 l 1214 431 l 1183 421 l 1189 390 l 1156 383 l 1158 349 l 1126 346 l 1126 314 l 1099 314 l 1094 285 l 1064 288 l 1057 257 l 1024 263 l 1014 231 l 983 240 l 972 208 l 939 222 l 924 192 l 894 207 l 876 179 l 847 197 l 828 172 l 803 193 l 779 171 l 758 190 l 736 171 l 717 196 l 689 178 l 669 207 l 640 190 l 625 218 l 594 206 l 581 238 l 549 228 l 539 258 l 507 251 l 500 285 l 467 282 l 463 314 l 431 314 l 431 343 l 403 346 l 406 378 l 374 383 l 381 417 l 347 426 l 357 457 l 335 465 l 139 424 l 139 817 m 993 722 q 1008 733 1001 726 l 1026 750 q 1025 746 1025 749 q 1028 733 1025 739 q 1040 726 1032 726 q 1056 731 1047 726 q 1071 739 1064 735 l 1088 751 q 1093 757 1090 754 q 1099 763 1096 760 l 1110 772 q 1107 764 1107 769 l 1107 758 q 1106 754 1106 757 q 1119 740 1106 740 q 1126 742 1124 740 l 1132 744 l 1149 754 l 1188 789 l 1183 779 q 1181 764 1181 774 l 1181 760 q 1189 756 1185 756 q 1197 758 1190 756 q 1206 764 1203 761 l 1222 778 q 1233 787 1228 781 q 1246 800 1239 793 l 1260 817 q 1261 819 1261 818 q 1258 821 1260 821 q 1253 818 1256 821 l 1250 814 l 1232 793 q 1227 788 1229 790 q 1222 783 1225 786 l 1211 774 l 1199 767 q 1197 765 1199 767 q 1194 767 1196 765 l 1201 778 q 1204 783 1203 781 q 1208 789 1206 786 l 1214 797 q 1219 806 1217 800 l 1269 879 q 1281 893 1278 888 l 1322 939 q 1335 956 1329 947 q 1349 972 1342 964 l 1357 986 l 1357 993 q 1350 994 1356 994 q 1338 991 1347 994 q 1324 982 1329 988 l 1317 976 q 1308 970 1313 974 q 1300 963 1304 967 l 1286 947 q 1263 917 1275 936 q 1239 881 1250 899 l 1218 846 l 1197 807 q 1196 806 1196 807 l 1185 794 q 1178 787 1182 790 q 1169 779 1174 783 l 1154 765 l 1142 756 q 1139 754 1142 756 l 1131 751 l 1129 750 q 1128 751 1129 750 l 1136 767 q 1150 790 1140 778 q 1167 814 1160 803 l 1183 840 q 1189 849 1186 843 l 1190 850 q 1192 853 1188 850 q 1197 858 1197 856 q 1192 863 1197 863 l 1183 860 l 1161 846 q 1156 840 1158 843 q 1150 835 1153 838 q 1135 850 1150 850 q 1103 840 1119 850 q 1071 817 1086 831 q 1044 788 1056 804 q 1029 760 1033 772 q 1023 754 1028 760 q 1010 741 1018 749 q 994 728 1003 733 q 978 722 986 722 l 975 722 q 974 724 974 722 l 975 725 l 985 739 l 1011 772 q 1019 783 1015 778 q 1026 794 1024 788 l 1033 808 q 1035 817 1035 811 q 1028 829 1035 829 q 1021 828 1024 829 l 1001 818 q 989 806 996 813 q 976 797 982 800 l 960 781 q 951 773 956 776 q 944 765 947 769 l 928 747 l 931 751 l 971 808 q 973 813 971 810 q 975 819 975 817 l 971 824 q 969 824 969 824 q 965 825 968 825 q 963 824 964 825 q 958 824 961 824 l 946 815 q 943 813 943 814 q 942 810 943 811 l 876 699 q 875 693 875 697 q 877 692 876 693 q 879 692 878 692 q 886 693 883 692 l 893 697 q 895 701 893 699 q 899 704 897 704 l 903 708 q 906 713 903 710 l 935 746 l 965 779 l 989 801 q 997 808 992 803 l 1015 818 q 1017 817 1017 818 l 1011 813 q 1006 807 1010 808 l 992 790 q 979 776 985 783 q 971 761 974 768 l 960 744 q 953 722 953 735 q 961 711 953 711 q 993 722 975 711 m 686 654 q 715 667 701 657 q 736 688 729 676 l 743 701 q 747 717 747 710 l 747 729 q 744 742 747 733 l 735 760 q 729 769 735 764 l 729 774 q 731 776 731 775 l 724 776 q 717 772 721 774 q 711 767 714 769 l 706 756 l 676 715 l 668 703 l 667 700 q 664 699 665 700 l 656 686 l 626 656 q 607 647 618 647 l 606 647 q 607 649 606 647 l 613 657 l 624 672 q 629 679 626 674 l 636 690 l 647 714 q 649 725 649 718 q 647 731 647 726 l 644 735 q 643 739 644 738 l 643 757 l 649 765 l 649 769 q 640 776 649 776 q 616 767 624 776 q 608 750 608 757 q 610 742 608 744 l 613 739 q 615 736 613 739 l 607 726 l 572 683 q 568 681 571 683 l 567 678 q 565 676 567 676 l 557 665 q 525 637 546 654 q 482 619 504 619 q 471 629 471 619 q 474 636 471 631 l 485 657 q 494 654 490 654 q 549 676 519 654 l 561 689 q 566 695 564 692 q 569 701 568 699 l 575 713 q 567 729 575 726 q 551 732 560 732 q 488 700 519 721 q 446 640 456 679 l 446 626 q 465 611 451 611 q 503 620 482 613 q 543 646 524 628 l 574 675 q 576 679 574 676 q 579 682 578 682 l 582 688 l 607 717 q 615 725 611 721 q 621 733 618 729 l 629 726 q 631 721 631 724 q 625 714 631 719 l 613 700 l 592 669 l 588 656 q 586 649 586 653 l 586 643 q 596 636 589 636 q 610 639 599 636 l 622 647 q 643 665 631 654 q 660 683 656 676 l 667 692 l 674 700 q 676 704 676 703 l 703 740 q 705 728 703 733 q 707 718 707 724 l 710 713 q 690 703 696 707 l 675 690 q 665 675 667 682 q 663 663 663 668 q 672 655 665 656 q 686 654 678 654 m 768 708 q 767 699 767 706 q 785 676 767 676 q 786 677 786 676 q 788 678 786 678 l 797 678 q 818 685 804 679 l 839 696 l 872 725 l 892 754 l 896 768 q 897 772 896 771 q 897 775 897 774 q 894 785 897 779 q 872 796 889 796 q 860 794 867 796 q 847 790 854 793 l 818 774 q 808 767 813 771 q 800 760 804 763 l 786 744 l 776 729 q 768 708 769 718 m 243 -12 q 226 35 226 4 q 228 53 226 42 q 238 74 231 64 q 256 92 244 85 q 286 99 267 99 l 290 99 q 320 88 301 99 q 339 58 339 78 l 313 58 q 305 72 313 65 q 288 78 297 78 q 281 76 283 78 l 275 76 l 264 68 q 255 53 257 61 q 253 33 253 44 q 261 3 253 13 q 282 -8 269 -6 l 286 -8 q 305 -2 293 -8 q 317 18 317 4 l 288 18 l 288 40 l 339 40 l 339 -26 l 322 -26 l 319 -11 q 301 -27 311 -24 q 279 -31 290 -31 q 258 -25 268 -31 q 243 -12 249 -19 m 1469 -153 q 1474 -167 1474 -157 l 1474 -229 l 1450 -229 l 1450 -175 q 1436 -157 1450 -157 q 1421 -175 1421 -157 l 1421 -229 l 1397 -229 l 1397 -175 q 1395 -162 1397 -168 q 1383 -157 1393 -157 q 1368 -174 1368 -157 l 1368 -229 l 1344 -229 l 1344 -139 l 1367 -139 l 1367 -153 q 1393 -136 1376 -136 q 1418 -151 1410 -136 q 1443 -136 1425 -136 q 1460 -141 1453 -136 q 1469 -153 1467 -146 m 644 -142 q 653 -150 649 -144 q 657 -167 657 -156 l 657 -229 l 635 -229 l 635 -175 q 621 -157 635 -157 q 606 -175 606 -157 l 606 -229 l 581 -229 l 581 -167 q 567 -157 581 -157 q 551 -174 551 -157 l 551 -229 l 529 -229 l 529 -139 l 551 -139 l 551 -153 q 578 -136 560 -136 q 603 -151 594 -136 q 626 -136 610 -136 q 644 -142 638 -136 m 1317 -149 q 1328 -185 1328 -160 q 1316 -217 1328 -204 q 1282 -231 1304 -231 q 1248 -217 1260 -231 q 1236 -185 1236 -204 q 1238 -171 1236 -179 q 1244 -155 1239 -162 q 1258 -142 1249 -147 q 1282 -136 1267 -136 q 1317 -149 1300 -136 m 947 65 q 980 53 967 65 q 993 18 993 42 q 983 -14 993 1 q 947 -29 972 -29 q 913 -14 924 -29 q 901 18 901 1 q 910 49 901 33 q 947 65 919 65 m 196 -139 l 219 -139 l 194 -229 l 169 -229 l 156 -164 l 142 -229 l 117 -229 l 92 -139 l 117 -139 l 131 -204 l 143 -139 l 168 -139 l 181 -204 l 196 -139 m 482 -139 l 456 -229 l 432 -229 l 418 -164 l 403 -229 l 379 -229 l 354 -139 l 379 -139 l 393 -204 l 406 -139 l 431 -139 l 443 -204 l 457 -139 l 482 -139 m 326 -139 l 351 -139 l 325 -229 l 301 -229 l 286 -164 l 272 -229 l 247 -229 l 224 -139 l 247 -139 l 263 -204 l 275 -139 l 299 -139 l 313 -204 l 326 -139 m 868 -139 l 892 -139 l 867 -229 l 842 -229 l 828 -164 l 814 -229 l 789 -229 l 764 -139 l 789 -139 l 803 -204 l 815 -139 l 839 -139 l 853 -204 l 868 -139 m 242 536 l 250 544 l 264 561 q 271 569 265 564 l 321 639 q 329 651 325 646 q 336 663 333 656 l 353 688 q 372 715 360 699 q 383 740 383 731 q 378 744 383 744 q 371 743 372 744 l 364 739 l 338 707 q 326 692 331 700 l 314 676 l 249 579 q 239 563 243 571 q 231 546 235 554 l 228 542 q 227 540 228 540 q 226 538 226 539 l 226 535 q 228 532 226 533 l 235 532 l 242 536 m 1250 -26 q 1244 -28 1246 -28 q 1238 -29 1242 -29 q 1217 -21 1224 -29 q 1210 -1 1210 -12 q 1236 26 1210 22 l 1257 29 q 1265 36 1265 31 q 1251 47 1265 47 q 1241 45 1244 47 q 1235 33 1238 43 l 1213 33 q 1222 55 1215 44 q 1251 65 1228 65 q 1281 58 1274 65 q 1289 40 1289 50 l 1289 -18 q 1294 -22 1289 -22 l 1294 -26 l 1268 -26 q 1267 -25 1267 -26 l 1267 -24 l 1267 -22 q 1266 -18 1267 -19 q 1265 -15 1265 -17 q 1258 -23 1263 -19 q 1250 -26 1253 -26 m 753 -221 q 757 -225 753 -225 l 757 -229 l 732 -229 q 731 -226 732 -228 l 731 -225 q 729 -218 729 -222 q 721 -225 724 -224 l 713 -229 q 701 -231 710 -231 q 681 -226 690 -231 q 672 -206 672 -221 q 699 -176 672 -181 l 721 -174 q 728 -167 728 -171 q 714 -156 728 -156 q 699 -168 699 -156 l 676 -168 q 685 -145 676 -154 q 714 -136 694 -136 q 744 -145 738 -136 q 751 -162 751 -154 l 751 -211 q 753 -221 751 -218 m 439 11 l 376 11 q 382 -3 376 4 q 399 -10 388 -10 q 410 -6 406 -10 q 414 0 414 -3 l 439 0 q 419 -24 432 -19 q 399 -29 407 -29 q 354 21 354 -29 q 366 55 354 44 q 397 65 378 65 q 432 49 425 65 q 439 17 439 32 l 439 11 m 843 490 q 849 510 849 497 q 838 535 849 521 q 804 549 828 549 q 771 536 782 549 q 760 510 760 524 q 774 481 760 490 q 804 471 788 471 q 826 476 817 471 q 843 490 836 482 m 260 694 q 258 686 258 692 q 268 671 258 678 l 282 667 q 297 668 286 667 q 306 672 308 669 q 304 674 306 674 l 300 674 q 294 672 297 674 q 289 671 292 671 q 271 676 278 671 q 264 689 264 681 q 265 699 264 694 l 271 710 l 285 725 q 324 751 303 744 q 364 765 346 758 l 386 769 q 407 772 400 772 q 424 770 414 772 q 438 764 433 768 l 444 754 q 446 740 446 750 q 443 725 446 736 l 435 710 q 417 685 428 694 q 392 663 406 675 l 374 651 l 343 639 q 333 636 339 639 l 329 636 q 324 635 328 636 q 319 631 319 633 q 321 629 319 629 l 325 629 q 329 631 328 629 l 354 638 l 396 656 l 435 681 l 465 711 q 476 734 472 725 q 479 750 479 743 q 473 767 479 761 q 458 777 467 774 q 441 781 450 781 q 426 782 432 782 q 401 779 421 782 q 358 768 382 776 q 308 746 333 760 q 267 710 283 732 l 260 694 m 1076 -183 q 1083 -200 1083 -187 q 1044 -231 1083 -231 l 1036 -231 q 1010 -221 1018 -231 q 1001 -200 1001 -211 l 1025 -200 q 1046 -212 1025 -212 q 1055 -212 1050 -212 q 1060 -204 1060 -211 q 1050 -197 1060 -199 l 1029 -192 q 1011 -183 1018 -189 q 1004 -167 1004 -176 q 1010 -147 1004 -158 q 1040 -136 1017 -136 q 1065 -141 1056 -136 q 1078 -153 1075 -146 l 1081 -167 l 1057 -167 q 1056 -159 1057 -162 q 1042 -156 1054 -156 q 1028 -164 1028 -156 q 1036 -169 1028 -168 l 1057 -175 q 1076 -183 1065 -176 m 971 -140 q 981 -151 978 -143 q 985 -167 985 -160 l 985 -229 l 961 -229 l 961 -175 q 959 -161 961 -165 q 946 -157 957 -157 q 931 -163 935 -157 q 928 -178 928 -169 l 928 -229 l 903 -229 l 903 -139 l 926 -139 l 926 -153 q 954 -136 936 -136 q 971 -140 963 -136 m 1060 65 q 1081 58 1071 65 q 1092 36 1092 51 l 1092 -26 l 1068 -26 l 1068 28 q 1065 41 1068 36 q 1051 46 1063 46 q 1035 25 1035 46 l 1035 -26 l 1010 -26 l 1010 64 l 1032 64 l 1032 51 q 1060 65 1042 65 m 672 -14 q 660 -25 668 -21 q 644 -29 651 -29 q 624 -21 633 -29 q 614 4 614 -12 l 614 64 l 638 64 l 638 8 q 653 -8 638 -8 q 665 -5 658 -8 q 672 11 672 -1 l 672 64 l 694 64 l 694 -26 l 672 -26 l 672 -14 m 1186 -157 q 1172 -164 1176 -157 q 1167 -182 1167 -171 q 1170 -205 1167 -199 q 1185 -211 1174 -211 q 1195 -209 1190 -211 q 1200 -196 1200 -207 l 1225 -196 q 1214 -221 1225 -211 q 1183 -231 1203 -231 q 1143 -186 1143 -231 q 1152 -151 1143 -167 q 1183 -136 1161 -136 q 1210 -144 1196 -136 q 1225 -171 1225 -151 l 1200 -171 q 1186 -157 1200 -157 m 588 76 q 585 74 585 76 l 585 64 l 600 64 l 600 47 l 585 47 l 585 -26 l 561 -26 l 561 47 l 549 47 l 549 64 l 561 64 l 561 71 q 588 96 561 96 l 600 96 l 600 78 l 593 78 q 588 76 589 78 m 878 64 l 894 64 l 894 47 l 878 47 l 878 -26 l 854 -26 l 854 47 l 842 47 l 842 64 l 854 64 l 854 71 q 881 96 854 96 l 892 96 l 892 78 l 886 78 q 878 74 879 78 l 878 64 m 1351 -26 l 1336 -26 q 1319 -24 1328 -26 q 1311 -8 1311 -21 l 1311 47 l 1300 47 l 1300 64 l 1311 64 l 1311 88 l 1336 88 l 1336 64 l 1351 64 l 1351 47 l 1336 47 l 1336 -1 q 1344 -10 1336 -10 l 1351 -8 l 1351 -26 m 790 683 q 786 692 786 686 q 794 710 786 700 q 806 729 801 721 l 814 739 l 833 764 q 841 772 838 768 q 849 779 844 776 l 864 789 q 871 790 867 790 q 876 782 876 790 q 874 774 876 779 l 865 758 q 860 750 863 753 l 854 742 q 849 733 851 738 q 843 726 846 729 l 815 696 q 805 688 813 693 q 790 683 797 683 m 482 88 l 482 64 l 496 64 l 496 47 l 482 47 l 482 -1 q 483 -8 482 -6 q 492 -10 485 -10 l 494 -8 l 496 -26 l 482 -26 q 464 -23 469 -26 q 458 -8 458 -19 l 458 47 l 446 47 l 446 64 l 458 64 l 458 88 l 482 88 m 1049 744 q 1054 753 1051 750 l 1060 761 q 1072 779 1064 771 l 1086 799 l 1113 831 l 1125 840 q 1139 843 1133 843 l 1143 840 q 1144 838 1143 839 q 1144 835 1144 838 q 1144 830 1144 833 q 1140 824 1143 826 l 1117 789 l 1092 763 q 1083 756 1089 761 l 1074 747 q 1062 740 1068 744 q 1051 735 1056 735 q 1049 736 1050 735 l 1047 736 q 1046 739 1046 738 q 1047 742 1047 740 q 1049 744 1047 743 m 1154 -26 l 1139 -26 q 1124 -24 1131 -26 q 1117 -18 1118 -22 l 1117 47 l 1103 47 l 1103 64 l 1117 64 l 1117 88 l 1139 88 l 1139 64 l 1154 64 l 1154 47 l 1139 47 l 1139 -1 q 1149 -10 1139 -10 l 1154 -8 l 1154 -26 m 824 536 q 828 526 826 531 q 831 510 831 522 q 824 484 831 494 q 804 474 818 474 q 785 483 790 474 l 781 494 q 778 510 778 503 q 778 516 778 513 q 779 522 779 519 l 783 532 q 790 542 786 536 q 806 547 794 547 q 808 547 807 547 q 811 546 808 546 l 824 536 m 740 -26 l 717 -26 l 717 96 l 740 96 l 740 -26 m 781 -26 l 758 -26 l 758 96 l 781 96 l 781 -26 m 710 547 l 629 547 l 629 544 l 632 544 q 644 532 644 544 l 644 488 q 632 474 644 474 l 629 472 l 710 472 l 710 503 q 707 498 707 500 q 706 493 707 496 l 697 482 q 690 478 693 478 l 683 475 q 674 474 679 474 l 661 474 l 663 507 q 678 501 672 507 l 681 497 q 682 491 681 494 q 683 485 683 488 l 685 533 l 683 526 l 679 518 q 665 510 672 510 l 661 510 l 661 544 l 675 544 q 692 543 688 544 l 699 538 l 707 518 l 710 518 l 710 547 m 963 547 l 925 547 l 925 544 l 932 544 q 938 538 932 543 q 943 525 943 532 l 943 493 l 890 547 l 861 547 l 863 544 q 874 541 872 544 q 876 533 876 538 l 876 490 q 860 474 876 474 l 860 472 l 899 474 q 892 475 896 474 q 885 476 888 476 l 881 483 q 879 493 879 485 l 879 538 l 943 472 l 946 472 l 946 525 q 949 538 946 532 q 963 544 951 544 l 963 547 m 617 507 q 607 513 613 510 l 593 518 l 583 519 q 567 524 576 521 q 558 533 558 526 q 558 539 558 531 q 576 547 558 547 q 600 540 593 547 q 614 521 607 532 l 617 521 l 617 546 l 614 546 q 608 540 613 540 q 592 544 601 540 q 576 549 583 549 q 561 546 569 549 l 551 539 q 547 526 547 532 q 550 519 547 524 q 556 513 553 515 l 565 508 q 571 506 567 507 q 582 503 575 506 l 588 501 q 603 497 594 499 q 611 486 611 496 q 601 474 611 479 l 593 474 q 581 475 585 474 l 567 481 l 558 489 q 551 506 551 499 l 549 506 l 549 471 l 551 471 q 561 479 551 479 q 565 478 563 479 q 571 476 567 476 l 582 472 q 593 471 585 471 q 607 474 601 471 q 621 486 613 478 l 621 501 l 617 507 m 964 0 q 969 18 969 6 q 947 46 969 46 q 925 18 925 46 q 947 -8 925 -8 q 964 0 961 -8 m 1299 -203 q 1302 -194 1301 -199 q 1303 -185 1303 -189 q 1300 -165 1303 -174 q 1282 -157 1297 -157 q 1265 -165 1268 -157 q 1261 -185 1261 -174 q 1265 -203 1261 -196 q 1282 -211 1269 -211 q 1299 -203 1294 -211 m 1136 540 q 1142 544 1138 543 q 1147 544 1146 544 l 1147 547 l 1110 547 l 1110 544 l 1114 544 q 1124 542 1122 544 q 1125 538 1125 540 q 1121 529 1125 535 l 1106 508 l 1086 533 q 1083 539 1083 539 l 1083 540 q 1089 544 1083 544 l 1096 544 l 1096 547 l 1047 547 l 1049 544 q 1067 535 1064 544 l 1090 504 l 1090 488 q 1076 474 1090 474 l 1072 472 l 1125 472 l 1119 474 q 1106 488 1106 474 l 1106 506 l 1129 538 q 1136 540 1135 540 m 1051 506 l 1050 506 q 1049 502 1050 507 q 1045 491 1049 497 q 1035 479 1042 485 q 1018 474 1029 474 l 999 474 l 999 532 q 1013 544 999 544 l 1018 544 l 1018 547 l 967 547 l 967 544 l 971 544 q 983 532 983 544 l 983 488 q 971 474 983 474 l 967 472 l 1051 472 l 1051 506 m 538 547 l 500 547 l 500 544 l 508 544 q 518 538 515 544 q 521 525 521 532 l 521 499 q 514 481 521 488 l 504 474 l 492 474 q 476 476 485 474 q 467 494 467 479 l 467 532 q 471 543 467 542 q 481 544 475 544 l 486 544 l 486 547 l 435 547 l 436 544 q 451 532 451 544 l 451 494 q 460 476 451 485 l 472 472 q 488 471 476 471 q 522 497 522 471 l 522 536 l 529 543 l 531 543 q 532 544 531 543 l 538 544 l 538 547 m 510 667 q 500 664 501 664 q 490 667 496 664 l 503 683 l 522 707 q 526 710 525 710 q 529 714 528 711 l 547 725 q 551 726 550 725 q 554 726 551 726 q 560 721 560 726 q 559 719 560 719 q 558 717 558 718 l 554 710 q 545 694 551 707 q 519 672 539 682 l 510 667 m 711 708 q 712 704 711 706 q 713 700 713 703 q 710 685 710 692 l 707 678 q 700 669 706 675 l 694 665 q 678 660 689 660 q 669 664 674 660 l 669 671 l 678 686 q 693 700 685 694 l 711 708 m 1233 -1 q 1238 -10 1233 -8 q 1244 -11 1242 -11 l 1250 -11 q 1260 -6 1256 -10 q 1265 7 1265 -3 l 1265 18 q 1256 14 1261 14 l 1244 11 q 1238 8 1242 11 q 1233 -1 1233 6 m 728 -185 q 719 -189 724 -189 l 708 -190 l 700 -194 q 696 -204 696 -199 q 708 -214 696 -214 l 713 -214 q 715 -213 714 -214 q 717 -212 715 -212 l 725 -207 q 728 -197 728 -204 l 728 -185 m 1101 -204 l 1126 -204 l 1126 -229 l 1101 -229 l 1101 -204 m 482 -204 l 507 -204 l 507 -229 l 482 -229 l 482 -204 m 415 28 q 409 41 413 35 q 397 47 406 47 q 379 28 382 47 l 415 28 m 1292 910 q 1285 901 1290 907 l 1307 932 l 1339 978 q 1340 981 1338 978 q 1346 985 1343 983 l 1346 983 q 1343 975 1346 981 l 1332 960 q 1326 953 1329 954 l 1300 919 l 1292 910 z "},"7":{"ha":1613,"x_min":92,"x_max":1474,"o":"m 139 817 l 353 863 l 344 892 l 376 901 l 369 933 l 403 940 l 399 975 l 431 978 l 431 1010 l 460 1010 l 463 1039 l 494 1035 l 500 1067 l 535 1061 l 543 1093 l 574 1085 l 586 1114 l 618 1101 l 635 1132 l 664 1117 l 681 1144 l 710 1125 l 731 1151 l 757 1131 l 779 1153 l 800 1133 l 821 1151 l 842 1128 l 869 1146 l 888 1117 l 918 1133 l 933 1106 l 963 1118 l 976 1086 l 1010 1096 l 1019 1065 l 1050 1072 l 1057 1039 l 1092 1042 l 1093 1021 l 1414 1090 l 1414 697 l 1267 665 l 1269 663 l 1251 642 l 1269 619 l 1244 599 l 1263 571 l 1233 553 l 1251 524 l 1222 507 l 1235 478 l 1203 464 l 1214 431 l 1183 421 l 1189 390 l 1156 383 l 1158 349 l 1126 346 l 1126 314 l 1099 314 l 1094 285 l 1064 288 l 1057 257 l 1024 263 l 1014 231 l 983 240 l 972 208 l 939 222 l 924 192 l 894 207 l 876 179 l 847 197 l 828 172 l 803 193 l 779 171 l 758 190 l 736 171 l 717 196 l 689 178 l 669 207 l 640 190 l 625 218 l 594 206 l 581 238 l 549 228 l 539 258 l 507 251 l 500 285 l 467 282 l 463 314 l 431 314 l 431 343 l 403 346 l 406 378 l 374 383 l 381 417 l 347 426 l 357 457 l 335 465 l 139 424 l 139 817 m 993 722 q 1008 733 1001 726 l 1026 750 q 1025 746 1025 749 q 1028 733 1025 739 q 1040 726 1032 726 q 1056 731 1047 726 q 1071 739 1064 735 l 1088 751 q 1093 757 1090 754 q 1099 763 1096 760 l 1110 772 q 1107 764 1107 769 l 1107 758 q 1106 754 1106 757 q 1119 740 1106 740 q 1126 742 1124 740 l 1132 744 l 1149 754 l 1188 789 l 1183 779 q 1181 764 1181 774 l 1181 760 q 1189 756 1185 756 q 1197 758 1190 756 q 1206 764 1203 761 l 1222 778 q 1233 787 1228 781 q 1246 800 1239 793 l 1260 817 q 1261 819 1261 818 q 1258 821 1260 821 q 1253 818 1256 821 l 1250 814 l 1232 793 q 1227 788 1229 790 q 1222 783 1225 786 l 1211 774 l 1199 767 q 1197 765 1199 767 q 1194 767 1196 765 l 1201 778 q 1204 783 1203 781 q 1208 789 1206 786 l 1214 797 q 1219 806 1217 800 l 1269 879 q 1281 893 1278 888 l 1322 939 q 1335 956 1329 947 q 1349 972 1342 964 l 1357 986 l 1357 993 q 1350 994 1356 994 q 1338 991 1347 994 q 1324 982 1329 988 l 1317 976 q 1308 970 1313 974 q 1300 963 1304 967 l 1286 947 q 1263 917 1275 936 q 1239 881 1250 899 l 1218 846 l 1197 807 q 1196 806 1196 807 l 1185 794 q 1178 787 1182 790 q 1169 779 1174 783 l 1154 765 l 1142 756 q 1139 754 1142 756 l 1131 751 l 1129 750 q 1128 751 1129 750 l 1136 767 q 1150 790 1140 778 q 1167 814 1160 803 l 1183 840 q 1189 849 1186 843 l 1190 850 q 1192 853 1188 850 q 1197 858 1197 856 q 1192 863 1197 863 l 1183 860 l 1161 846 q 1156 840 1158 843 q 1150 835 1153 838 q 1135 850 1150 850 q 1103 840 1119 850 q 1071 817 1086 831 q 1044 788 1056 804 q 1029 760 1033 772 q 1023 754 1028 760 q 1010 741 1018 749 q 994 728 1003 733 q 978 722 986 722 l 975 722 q 974 724 974 722 l 975 725 l 985 739 l 1011 772 q 1019 783 1015 778 q 1026 794 1024 788 l 1033 808 q 1035 817 1035 811 q 1028 829 1035 829 q 1021 828 1024 829 l 1001 818 q 989 806 996 813 q 976 797 982 800 l 960 781 q 951 773 956 776 q 944 765 947 769 l 928 747 l 931 751 l 971 808 q 973 813 971 810 q 975 819 975 817 l 971 824 q 969 824 969 824 q 965 825 968 825 q 963 824 964 825 q 958 824 961 824 l 946 815 q 943 813 943 814 q 942 810 943 811 l 876 699 q 875 693 875 697 q 877 692 876 693 q 879 692 878 692 q 886 693 883 692 l 893 697 q 895 701 893 699 q 899 704 897 704 l 903 708 q 906 713 903 710 l 935 746 l 965 779 l 989 801 q 997 808 992 803 l 1015 818 q 1017 817 1017 818 l 1011 813 q 1006 807 1010 808 l 992 790 q 979 776 985 783 q 971 761 974 768 l 960 744 q 953 722 953 735 q 961 711 953 711 q 993 722 975 711 m 686 654 q 715 667 701 657 q 736 688 729 676 l 743 701 q 747 717 747 710 l 747 729 q 744 742 747 733 l 735 760 q 729 769 735 764 l 729 774 q 731 776 731 775 l 724 776 q 717 772 721 774 q 711 767 714 769 l 706 756 l 676 715 l 668 703 l 667 700 q 664 699 665 700 l 656 686 l 626 656 q 607 647 618 647 l 606 647 q 607 649 606 647 l 613 657 l 624 672 q 629 679 626 674 l 636 690 l 647 714 q 649 725 649 718 q 647 731 647 726 l 644 735 q 643 739 644 738 l 643 757 l 649 765 l 649 769 q 640 776 649 776 q 616 767 624 776 q 608 750 608 757 q 610 742 608 744 l 613 739 q 615 736 613 739 l 607 726 l 572 683 q 568 681 571 683 l 567 678 q 565 676 567 676 l 557 665 q 525 637 546 654 q 482 619 504 619 q 471 629 471 619 q 474 636 471 631 l 485 657 q 494 654 490 654 q 549 676 519 654 l 561 689 q 566 695 564 692 q 569 701 568 699 l 575 713 q 567 729 575 726 q 551 732 560 732 q 488 700 519 721 q 446 640 456 679 l 446 626 q 465 611 451 611 q 503 620 482 613 q 543 646 524 628 l 574 675 q 576 679 574 676 q 579 682 578 682 l 582 688 l 607 717 q 615 725 611 721 q 621 733 618 729 l 629 726 q 631 721 631 724 q 625 714 631 719 l 613 700 l 592 669 l 588 656 q 586 649 586 653 l 586 643 q 596 636 589 636 q 610 639 599 636 l 622 647 q 643 665 631 654 q 660 683 656 676 l 667 692 l 674 700 q 676 704 676 703 l 703 740 q 705 728 703 733 q 707 718 707 724 l 710 713 q 690 703 696 707 l 675 690 q 665 675 667 682 q 663 663 663 668 q 672 655 665 656 q 686 654 678 654 m 768 708 q 767 699 767 706 q 785 676 767 676 q 786 677 786 676 q 788 678 786 678 l 797 678 q 818 685 804 679 l 839 696 l 872 725 l 892 754 l 896 768 q 897 772 896 771 q 897 775 897 774 q 894 785 897 779 q 872 796 889 796 q 860 794 867 796 q 847 790 854 793 l 818 774 q 808 767 813 771 q 800 760 804 763 l 786 744 l 776 729 q 768 708 769 718 m 243 -12 q 226 35 226 4 q 228 53 226 42 q 238 74 231 64 q 256 92 244 85 q 286 99 267 99 l 290 99 q 320 88 301 99 q 339 58 339 78 l 313 58 q 305 72 313 65 q 288 78 297 78 q 281 76 283 78 l 275 76 l 264 68 q 255 53 257 61 q 253 33 253 44 q 261 3 253 13 q 282 -8 269 -6 l 286 -8 q 305 -2 293 -8 q 317 18 317 4 l 288 18 l 288 40 l 339 40 l 339 -26 l 322 -26 l 319 -11 q 301 -27 311 -24 q 279 -31 290 -31 q 258 -25 268 -31 q 243 -12 249 -19 m 1469 -153 q 1474 -167 1474 -157 l 1474 -229 l 1450 -229 l 1450 -175 q 1436 -157 1450 -157 q 1421 -175 1421 -157 l 1421 -229 l 1397 -229 l 1397 -175 q 1395 -162 1397 -168 q 1383 -157 1393 -157 q 1368 -174 1368 -157 l 1368 -229 l 1344 -229 l 1344 -139 l 1367 -139 l 1367 -153 q 1393 -136 1376 -136 q 1418 -151 1410 -136 q 1443 -136 1425 -136 q 1460 -141 1453 -136 q 1469 -153 1467 -146 m 644 -142 q 653 -150 649 -144 q 657 -167 657 -156 l 657 -229 l 635 -229 l 635 -175 q 621 -157 635 -157 q 606 -175 606 -157 l 606 -229 l 581 -229 l 581 -167 q 567 -157 581 -157 q 551 -174 551 -157 l 551 -229 l 529 -229 l 529 -139 l 551 -139 l 551 -153 q 578 -136 560 -136 q 603 -151 594 -136 q 626 -136 610 -136 q 644 -142 638 -136 m 1317 -149 q 1328 -185 1328 -160 q 1316 -217 1328 -204 q 1282 -231 1304 -231 q 1248 -217 1260 -231 q 1236 -185 1236 -204 q 1238 -171 1236 -179 q 1244 -155 1239 -162 q 1258 -142 1249 -147 q 1282 -136 1267 -136 q 1317 -149 1300 -136 m 947 65 q 980 53 967 65 q 993 18 993 42 q 983 -14 993 1 q 947 -29 972 -29 q 913 -14 924 -29 q 901 18 901 1 q 910 49 901 33 q 947 65 919 65 m 196 -139 l 219 -139 l 194 -229 l 169 -229 l 156 -164 l 142 -229 l 117 -229 l 92 -139 l 117 -139 l 131 -204 l 143 -139 l 168 -139 l 181 -204 l 196 -139 m 482 -139 l 456 -229 l 432 -229 l 418 -164 l 403 -229 l 379 -229 l 354 -139 l 379 -139 l 393 -204 l 406 -139 l 431 -139 l 443 -204 l 457 -139 l 482 -139 m 326 -139 l 351 -139 l 325 -229 l 301 -229 l 286 -164 l 272 -229 l 247 -229 l 224 -139 l 247 -139 l 263 -204 l 275 -139 l 299 -139 l 313 -204 l 326 -139 m 868 -139 l 892 -139 l 867 -229 l 842 -229 l 828 -164 l 814 -229 l 789 -229 l 764 -139 l 789 -139 l 803 -204 l 815 -139 l 839 -139 l 853 -204 l 868 -139 m 242 536 l 250 544 l 264 561 q 271 569 265 564 l 321 639 q 329 651 325 646 q 336 663 333 656 l 353 688 q 372 715 360 699 q 383 740 383 731 q 378 744 383 744 q 371 743 372 744 l 364 739 l 338 707 q 326 692 331 700 l 314 676 l 249 579 q 239 563 243 571 q 231 546 235 554 l 228 542 q 227 540 228 540 q 226 538 226 539 l 226 535 q 228 532 226 533 l 235 532 l 242 536 m 1250 -26 q 1244 -28 1246 -28 q 1238 -29 1242 -29 q 1217 -21 1224 -29 q 1210 -1 1210 -12 q 1236 26 1210 22 l 1257 29 q 1265 36 1265 31 q 1251 47 1265 47 q 1241 45 1244 47 q 1235 33 1238 43 l 1213 33 q 1222 55 1215 44 q 1251 65 1228 65 q 1281 58 1274 65 q 1289 40 1289 50 l 1289 -18 q 1294 -22 1289 -22 l 1294 -26 l 1268 -26 q 1267 -25 1267 -26 l 1267 -24 l 1267 -22 q 1266 -18 1267 -19 q 1265 -15 1265 -17 q 1258 -23 1263 -19 q 1250 -26 1253 -26 m 753 -221 q 757 -225 753 -225 l 757 -229 l 732 -229 q 731 -226 732 -228 l 731 -225 q 729 -218 729 -222 q 721 -225 724 -224 l 713 -229 q 701 -231 710 -231 q 681 -226 690 -231 q 672 -206 672 -221 q 699 -176 672 -181 l 721 -174 q 728 -167 728 -171 q 714 -156 728 -156 q 699 -168 699 -156 l 676 -168 q 685 -145 676 -154 q 714 -136 694 -136 q 744 -145 738 -136 q 751 -162 751 -154 l 751 -211 q 753 -221 751 -218 m 439 11 l 376 11 q 382 -3 376 4 q 399 -10 388 -10 q 410 -6 406 -10 q 414 0 414 -3 l 439 0 q 419 -24 432 -19 q 399 -29 407 -29 q 354 21 354 -29 q 366 55 354 44 q 397 65 378 65 q 432 49 425 65 q 439 17 439 32 l 439 11 m 843 490 q 849 510 849 497 q 838 535 849 521 q 804 549 828 549 q 771 536 782 549 q 760 510 760 524 q 774 481 760 490 q 804 471 788 471 q 826 476 817 471 q 843 490 836 482 m 260 694 q 258 686 258 692 q 268 671 258 678 l 282 667 q 297 668 286 667 q 306 672 308 669 q 304 674 306 674 l 300 674 q 294 672 297 674 q 289 671 292 671 q 271 676 278 671 q 264 689 264 681 q 265 699 264 694 l 271 710 l 285 725 q 324 751 303 744 q 364 765 346 758 l 386 769 q 407 772 400 772 q 424 770 414 772 q 438 764 433 768 l 444 754 q 446 740 446 750 q 443 725 446 736 l 435 710 q 417 685 428 694 q 392 663 406 675 l 374 651 l 343 639 q 333 636 339 639 l 329 636 q 324 635 328 636 q 319 631 319 633 q 321 629 319 629 l 325 629 q 329 631 328 629 l 354 638 l 396 656 l 435 681 l 465 711 q 476 734 472 725 q 479 750 479 743 q 473 767 479 761 q 458 777 467 774 q 441 781 450 781 q 426 782 432 782 q 401 779 421 782 q 358 768 382 776 q 308 746 333 760 q 267 710 283 732 l 260 694 m 1076 -183 q 1083 -200 1083 -187 q 1044 -231 1083 -231 l 1036 -231 q 1010 -221 1018 -231 q 1001 -200 1001 -211 l 1025 -200 q 1046 -212 1025 -212 q 1055 -212 1050 -212 q 1060 -204 1060 -211 q 1050 -197 1060 -199 l 1029 -192 q 1011 -183 1018 -189 q 1004 -167 1004 -176 q 1010 -147 1004 -158 q 1040 -136 1017 -136 q 1065 -141 1056 -136 q 1078 -153 1075 -146 l 1081 -167 l 1057 -167 q 1056 -159 1057 -162 q 1042 -156 1054 -156 q 1028 -164 1028 -156 q 1036 -169 1028 -168 l 1057 -175 q 1076 -183 1065 -176 m 971 -140 q 981 -151 978 -143 q 985 -167 985 -160 l 985 -229 l 961 -229 l 961 -175 q 959 -161 961 -165 q 946 -157 957 -157 q 931 -163 935 -157 q 928 -178 928 -169 l 928 -229 l 903 -229 l 903 -139 l 926 -139 l 926 -153 q 954 -136 936 -136 q 971 -140 963 -136 m 1060 65 q 1081 58 1071 65 q 1092 36 1092 51 l 1092 -26 l 1068 -26 l 1068 28 q 1065 41 1068 36 q 1051 46 1063 46 q 1035 25 1035 46 l 1035 -26 l 1010 -26 l 1010 64 l 1032 64 l 1032 51 q 1060 65 1042 65 m 672 -14 q 660 -25 668 -21 q 644 -29 651 -29 q 624 -21 633 -29 q 614 4 614 -12 l 614 64 l 638 64 l 638 8 q 653 -8 638 -8 q 665 -5 658 -8 q 672 11 672 -1 l 672 64 l 694 64 l 694 -26 l 672 -26 l 672 -14 m 1186 -157 q 1172 -164 1176 -157 q 1167 -182 1167 -171 q 1170 -205 1167 -199 q 1185 -211 1174 -211 q 1195 -209 1190 -211 q 1200 -196 1200 -207 l 1225 -196 q 1214 -221 1225 -211 q 1183 -231 1203 -231 q 1143 -186 1143 -231 q 1152 -151 1143 -167 q 1183 -136 1161 -136 q 1210 -144 1196 -136 q 1225 -171 1225 -151 l 1200 -171 q 1186 -157 1200 -157 m 588 76 q 585 74 585 76 l 585 64 l 600 64 l 600 47 l 585 47 l 585 -26 l 561 -26 l 561 47 l 549 47 l 549 64 l 561 64 l 561 71 q 588 96 561 96 l 600 96 l 600 78 l 593 78 q 588 76 589 78 m 878 64 l 894 64 l 894 47 l 878 47 l 878 -26 l 854 -26 l 854 47 l 842 47 l 842 64 l 854 64 l 854 71 q 881 96 854 96 l 892 96 l 892 78 l 886 78 q 878 74 879 78 l 878 64 m 1351 -26 l 1336 -26 q 1319 -24 1328 -26 q 1311 -8 1311 -21 l 1311 47 l 1300 47 l 1300 64 l 1311 64 l 1311 88 l 1336 88 l 1336 64 l 1351 64 l 1351 47 l 1336 47 l 1336 -1 q 1344 -10 1336 -10 l 1351 -8 l 1351 -26 m 790 683 q 786 692 786 686 q 794 710 786 700 q 806 729 801 721 l 814 739 l 833 764 q 841 772 838 768 q 849 779 844 776 l 864 789 q 871 790 867 790 q 876 782 876 790 q 874 774 876 779 l 865 758 q 860 750 863 753 l 854 742 q 849 733 851 738 q 843 726 846 729 l 815 696 q 805 688 813 693 q 790 683 797 683 m 482 88 l 482 64 l 496 64 l 496 47 l 482 47 l 482 -1 q 483 -8 482 -6 q 492 -10 485 -10 l 494 -8 l 496 -26 l 482 -26 q 464 -23 469 -26 q 458 -8 458 -19 l 458 47 l 446 47 l 446 64 l 458 64 l 458 88 l 482 88 m 1049 744 q 1054 753 1051 750 l 1060 761 q 1072 779 1064 771 l 1086 799 l 1113 831 l 1125 840 q 1139 843 1133 843 l 1143 840 q 1144 838 1143 839 q 1144 835 1144 838 q 1144 830 1144 833 q 1140 824 1143 826 l 1117 789 l 1092 763 q 1083 756 1089 761 l 1074 747 q 1062 740 1068 744 q 1051 735 1056 735 q 1049 736 1050 735 l 1047 736 q 1046 739 1046 738 q 1047 742 1047 740 q 1049 744 1047 743 m 1154 -26 l 1139 -26 q 1124 -24 1131 -26 q 1117 -18 1118 -22 l 1117 47 l 1103 47 l 1103 64 l 1117 64 l 1117 88 l 1139 88 l 1139 64 l 1154 64 l 1154 47 l 1139 47 l 1139 -1 q 1149 -10 1139 -10 l 1154 -8 l 1154 -26 m 824 536 q 828 526 826 531 q 831 510 831 522 q 824 484 831 494 q 804 474 818 474 q 785 483 790 474 l 781 494 q 778 510 778 503 q 778 516 778 513 q 779 522 779 519 l 783 532 q 790 542 786 536 q 806 547 794 547 q 808 547 807 547 q 811 546 808 546 l 824 536 m 740 -26 l 717 -26 l 717 96 l 740 96 l 740 -26 m 781 -26 l 758 -26 l 758 96 l 781 96 l 781 -26 m 710 547 l 629 547 l 629 544 l 632 544 q 644 532 644 544 l 644 488 q 632 474 644 474 l 629 472 l 710 472 l 710 503 q 707 498 707 500 q 706 493 707 496 l 697 482 q 690 478 693 478 l 683 475 q 674 474 679 474 l 661 474 l 663 507 q 678 501 672 507 l 681 497 q 682 491 681 494 q 683 485 683 488 l 685 533 l 683 526 l 679 518 q 665 510 672 510 l 661 510 l 661 544 l 675 544 q 692 543 688 544 l 699 538 l 707 518 l 710 518 l 710 547 m 963 547 l 925 547 l 925 544 l 932 544 q 938 538 932 543 q 943 525 943 532 l 943 493 l 890 547 l 861 547 l 863 544 q 874 541 872 544 q 876 533 876 538 l 876 490 q 860 474 876 474 l 860 472 l 899 474 q 892 475 896 474 q 885 476 888 476 l 881 483 q 879 493 879 485 l 879 538 l 943 472 l 946 472 l 946 525 q 949 538 946 532 q 963 544 951 544 l 963 547 m 617 507 q 607 513 613 510 l 593 518 l 583 519 q 567 524 576 521 q 558 533 558 526 q 558 539 558 531 q 576 547 558 547 q 600 540 593 547 q 614 521 607 532 l 617 521 l 617 546 l 614 546 q 608 540 613 540 q 592 544 601 540 q 576 549 583 549 q 561 546 569 549 l 551 539 q 547 526 547 532 q 550 519 547 524 q 556 513 553 515 l 565 508 q 571 506 567 507 q 582 503 575 506 l 588 501 q 603 497 594 499 q 611 486 611 496 q 601 474 611 479 l 593 474 q 581 475 585 474 l 567 481 l 558 489 q 551 506 551 499 l 549 506 l 549 471 l 551 471 q 561 479 551 479 q 565 478 563 479 q 571 476 567 476 l 582 472 q 593 471 585 471 q 607 474 601 471 q 621 486 613 478 l 621 501 l 617 507 m 964 0 q 969 18 969 6 q 947 46 969 46 q 925 18 925 46 q 947 -8 925 -8 q 964 0 961 -8 m 1299 -203 q 1302 -194 1301 -199 q 1303 -185 1303 -189 q 1300 -165 1303 -174 q 1282 -157 1297 -157 q 1265 -165 1268 -157 q 1261 -185 1261 -174 q 1265 -203 1261 -196 q 1282 -211 1269 -211 q 1299 -203 1294 -211 m 1136 540 q 1142 544 1138 543 q 1147 544 1146 544 l 1147 547 l 1110 547 l 1110 544 l 1114 544 q 1124 542 1122 544 q 1125 538 1125 540 q 1121 529 1125 535 l 1106 508 l 1086 533 q 1083 539 1083 539 l 1083 540 q 1089 544 1083 544 l 1096 544 l 1096 547 l 1047 547 l 1049 544 q 1067 535 1064 544 l 1090 504 l 1090 488 q 1076 474 1090 474 l 1072 472 l 1125 472 l 1119 474 q 1106 488 1106 474 l 1106 506 l 1129 538 q 1136 540 1135 540 m 1051 506 l 1050 506 q 1049 502 1050 507 q 1045 491 1049 497 q 1035 479 1042 485 q 1018 474 1029 474 l 999 474 l 999 532 q 1013 544 999 544 l 1018 544 l 1018 547 l 967 547 l 967 544 l 971 544 q 983 532 983 544 l 983 488 q 971 474 983 474 l 967 472 l 1051 472 l 1051 506 m 538 547 l 500 547 l 500 544 l 508 544 q 518 538 515 544 q 521 525 521 532 l 521 499 q 514 481 521 488 l 504 474 l 492 474 q 476 476 485 474 q 467 494 467 479 l 467 532 q 471 543 467 542 q 481 544 475 544 l 486 544 l 486 547 l 435 547 l 436 544 q 451 532 451 544 l 451 494 q 460 476 451 485 l 472 472 q 488 471 476 471 q 522 497 522 471 l 522 536 l 529 543 l 531 543 q 532 544 531 543 l 538 544 l 538 547 m 510 667 q 500 664 501 664 q 490 667 496 664 l 503 683 l 522 707 q 526 710 525 710 q 529 714 528 711 l 547 725 q 551 726 550 725 q 554 726 551 726 q 560 721 560 726 q 559 719 560 719 q 558 717 558 718 l 554 710 q 545 694 551 707 q 519 672 539 682 l 510 667 m 711 708 q 712 704 711 706 q 713 700 713 703 q 710 685 710 692 l 707 678 q 700 669 706 675 l 694 665 q 678 660 689 660 q 669 664 674 660 l 669 671 l 678 686 q 693 700 685 694 l 711 708 m 1233 -1 q 1238 -10 1233 -8 q 1244 -11 1242 -11 l 1250 -11 q 1260 -6 1256 -10 q 1265 7 1265 -3 l 1265 18 q 1256 14 1261 14 l 1244 11 q 1238 8 1242 11 q 1233 -1 1233 6 m 728 -185 q 719 -189 724 -189 l 708 -190 l 700 -194 q 696 -204 696 -199 q 708 -214 696 -214 l 713 -214 q 715 -213 714 -214 q 717 -212 715 -212 l 725 -207 q 728 -197 728 -204 l 728 -185 m 1101 -204 l 1126 -204 l 1126 -229 l 1101 -229 l 1101 -204 m 482 -204 l 507 -204 l 507 -229 l 482 -229 l 482 -204 m 415 28 q 409 41 413 35 q 397 47 406 47 q 379 28 382 47 l 415 28 m 1292 910 q 1285 901 1290 907 l 1307 932 l 1339 978 q 1340 981 1338 978 q 1346 985 1343 983 l 1346 983 q 1343 975 1346 981 l 1332 960 q 1326 953 1329 954 l 1300 919 l 1292 910 z "},"8":{"ha":1613,"x_min":92,"x_max":1474,"o":"m 139 817 l 353 863 l 344 892 l 376 901 l 369 933 l 403 940 l 399 975 l 431 978 l 431 1010 l 460 1010 l 463 1039 l 494 1035 l 500 1067 l 535 1061 l 543 1093 l 574 1085 l 586 1114 l 618 1101 l 635 1132 l 664 1117 l 681 1144 l 710 1125 l 731 1151 l 757 1131 l 779 1153 l 800 1133 l 821 1151 l 842 1128 l 869 1146 l 888 1117 l 918 1133 l 933 1106 l 963 1118 l 976 1086 l 1010 1096 l 1019 1065 l 1050 1072 l 1057 1039 l 1092 1042 l 1093 1021 l 1414 1090 l 1414 697 l 1267 665 l 1269 663 l 1251 642 l 1269 619 l 1244 599 l 1263 571 l 1233 553 l 1251 524 l 1222 507 l 1235 478 l 1203 464 l 1214 431 l 1183 421 l 1189 390 l 1156 383 l 1158 349 l 1126 346 l 1126 314 l 1099 314 l 1094 285 l 1064 288 l 1057 257 l 1024 263 l 1014 231 l 983 240 l 972 208 l 939 222 l 924 192 l 894 207 l 876 179 l 847 197 l 828 172 l 803 193 l 779 171 l 758 190 l 736 171 l 717 196 l 689 178 l 669 207 l 640 190 l 625 218 l 594 206 l 581 238 l 549 228 l 539 258 l 507 251 l 500 285 l 467 282 l 463 314 l 431 314 l 431 343 l 403 346 l 406 378 l 374 383 l 381 417 l 347 426 l 357 457 l 335 465 l 139 424 l 139 817 m 993 722 q 1008 733 1001 726 l 1026 750 q 1025 746 1025 749 q 1028 733 1025 739 q 1040 726 1032 726 q 1056 731 1047 726 q 1071 739 1064 735 l 1088 751 q 1093 757 1090 754 q 1099 763 1096 760 l 1110 772 q 1107 764 1107 769 l 1107 758 q 1106 754 1106 757 q 1119 740 1106 740 q 1126 742 1124 740 l 1132 744 l 1149 754 l 1188 789 l 1183 779 q 1181 764 1181 774 l 1181 760 q 1189 756 1185 756 q 1197 758 1190 756 q 1206 764 1203 761 l 1222 778 q 1233 787 1228 781 q 1246 800 1239 793 l 1260 817 q 1261 819 1261 818 q 1258 821 1260 821 q 1253 818 1256 821 l 1250 814 l 1232 793 q 1227 788 1229 790 q 1222 783 1225 786 l 1211 774 l 1199 767 q 1197 765 1199 767 q 1194 767 1196 765 l 1201 778 q 1204 783 1203 781 q 1208 789 1206 786 l 1214 797 q 1219 806 1217 800 l 1269 879 q 1281 893 1278 888 l 1322 939 q 1335 956 1329 947 q 1349 972 1342 964 l 1357 986 l 1357 993 q 1350 994 1356 994 q 1338 991 1347 994 q 1324 982 1329 988 l 1317 976 q 1308 970 1313 974 q 1300 963 1304 967 l 1286 947 q 1263 917 1275 936 q 1239 881 1250 899 l 1218 846 l 1197 807 q 1196 806 1196 807 l 1185 794 q 1178 787 1182 790 q 1169 779 1174 783 l 1154 765 l 1142 756 q 1139 754 1142 756 l 1131 751 l 1129 750 q 1128 751 1129 750 l 1136 767 q 1150 790 1140 778 q 1167 814 1160 803 l 1183 840 q 1189 849 1186 843 l 1190 850 q 1192 853 1188 850 q 1197 858 1197 856 q 1192 863 1197 863 l 1183 860 l 1161 846 q 1156 840 1158 843 q 1150 835 1153 838 q 1135 850 1150 850 q 1103 840 1119 850 q 1071 817 1086 831 q 1044 788 1056 804 q 1029 760 1033 772 q 1023 754 1028 760 q 1010 741 1018 749 q 994 728 1003 733 q 978 722 986 722 l 975 722 q 974 724 974 722 l 975 725 l 985 739 l 1011 772 q 1019 783 1015 778 q 1026 794 1024 788 l 1033 808 q 1035 817 1035 811 q 1028 829 1035 829 q 1021 828 1024 829 l 1001 818 q 989 806 996 813 q 976 797 982 800 l 960 781 q 951 773 956 776 q 944 765 947 769 l 928 747 l 931 751 l 971 808 q 973 813 971 810 q 975 819 975 817 l 971 824 q 969 824 969 824 q 965 825 968 825 q 963 824 964 825 q 958 824 961 824 l 946 815 q 943 813 943 814 q 942 810 943 811 l 876 699 q 875 693 875 697 q 877 692 876 693 q 879 692 878 692 q 886 693 883 692 l 893 697 q 895 701 893 699 q 899 704 897 704 l 903 708 q 906 713 903 710 l 935 746 l 965 779 l 989 801 q 997 808 992 803 l 1015 818 q 1017 817 1017 818 l 1011 813 q 1006 807 1010 808 l 992 790 q 979 776 985 783 q 971 761 974 768 l 960 744 q 953 722 953 735 q 961 711 953 711 q 993 722 975 711 m 686 654 q 715 667 701 657 q 736 688 729 676 l 743 701 q 747 717 747 710 l 747 729 q 744 742 747 733 l 735 760 q 729 769 735 764 l 729 774 q 731 776 731 775 l 724 776 q 717 772 721 774 q 711 767 714 769 l 706 756 l 676 715 l 668 703 l 667 700 q 664 699 665 700 l 656 686 l 626 656 q 607 647 618 647 l 606 647 q 607 649 606 647 l 613 657 l 624 672 q 629 679 626 674 l 636 690 l 647 714 q 649 725 649 718 q 647 731 647 726 l 644 735 q 643 739 644 738 l 643 757 l 649 765 l 649 769 q 640 776 649 776 q 616 767 624 776 q 608 750 608 757 q 610 742 608 744 l 613 739 q 615 736 613 739 l 607 726 l 572 683 q 568 681 571 683 l 567 678 q 565 676 567 676 l 557 665 q 525 637 546 654 q 482 619 504 619 q 471 629 471 619 q 474 636 471 631 l 485 657 q 494 654 490 654 q 549 676 519 654 l 561 689 q 566 695 564 692 q 569 701 568 699 l 575 713 q 567 729 575 726 q 551 732 560 732 q 488 700 519 721 q 446 640 456 679 l 446 626 q 465 611 451 611 q 503 620 482 613 q 543 646 524 628 l 574 675 q 576 679 574 676 q 579 682 578 682 l 582 688 l 607 717 q 615 725 611 721 q 621 733 618 729 l 629 726 q 631 721 631 724 q 625 714 631 719 l 613 700 l 592 669 l 588 656 q 586 649 586 653 l 586 643 q 596 636 589 636 q 610 639 599 636 l 622 647 q 643 665 631 654 q 660 683 656 676 l 667 692 l 674 700 q 676 704 676 703 l 703 740 q 705 728 703 733 q 707 718 707 724 l 710 713 q 690 703 696 707 l 675 690 q 665 675 667 682 q 663 663 663 668 q 672 655 665 656 q 686 654 678 654 m 768 708 q 767 699 767 706 q 785 676 767 676 q 786 677 786 676 q 788 678 786 678 l 797 678 q 818 685 804 679 l 839 696 l 872 725 l 892 754 l 896 768 q 897 772 896 771 q 897 775 897 774 q 894 785 897 779 q 872 796 889 796 q 860 794 867 796 q 847 790 854 793 l 818 774 q 808 767 813 771 q 800 760 804 763 l 786 744 l 776 729 q 768 708 769 718 m 243 -12 q 226 35 226 4 q 228 53 226 42 q 238 74 231 64 q 256 92 244 85 q 286 99 267 99 l 290 99 q 320 88 301 99 q 339 58 339 78 l 313 58 q 305 72 313 65 q 288 78 297 78 q 281 76 283 78 l 275 76 l 264 68 q 255 53 257 61 q 253 33 253 44 q 261 3 253 13 q 282 -8 269 -6 l 286 -8 q 305 -2 293 -8 q 317 18 317 4 l 288 18 l 288 40 l 339 40 l 339 -26 l 322 -26 l 319 -11 q 301 -27 311 -24 q 279 -31 290 -31 q 258 -25 268 -31 q 243 -12 249 -19 m 1469 -153 q 1474 -167 1474 -157 l 1474 -229 l 1450 -229 l 1450 -175 q 1436 -157 1450 -157 q 1421 -175 1421 -157 l 1421 -229 l 1397 -229 l 1397 -175 q 1395 -162 1397 -168 q 1383 -157 1393 -157 q 1368 -174 1368 -157 l 1368 -229 l 1344 -229 l 1344 -139 l 1367 -139 l 1367 -153 q 1393 -136 1376 -136 q 1418 -151 1410 -136 q 1443 -136 1425 -136 q 1460 -141 1453 -136 q 1469 -153 1467 -146 m 644 -142 q 653 -150 649 -144 q 657 -167 657 -156 l 657 -229 l 635 -229 l 635 -175 q 621 -157 635 -157 q 606 -175 606 -157 l 606 -229 l 581 -229 l 581 -167 q 567 -157 581 -157 q 551 -174 551 -157 l 551 -229 l 529 -229 l 529 -139 l 551 -139 l 551 -153 q 578 -136 560 -136 q 603 -151 594 -136 q 626 -136 610 -136 q 644 -142 638 -136 m 1317 -149 q 1328 -185 1328 -160 q 1316 -217 1328 -204 q 1282 -231 1304 -231 q 1248 -217 1260 -231 q 1236 -185 1236 -204 q 1238 -171 1236 -179 q 1244 -155 1239 -162 q 1258 -142 1249 -147 q 1282 -136 1267 -136 q 1317 -149 1300 -136 m 947 65 q 980 53 967 65 q 993 18 993 42 q 983 -14 993 1 q 947 -29 972 -29 q 913 -14 924 -29 q 901 18 901 1 q 910 49 901 33 q 947 65 919 65 m 196 -139 l 219 -139 l 194 -229 l 169 -229 l 156 -164 l 142 -229 l 117 -229 l 92 -139 l 117 -139 l 131 -204 l 143 -139 l 168 -139 l 181 -204 l 196 -139 m 482 -139 l 456 -229 l 432 -229 l 418 -164 l 403 -229 l 379 -229 l 354 -139 l 379 -139 l 393 -204 l 406 -139 l 431 -139 l 443 -204 l 457 -139 l 482 -139 m 326 -139 l 351 -139 l 325 -229 l 301 -229 l 286 -164 l 272 -229 l 247 -229 l 224 -139 l 247 -139 l 263 -204 l 275 -139 l 299 -139 l 313 -204 l 326 -139 m 868 -139 l 892 -139 l 867 -229 l 842 -229 l 828 -164 l 814 -229 l 789 -229 l 764 -139 l 789 -139 l 803 -204 l 815 -139 l 839 -139 l 853 -204 l 868 -139 m 242 536 l 250 544 l 264 561 q 271 569 265 564 l 321 639 q 329 651 325 646 q 336 663 333 656 l 353 688 q 372 715 360 699 q 383 740 383 731 q 378 744 383 744 q 371 743 372 744 l 364 739 l 338 707 q 326 692 331 700 l 314 676 l 249 579 q 239 563 243 571 q 231 546 235 554 l 228 542 q 227 540 228 540 q 226 538 226 539 l 226 535 q 228 532 226 533 l 235 532 l 242 536 m 1250 -26 q 1244 -28 1246 -28 q 1238 -29 1242 -29 q 1217 -21 1224 -29 q 1210 -1 1210 -12 q 1236 26 1210 22 l 1257 29 q 1265 36 1265 31 q 1251 47 1265 47 q 1241 45 1244 47 q 1235 33 1238 43 l 1213 33 q 1222 55 1215 44 q 1251 65 1228 65 q 1281 58 1274 65 q 1289 40 1289 50 l 1289 -18 q 1294 -22 1289 -22 l 1294 -26 l 1268 -26 q 1267 -25 1267 -26 l 1267 -24 l 1267 -22 q 1266 -18 1267 -19 q 1265 -15 1265 -17 q 1258 -23 1263 -19 q 1250 -26 1253 -26 m 753 -221 q 757 -225 753 -225 l 757 -229 l 732 -229 q 731 -226 732 -228 l 731 -225 q 729 -218 729 -222 q 721 -225 724 -224 l 713 -229 q 701 -231 710 -231 q 681 -226 690 -231 q 672 -206 672 -221 q 699 -176 672 -181 l 721 -174 q 728 -167 728 -171 q 714 -156 728 -156 q 699 -168 699 -156 l 676 -168 q 685 -145 676 -154 q 714 -136 694 -136 q 744 -145 738 -136 q 751 -162 751 -154 l 751 -211 q 753 -221 751 -218 m 439 11 l 376 11 q 382 -3 376 4 q 399 -10 388 -10 q 410 -6 406 -10 q 414 0 414 -3 l 439 0 q 419 -24 432 -19 q 399 -29 407 -29 q 354 21 354 -29 q 366 55 354 44 q 397 65 378 65 q 432 49 425 65 q 439 17 439 32 l 439 11 m 843 490 q 849 510 849 497 q 838 535 849 521 q 804 549 828 549 q 771 536 782 549 q 760 510 760 524 q 774 481 760 490 q 804 471 788 471 q 826 476 817 471 q 843 490 836 482 m 260 694 q 258 686 258 692 q 268 671 258 678 l 282 667 q 297 668 286 667 q 306 672 308 669 q 304 674 306 674 l 300 674 q 294 672 297 674 q 289 671 292 671 q 271 676 278 671 q 264 689 264 681 q 265 699 264 694 l 271 710 l 285 725 q 324 751 303 744 q 364 765 346 758 l 386 769 q 407 772 400 772 q 424 770 414 772 q 438 764 433 768 l 444 754 q 446 740 446 750 q 443 725 446 736 l 435 710 q 417 685 428 694 q 392 663 406 675 l 374 651 l 343 639 q 333 636 339 639 l 329 636 q 324 635 328 636 q 319 631 319 633 q 321 629 319 629 l 325 629 q 329 631 328 629 l 354 638 l 396 656 l 435 681 l 465 711 q 476 734 472 725 q 479 750 479 743 q 473 767 479 761 q 458 777 467 774 q 441 781 450 781 q 426 782 432 782 q 401 779 421 782 q 358 768 382 776 q 308 746 333 760 q 267 710 283 732 l 260 694 m 1076 -183 q 1083 -200 1083 -187 q 1044 -231 1083 -231 l 1036 -231 q 1010 -221 1018 -231 q 1001 -200 1001 -211 l 1025 -200 q 1046 -212 1025 -212 q 1055 -212 1050 -212 q 1060 -204 1060 -211 q 1050 -197 1060 -199 l 1029 -192 q 1011 -183 1018 -189 q 1004 -167 1004 -176 q 1010 -147 1004 -158 q 1040 -136 1017 -136 q 1065 -141 1056 -136 q 1078 -153 1075 -146 l 1081 -167 l 1057 -167 q 1056 -159 1057 -162 q 1042 -156 1054 -156 q 1028 -164 1028 -156 q 1036 -169 1028 -168 l 1057 -175 q 1076 -183 1065 -176 m 971 -140 q 981 -151 978 -143 q 985 -167 985 -160 l 985 -229 l 961 -229 l 961 -175 q 959 -161 961 -165 q 946 -157 957 -157 q 931 -163 935 -157 q 928 -178 928 -169 l 928 -229 l 903 -229 l 903 -139 l 926 -139 l 926 -153 q 954 -136 936 -136 q 971 -140 963 -136 m 1060 65 q 1081 58 1071 65 q 1092 36 1092 51 l 1092 -26 l 1068 -26 l 1068 28 q 1065 41 1068 36 q 1051 46 1063 46 q 1035 25 1035 46 l 1035 -26 l 1010 -26 l 1010 64 l 1032 64 l 1032 51 q 1060 65 1042 65 m 672 -14 q 660 -25 668 -21 q 644 -29 651 -29 q 624 -21 633 -29 q 614 4 614 -12 l 614 64 l 638 64 l 638 8 q 653 -8 638 -8 q 665 -5 658 -8 q 672 11 672 -1 l 672 64 l 694 64 l 694 -26 l 672 -26 l 672 -14 m 1186 -157 q 1172 -164 1176 -157 q 1167 -182 1167 -171 q 1170 -205 1167 -199 q 1185 -211 1174 -211 q 1195 -209 1190 -211 q 1200 -196 1200 -207 l 1225 -196 q 1214 -221 1225 -211 q 1183 -231 1203 -231 q 1143 -186 1143 -231 q 1152 -151 1143 -167 q 1183 -136 1161 -136 q 1210 -144 1196 -136 q 1225 -171 1225 -151 l 1200 -171 q 1186 -157 1200 -157 m 588 76 q 585 74 585 76 l 585 64 l 600 64 l 600 47 l 585 47 l 585 -26 l 561 -26 l 561 47 l 549 47 l 549 64 l 561 64 l 561 71 q 588 96 561 96 l 600 96 l 600 78 l 593 78 q 588 76 589 78 m 878 64 l 894 64 l 894 47 l 878 47 l 878 -26 l 854 -26 l 854 47 l 842 47 l 842 64 l 854 64 l 854 71 q 881 96 854 96 l 892 96 l 892 78 l 886 78 q 878 74 879 78 l 878 64 m 1351 -26 l 1336 -26 q 1319 -24 1328 -26 q 1311 -8 1311 -21 l 1311 47 l 1300 47 l 1300 64 l 1311 64 l 1311 88 l 1336 88 l 1336 64 l 1351 64 l 1351 47 l 1336 47 l 1336 -1 q 1344 -10 1336 -10 l 1351 -8 l 1351 -26 m 790 683 q 786 692 786 686 q 794 710 786 700 q 806 729 801 721 l 814 739 l 833 764 q 841 772 838 768 q 849 779 844 776 l 864 789 q 871 790 867 790 q 876 782 876 790 q 874 774 876 779 l 865 758 q 860 750 863 753 l 854 742 q 849 733 851 738 q 843 726 846 729 l 815 696 q 805 688 813 693 q 790 683 797 683 m 482 88 l 482 64 l 496 64 l 496 47 l 482 47 l 482 -1 q 483 -8 482 -6 q 492 -10 485 -10 l 494 -8 l 496 -26 l 482 -26 q 464 -23 469 -26 q 458 -8 458 -19 l 458 47 l 446 47 l 446 64 l 458 64 l 458 88 l 482 88 m 1049 744 q 1054 753 1051 750 l 1060 761 q 1072 779 1064 771 l 1086 799 l 1113 831 l 1125 840 q 1139 843 1133 843 l 1143 840 q 1144 838 1143 839 q 1144 835 1144 838 q 1144 830 1144 833 q 1140 824 1143 826 l 1117 789 l 1092 763 q 1083 756 1089 761 l 1074 747 q 1062 740 1068 744 q 1051 735 1056 735 q 1049 736 1050 735 l 1047 736 q 1046 739 1046 738 q 1047 742 1047 740 q 1049 744 1047 743 m 1154 -26 l 1139 -26 q 1124 -24 1131 -26 q 1117 -18 1118 -22 l 1117 47 l 1103 47 l 1103 64 l 1117 64 l 1117 88 l 1139 88 l 1139 64 l 1154 64 l 1154 47 l 1139 47 l 1139 -1 q 1149 -10 1139 -10 l 1154 -8 l 1154 -26 m 824 536 q 828 526 826 531 q 831 510 831 522 q 824 484 831 494 q 804 474 818 474 q 785 483 790 474 l 781 494 q 778 510 778 503 q 778 516 778 513 q 779 522 779 519 l 783 532 q 790 542 786 536 q 806 547 794 547 q 808 547 807 547 q 811 546 808 546 l 824 536 m 740 -26 l 717 -26 l 717 96 l 740 96 l 740 -26 m 781 -26 l 758 -26 l 758 96 l 781 96 l 781 -26 m 710 547 l 629 547 l 629 544 l 632 544 q 644 532 644 544 l 644 488 q 632 474 644 474 l 629 472 l 710 472 l 710 503 q 707 498 707 500 q 706 493 707 496 l 697 482 q 690 478 693 478 l 683 475 q 674 474 679 474 l 661 474 l 663 507 q 678 501 672 507 l 681 497 q 682 491 681 494 q 683 485 683 488 l 685 533 l 683 526 l 679 518 q 665 510 672 510 l 661 510 l 661 544 l 675 544 q 692 543 688 544 l 699 538 l 707 518 l 710 518 l 710 547 m 963 547 l 925 547 l 925 544 l 932 544 q 938 538 932 543 q 943 525 943 532 l 943 493 l 890 547 l 861 547 l 863 544 q 874 541 872 544 q 876 533 876 538 l 876 490 q 860 474 876 474 l 860 472 l 899 474 q 892 475 896 474 q 885 476 888 476 l 881 483 q 879 493 879 485 l 879 538 l 943 472 l 946 472 l 946 525 q 949 538 946 532 q 963 544 951 544 l 963 547 m 617 507 q 607 513 613 510 l 593 518 l 583 519 q 567 524 576 521 q 558 533 558 526 q 558 539 558 531 q 576 547 558 547 q 600 540 593 547 q 614 521 607 532 l 617 521 l 617 546 l 614 546 q 608 540 613 540 q 592 544 601 540 q 576 549 583 549 q 561 546 569 549 l 551 539 q 547 526 547 532 q 550 519 547 524 q 556 513 553 515 l 565 508 q 571 506 567 507 q 582 503 575 506 l 588 501 q 603 497 594 499 q 611 486 611 496 q 601 474 611 479 l 593 474 q 581 475 585 474 l 567 481 l 558 489 q 551 506 551 499 l 549 506 l 549 471 l 551 471 q 561 479 551 479 q 565 478 563 479 q 571 476 567 476 l 582 472 q 593 471 585 471 q 607 474 601 471 q 621 486 613 478 l 621 501 l 617 507 m 964 0 q 969 18 969 6 q 947 46 969 46 q 925 18 925 46 q 947 -8 925 -8 q 964 0 961 -8 m 1299 -203 q 1302 -194 1301 -199 q 1303 -185 1303 -189 q 1300 -165 1303 -174 q 1282 -157 1297 -157 q 1265 -165 1268 -157 q 1261 -185 1261 -174 q 1265 -203 1261 -196 q 1282 -211 1269 -211 q 1299 -203 1294 -211 m 1136 540 q 1142 544 1138 543 q 1147 544 1146 544 l 1147 547 l 1110 547 l 1110 544 l 1114 544 q 1124 542 1122 544 q 1125 538 1125 540 q 1121 529 1125 535 l 1106 508 l 1086 533 q 1083 539 1083 539 l 1083 540 q 1089 544 1083 544 l 1096 544 l 1096 547 l 1047 547 l 1049 544 q 1067 535 1064 544 l 1090 504 l 1090 488 q 1076 474 1090 474 l 1072 472 l 1125 472 l 1119 474 q 1106 488 1106 474 l 1106 506 l 1129 538 q 1136 540 1135 540 m 1051 506 l 1050 506 q 1049 502 1050 507 q 1045 491 1049 497 q 1035 479 1042 485 q 1018 474 1029 474 l 999 474 l 999 532 q 1013 544 999 544 l 1018 544 l 1018 547 l 967 547 l 967 544 l 971 544 q 983 532 983 544 l 983 488 q 971 474 983 474 l 967 472 l 1051 472 l 1051 506 m 538 547 l 500 547 l 500 544 l 508 544 q 518 538 515 544 q 521 525 521 532 l 521 499 q 514 481 521 488 l 504 474 l 492 474 q 476 476 485 474 q 467 494 467 479 l 467 532 q 471 543 467 542 q 481 544 475 544 l 486 544 l 486 547 l 435 547 l 436 544 q 451 532 451 544 l 451 494 q 460 476 451 485 l 472 472 q 488 471 476 471 q 522 497 522 471 l 522 536 l 529 543 l 531 543 q 532 544 531 543 l 538 544 l 538 547 m 510 667 q 500 664 501 664 q 490 667 496 664 l 503 683 l 522 707 q 526 710 525 710 q 529 714 528 711 l 547 725 q 551 726 550 725 q 554 726 551 726 q 560 721 560 726 q 559 719 560 719 q 558 717 558 718 l 554 710 q 545 694 551 707 q 519 672 539 682 l 510 667 m 711 708 q 712 704 711 706 q 713 700 713 703 q 710 685 710 692 l 707 678 q 700 669 706 675 l 694 665 q 678 660 689 660 q 669 664 674 660 l 669 671 l 678 686 q 693 700 685 694 l 711 708 m 1233 -1 q 1238 -10 1233 -8 q 1244 -11 1242 -11 l 1250 -11 q 1260 -6 1256 -10 q 1265 7 1265 -3 l 1265 18 q 1256 14 1261 14 l 1244 11 q 1238 8 1242 11 q 1233 -1 1233 6 m 728 -185 q 719 -189 724 -189 l 708 -190 l 700 -194 q 696 -204 696 -199 q 708 -214 696 -214 l 713 -214 q 715 -213 714 -214 q 717 -212 715 -212 l 725 -207 q 728 -197 728 -204 l 728 -185 m 1101 -204 l 1126 -204 l 1126 -229 l 1101 -229 l 1101 -204 m 482 -204 l 507 -204 l 507 -229 l 482 -229 l 482 -204 m 415 28 q 409 41 413 35 q 397 47 406 47 q 379 28 382 47 l 415 28 m 1292 910 q 1285 901 1290 907 l 1307 932 l 1339 978 q 1340 981 1338 978 q 1346 985 1343 983 l 1346 983 q 1343 975 1346 981 l 1332 960 q 1326 953 1329 954 l 1300 919 l 1292 910 z "},"9":{"ha":1613,"x_min":92,"x_max":1474,"o":"m 139 817 l 353 863 l 344 892 l 376 901 l 369 933 l 403 940 l 399 975 l 431 978 l 431 1010 l 460 1010 l 463 1039 l 494 1035 l 500 1067 l 535 1061 l 543 1093 l 574 1085 l 586 1114 l 618 1101 l 635 1132 l 664 1117 l 681 1144 l 710 1125 l 731 1151 l 757 1131 l 779 1153 l 800 1133 l 821 1151 l 842 1128 l 869 1146 l 888 1117 l 918 1133 l 933 1106 l 963 1118 l 976 1086 l 1010 1096 l 1019 1065 l 1050 1072 l 1057 1039 l 1092 1042 l 1093 1021 l 1414 1090 l 1414 697 l 1267 665 l 1269 663 l 1251 642 l 1269 619 l 1244 599 l 1263 571 l 1233 553 l 1251 524 l 1222 507 l 1235 478 l 1203 464 l 1214 431 l 1183 421 l 1189 390 l 1156 383 l 1158 349 l 1126 346 l 1126 314 l 1099 314 l 1094 285 l 1064 288 l 1057 257 l 1024 263 l 1014 231 l 983 240 l 972 208 l 939 222 l 924 192 l 894 207 l 876 179 l 847 197 l 828 172 l 803 193 l 779 171 l 758 190 l 736 171 l 717 196 l 689 178 l 669 207 l 640 190 l 625 218 l 594 206 l 581 238 l 549 228 l 539 258 l 507 251 l 500 285 l 467 282 l 463 314 l 431 314 l 431 343 l 403 346 l 406 378 l 374 383 l 381 417 l 347 426 l 357 457 l 335 465 l 139 424 l 139 817 m 993 722 q 1008 733 1001 726 l 1026 750 q 1025 746 1025 749 q 1028 733 1025 739 q 1040 726 1032 726 q 1056 731 1047 726 q 1071 739 1064 735 l 1088 751 q 1093 757 1090 754 q 1099 763 1096 760 l 1110 772 q 1107 764 1107 769 l 1107 758 q 1106 754 1106 757 q 1119 740 1106 740 q 1126 742 1124 740 l 1132 744 l 1149 754 l 1188 789 l 1183 779 q 1181 764 1181 774 l 1181 760 q 1189 756 1185 756 q 1197 758 1190 756 q 1206 764 1203 761 l 1222 778 q 1233 787 1228 781 q 1246 800 1239 793 l 1260 817 q 1261 819 1261 818 q 1258 821 1260 821 q 1253 818 1256 821 l 1250 814 l 1232 793 q 1227 788 1229 790 q 1222 783 1225 786 l 1211 774 l 1199 767 q 1197 765 1199 767 q 1194 767 1196 765 l 1201 778 q 1204 783 1203 781 q 1208 789 1206 786 l 1214 797 q 1219 806 1217 800 l 1269 879 q 1281 893 1278 888 l 1322 939 q 1335 956 1329 947 q 1349 972 1342 964 l 1357 986 l 1357 993 q 1350 994 1356 994 q 1338 991 1347 994 q 1324 982 1329 988 l 1317 976 q 1308 970 1313 974 q 1300 963 1304 967 l 1286 947 q 1263 917 1275 936 q 1239 881 1250 899 l 1218 846 l 1197 807 q 1196 806 1196 807 l 1185 794 q 1178 787 1182 790 q 1169 779 1174 783 l 1154 765 l 1142 756 q 1139 754 1142 756 l 1131 751 l 1129 750 q 1128 751 1129 750 l 1136 767 q 1150 790 1140 778 q 1167 814 1160 803 l 1183 840 q 1189 849 1186 843 l 1190 850 q 1192 853 1188 850 q 1197 858 1197 856 q 1192 863 1197 863 l 1183 860 l 1161 846 q 1156 840 1158 843 q 1150 835 1153 838 q 1135 850 1150 850 q 1103 840 1119 850 q 1071 817 1086 831 q 1044 788 1056 804 q 1029 760 1033 772 q 1023 754 1028 760 q 1010 741 1018 749 q 994 728 1003 733 q 978 722 986 722 l 975 722 q 974 724 974 722 l 975 725 l 985 739 l 1011 772 q 1019 783 1015 778 q 1026 794 1024 788 l 1033 808 q 1035 817 1035 811 q 1028 829 1035 829 q 1021 828 1024 829 l 1001 818 q 989 806 996 813 q 976 797 982 800 l 960 781 q 951 773 956 776 q 944 765 947 769 l 928 747 l 931 751 l 971 808 q 973 813 971 810 q 975 819 975 817 l 971 824 q 969 824 969 824 q 965 825 968 825 q 963 824 964 825 q 958 824 961 824 l 946 815 q 943 813 943 814 q 942 810 943 811 l 876 699 q 875 693 875 697 q 877 692 876 693 q 879 692 878 692 q 886 693 883 692 l 893 697 q 895 701 893 699 q 899 704 897 704 l 903 708 q 906 713 903 710 l 935 746 l 965 779 l 989 801 q 997 808 992 803 l 1015 818 q 1017 817 1017 818 l 1011 813 q 1006 807 1010 808 l 992 790 q 979 776 985 783 q 971 761 974 768 l 960 744 q 953 722 953 735 q 961 711 953 711 q 993 722 975 711 m 686 654 q 715 667 701 657 q 736 688 729 676 l 743 701 q 747 717 747 710 l 747 729 q 744 742 747 733 l 735 760 q 729 769 735 764 l 729 774 q 731 776 731 775 l 724 776 q 717 772 721 774 q 711 767 714 769 l 706 756 l 676 715 l 668 703 l 667 700 q 664 699 665 700 l 656 686 l 626 656 q 607 647 618 647 l 606 647 q 607 649 606 647 l 613 657 l 624 672 q 629 679 626 674 l 636 690 l 647 714 q 649 725 649 718 q 647 731 647 726 l 644 735 q 643 739 644 738 l 643 757 l 649 765 l 649 769 q 640 776 649 776 q 616 767 624 776 q 608 750 608 757 q 610 742 608 744 l 613 739 q 615 736 613 739 l 607 726 l 572 683 q 568 681 571 683 l 567 678 q 565 676 567 676 l 557 665 q 525 637 546 654 q 482 619 504 619 q 471 629 471 619 q 474 636 471 631 l 485 657 q 494 654 490 654 q 549 676 519 654 l 561 689 q 566 695 564 692 q 569 701 568 699 l 575 713 q 567 729 575 726 q 551 732 560 732 q 488 700 519 721 q 446 640 456 679 l 446 626 q 465 611 451 611 q 503 620 482 613 q 543 646 524 628 l 574 675 q 576 679 574 676 q 579 682 578 682 l 582 688 l 607 717 q 615 725 611 721 q 621 733 618 729 l 629 726 q 631 721 631 724 q 625 714 631 719 l 613 700 l 592 669 l 588 656 q 586 649 586 653 l 586 643 q 596 636 589 636 q 610 639 599 636 l 622 647 q 643 665 631 654 q 660 683 656 676 l 667 692 l 674 700 q 676 704 676 703 l 703 740 q 705 728 703 733 q 707 718 707 724 l 710 713 q 690 703 696 707 l 675 690 q 665 675 667 682 q 663 663 663 668 q 672 655 665 656 q 686 654 678 654 m 768 708 q 767 699 767 706 q 785 676 767 676 q 786 677 786 676 q 788 678 786 678 l 797 678 q 818 685 804 679 l 839 696 l 872 725 l 892 754 l 896 768 q 897 772 896 771 q 897 775 897 774 q 894 785 897 779 q 872 796 889 796 q 860 794 867 796 q 847 790 854 793 l 818 774 q 808 767 813 771 q 800 760 804 763 l 786 744 l 776 729 q 768 708 769 718 m 243 -12 q 226 35 226 4 q 228 53 226 42 q 238 74 231 64 q 256 92 244 85 q 286 99 267 99 l 290 99 q 320 88 301 99 q 339 58 339 78 l 313 58 q 305 72 313 65 q 288 78 297 78 q 281 76 283 78 l 275 76 l 264 68 q 255 53 257 61 q 253 33 253 44 q 261 3 253 13 q 282 -8 269 -6 l 286 -8 q 305 -2 293 -8 q 317 18 317 4 l 288 18 l 288 40 l 339 40 l 339 -26 l 322 -26 l 319 -11 q 301 -27 311 -24 q 279 -31 290 -31 q 258 -25 268 -31 q 243 -12 249 -19 m 1469 -153 q 1474 -167 1474 -157 l 1474 -229 l 1450 -229 l 1450 -175 q 1436 -157 1450 -157 q 1421 -175 1421 -157 l 1421 -229 l 1397 -229 l 1397 -175 q 1395 -162 1397 -168 q 1383 -157 1393 -157 q 1368 -174 1368 -157 l 1368 -229 l 1344 -229 l 1344 -139 l 1367 -139 l 1367 -153 q 1393 -136 1376 -136 q 1418 -151 1410 -136 q 1443 -136 1425 -136 q 1460 -141 1453 -136 q 1469 -153 1467 -146 m 644 -142 q 653 -150 649 -144 q 657 -167 657 -156 l 657 -229 l 635 -229 l 635 -175 q 621 -157 635 -157 q 606 -175 606 -157 l 606 -229 l 581 -229 l 581 -167 q 567 -157 581 -157 q 551 -174 551 -157 l 551 -229 l 529 -229 l 529 -139 l 551 -139 l 551 -153 q 578 -136 560 -136 q 603 -151 594 -136 q 626 -136 610 -136 q 644 -142 638 -136 m 1317 -149 q 1328 -185 1328 -160 q 1316 -217 1328 -204 q 1282 -231 1304 -231 q 1248 -217 1260 -231 q 1236 -185 1236 -204 q 1238 -171 1236 -179 q 1244 -155 1239 -162 q 1258 -142 1249 -147 q 1282 -136 1267 -136 q 1317 -149 1300 -136 m 947 65 q 980 53 967 65 q 993 18 993 42 q 983 -14 993 1 q 947 -29 972 -29 q 913 -14 924 -29 q 901 18 901 1 q 910 49 901 33 q 947 65 919 65 m 196 -139 l 219 -139 l 194 -229 l 169 -229 l 156 -164 l 142 -229 l 117 -229 l 92 -139 l 117 -139 l 131 -204 l 143 -139 l 168 -139 l 181 -204 l 196 -139 m 482 -139 l 456 -229 l 432 -229 l 418 -164 l 403 -229 l 379 -229 l 354 -139 l 379 -139 l 393 -204 l 406 -139 l 431 -139 l 443 -204 l 457 -139 l 482 -139 m 326 -139 l 351 -139 l 325 -229 l 301 -229 l 286 -164 l 272 -229 l 247 -229 l 224 -139 l 247 -139 l 263 -204 l 275 -139 l 299 -139 l 313 -204 l 326 -139 m 868 -139 l 892 -139 l 867 -229 l 842 -229 l 828 -164 l 814 -229 l 789 -229 l 764 -139 l 789 -139 l 803 -204 l 815 -139 l 839 -139 l 853 -204 l 868 -139 m 242 536 l 250 544 l 264 561 q 271 569 265 564 l 321 639 q 329 651 325 646 q 336 663 333 656 l 353 688 q 372 715 360 699 q 383 740 383 731 q 378 744 383 744 q 371 743 372 744 l 364 739 l 338 707 q 326 692 331 700 l 314 676 l 249 579 q 239 563 243 571 q 231 546 235 554 l 228 542 q 227 540 228 540 q 226 538 226 539 l 226 535 q 228 532 226 533 l 235 532 l 242 536 m 1250 -26 q 1244 -28 1246 -28 q 1238 -29 1242 -29 q 1217 -21 1224 -29 q 1210 -1 1210 -12 q 1236 26 1210 22 l 1257 29 q 1265 36 1265 31 q 1251 47 1265 47 q 1241 45 1244 47 q 1235 33 1238 43 l 1213 33 q 1222 55 1215 44 q 1251 65 1228 65 q 1281 58 1274 65 q 1289 40 1289 50 l 1289 -18 q 1294 -22 1289 -22 l 1294 -26 l 1268 -26 q 1267 -25 1267 -26 l 1267 -24 l 1267 -22 q 1266 -18 1267 -19 q 1265 -15 1265 -17 q 1258 -23 1263 -19 q 1250 -26 1253 -26 m 753 -221 q 757 -225 753 -225 l 757 -229 l 732 -229 q 731 -226 732 -228 l 731 -225 q 729 -218 729 -222 q 721 -225 724 -224 l 713 -229 q 701 -231 710 -231 q 681 -226 690 -231 q 672 -206 672 -221 q 699 -176 672 -181 l 721 -174 q 728 -167 728 -171 q 714 -156 728 -156 q 699 -168 699 -156 l 676 -168 q 685 -145 676 -154 q 714 -136 694 -136 q 744 -145 738 -136 q 751 -162 751 -154 l 751 -211 q 753 -221 751 -218 m 439 11 l 376 11 q 382 -3 376 4 q 399 -10 388 -10 q 410 -6 406 -10 q 414 0 414 -3 l 439 0 q 419 -24 432 -19 q 399 -29 407 -29 q 354 21 354 -29 q 366 55 354 44 q 397 65 378 65 q 432 49 425 65 q 439 17 439 32 l 439 11 m 843 490 q 849 510 849 497 q 838 535 849 521 q 804 549 828 549 q 771 536 782 549 q 760 510 760 524 q 774 481 760 490 q 804 471 788 471 q 826 476 817 471 q 843 490 836 482 m 260 694 q 258 686 258 692 q 268 671 258 678 l 282 667 q 297 668 286 667 q 306 672 308 669 q 304 674 306 674 l 300 674 q 294 672 297 674 q 289 671 292 671 q 271 676 278 671 q 264 689 264 681 q 265 699 264 694 l 271 710 l 285 725 q 324 751 303 744 q 364 765 346 758 l 386 769 q 407 772 400 772 q 424 770 414 772 q 438 764 433 768 l 444 754 q 446 740 446 750 q 443 725 446 736 l 435 710 q 417 685 428 694 q 392 663 406 675 l 374 651 l 343 639 q 333 636 339 639 l 329 636 q 324 635 328 636 q 319 631 319 633 q 321 629 319 629 l 325 629 q 329 631 328 629 l 354 638 l 396 656 l 435 681 l 465 711 q 476 734 472 725 q 479 750 479 743 q 473 767 479 761 q 458 777 467 774 q 441 781 450 781 q 426 782 432 782 q 401 779 421 782 q 358 768 382 776 q 308 746 333 760 q 267 710 283 732 l 260 694 m 1076 -183 q 1083 -200 1083 -187 q 1044 -231 1083 -231 l 1036 -231 q 1010 -221 1018 -231 q 1001 -200 1001 -211 l 1025 -200 q 1046 -212 1025 -212 q 1055 -212 1050 -212 q 1060 -204 1060 -211 q 1050 -197 1060 -199 l 1029 -192 q 1011 -183 1018 -189 q 1004 -167 1004 -176 q 1010 -147 1004 -158 q 1040 -136 1017 -136 q 1065 -141 1056 -136 q 1078 -153 1075 -146 l 1081 -167 l 1057 -167 q 1056 -159 1057 -162 q 1042 -156 1054 -156 q 1028 -164 1028 -156 q 1036 -169 1028 -168 l 1057 -175 q 1076 -183 1065 -176 m 971 -140 q 981 -151 978 -143 q 985 -167 985 -160 l 985 -229 l 961 -229 l 961 -175 q 959 -161 961 -165 q 946 -157 957 -157 q 931 -163 935 -157 q 928 -178 928 -169 l 928 -229 l 903 -229 l 903 -139 l 926 -139 l 926 -153 q 954 -136 936 -136 q 971 -140 963 -136 m 1060 65 q 1081 58 1071 65 q 1092 36 1092 51 l 1092 -26 l 1068 -26 l 1068 28 q 1065 41 1068 36 q 1051 46 1063 46 q 1035 25 1035 46 l 1035 -26 l 1010 -26 l 1010 64 l 1032 64 l 1032 51 q 1060 65 1042 65 m 672 -14 q 660 -25 668 -21 q 644 -29 651 -29 q 624 -21 633 -29 q 614 4 614 -12 l 614 64 l 638 64 l 638 8 q 653 -8 638 -8 q 665 -5 658 -8 q 672 11 672 -1 l 672 64 l 694 64 l 694 -26 l 672 -26 l 672 -14 m 1186 -157 q 1172 -164 1176 -157 q 1167 -182 1167 -171 q 1170 -205 1167 -199 q 1185 -211 1174 -211 q 1195 -209 1190 -211 q 1200 -196 1200 -207 l 1225 -196 q 1214 -221 1225 -211 q 1183 -231 1203 -231 q 1143 -186 1143 -231 q 1152 -151 1143 -167 q 1183 -136 1161 -136 q 1210 -144 1196 -136 q 1225 -171 1225 -151 l 1200 -171 q 1186 -157 1200 -157 m 588 76 q 585 74 585 76 l 585 64 l 600 64 l 600 47 l 585 47 l 585 -26 l 561 -26 l 561 47 l 549 47 l 549 64 l 561 64 l 561 71 q 588 96 561 96 l 600 96 l 600 78 l 593 78 q 588 76 589 78 m 878 64 l 894 64 l 894 47 l 878 47 l 878 -26 l 854 -26 l 854 47 l 842 47 l 842 64 l 854 64 l 854 71 q 881 96 854 96 l 892 96 l 892 78 l 886 78 q 878 74 879 78 l 878 64 m 1351 -26 l 1336 -26 q 1319 -24 1328 -26 q 1311 -8 1311 -21 l 1311 47 l 1300 47 l 1300 64 l 1311 64 l 1311 88 l 1336 88 l 1336 64 l 1351 64 l 1351 47 l 1336 47 l 1336 -1 q 1344 -10 1336 -10 l 1351 -8 l 1351 -26 m 790 683 q 786 692 786 686 q 794 710 786 700 q 806 729 801 721 l 814 739 l 833 764 q 841 772 838 768 q 849 779 844 776 l 864 789 q 871 790 867 790 q 876 782 876 790 q 874 774 876 779 l 865 758 q 860 750 863 753 l 854 742 q 849 733 851 738 q 843 726 846 729 l 815 696 q 805 688 813 693 q 790 683 797 683 m 482 88 l 482 64 l 496 64 l 496 47 l 482 47 l 482 -1 q 483 -8 482 -6 q 492 -10 485 -10 l 494 -8 l 496 -26 l 482 -26 q 464 -23 469 -26 q 458 -8 458 -19 l 458 47 l 446 47 l 446 64 l 458 64 l 458 88 l 482 88 m 1049 744 q 1054 753 1051 750 l 1060 761 q 1072 779 1064 771 l 1086 799 l 1113 831 l 1125 840 q 1139 843 1133 843 l 1143 840 q 1144 838 1143 839 q 1144 835 1144 838 q 1144 830 1144 833 q 1140 824 1143 826 l 1117 789 l 1092 763 q 1083 756 1089 761 l 1074 747 q 1062 740 1068 744 q 1051 735 1056 735 q 1049 736 1050 735 l 1047 736 q 1046 739 1046 738 q 1047 742 1047 740 q 1049 744 1047 743 m 1154 -26 l 1139 -26 q 1124 -24 1131 -26 q 1117 -18 1118 -22 l 1117 47 l 1103 47 l 1103 64 l 1117 64 l 1117 88 l 1139 88 l 1139 64 l 1154 64 l 1154 47 l 1139 47 l 1139 -1 q 1149 -10 1139 -10 l 1154 -8 l 1154 -26 m 824 536 q 828 526 826 531 q 831 510 831 522 q 824 484 831 494 q 804 474 818 474 q 785 483 790 474 l 781 494 q 778 510 778 503 q 778 516 778 513 q 779 522 779 519 l 783 532 q 790 542 786 536 q 806 547 794 547 q 808 547 807 547 q 811 546 808 546 l 824 536 m 740 -26 l 717 -26 l 717 96 l 740 96 l 740 -26 m 781 -26 l 758 -26 l 758 96 l 781 96 l 781 -26 m 710 547 l 629 547 l 629 544 l 632 544 q 644 532 644 544 l 644 488 q 632 474 644 474 l 629 472 l 710 472 l 710 503 q 707 498 707 500 q 706 493 707 496 l 697 482 q 690 478 693 478 l 683 475 q 674 474 679 474 l 661 474 l 663 507 q 678 501 672 507 l 681 497 q 682 491 681 494 q 683 485 683 488 l 685 533 l 683 526 l 679 518 q 665 510 672 510 l 661 510 l 661 544 l 675 544 q 692 543 688 544 l 699 538 l 707 518 l 710 518 l 710 547 m 963 547 l 925 547 l 925 544 l 932 544 q 938 538 932 543 q 943 525 943 532 l 943 493 l 890 547 l 861 547 l 863 544 q 874 541 872 544 q 876 533 876 538 l 876 490 q 860 474 876 474 l 860 472 l 899 474 q 892 475 896 474 q 885 476 888 476 l 881 483 q 879 493 879 485 l 879 538 l 943 472 l 946 472 l 946 525 q 949 538 946 532 q 963 544 951 544 l 963 547 m 617 507 q 607 513 613 510 l 593 518 l 583 519 q 567 524 576 521 q 558 533 558 526 q 558 539 558 531 q 576 547 558 547 q 600 540 593 547 q 614 521 607 532 l 617 521 l 617 546 l 614 546 q 608 540 613 540 q 592 544 601 540 q 576 549 583 549 q 561 546 569 549 l 551 539 q 547 526 547 532 q 550 519 547 524 q 556 513 553 515 l 565 508 q 571 506 567 507 q 582 503 575 506 l 588 501 q 603 497 594 499 q 611 486 611 496 q 601 474 611 479 l 593 474 q 581 475 585 474 l 567 481 l 558 489 q 551 506 551 499 l 549 506 l 549 471 l 551 471 q 561 479 551 479 q 565 478 563 479 q 571 476 567 476 l 582 472 q 593 471 585 471 q 607 474 601 471 q 621 486 613 478 l 621 501 l 617 507 m 964 0 q 969 18 969 6 q 947 46 969 46 q 925 18 925 46 q 947 -8 925 -8 q 964 0 961 -8 m 1299 -203 q 1302 -194 1301 -199 q 1303 -185 1303 -189 q 1300 -165 1303 -174 q 1282 -157 1297 -157 q 1265 -165 1268 -157 q 1261 -185 1261 -174 q 1265 -203 1261 -196 q 1282 -211 1269 -211 q 1299 -203 1294 -211 m 1136 540 q 1142 544 1138 543 q 1147 544 1146 544 l 1147 547 l 1110 547 l 1110 544 l 1114 544 q 1124 542 1122 544 q 1125 538 1125 540 q 1121 529 1125 535 l 1106 508 l 1086 533 q 1083 539 1083 539 l 1083 540 q 1089 544 1083 544 l 1096 544 l 1096 547 l 1047 547 l 1049 544 q 1067 535 1064 544 l 1090 504 l 1090 488 q 1076 474 1090 474 l 1072 472 l 1125 472 l 1119 474 q 1106 488 1106 474 l 1106 506 l 1129 538 q 1136 540 1135 540 m 1051 506 l 1050 506 q 1049 502 1050 507 q 1045 491 1049 497 q 1035 479 1042 485 q 1018 474 1029 474 l 999 474 l 999 532 q 1013 544 999 544 l 1018 544 l 1018 547 l 967 547 l 967 544 l 971 544 q 983 532 983 544 l 983 488 q 971 474 983 474 l 967 472 l 1051 472 l 1051 506 m 538 547 l 500 547 l 500 544 l 508 544 q 518 538 515 544 q 521 525 521 532 l 521 499 q 514 481 521 488 l 504 474 l 492 474 q 476 476 485 474 q 467 494 467 479 l 467 532 q 471 543 467 542 q 481 544 475 544 l 486 544 l 486 547 l 435 547 l 436 544 q 451 532 451 544 l 451 494 q 460 476 451 485 l 472 472 q 488 471 476 471 q 522 497 522 471 l 522 536 l 529 543 l 531 543 q 532 544 531 543 l 538 544 l 538 547 m 510 667 q 500 664 501 664 q 490 667 496 664 l 503 683 l 522 707 q 526 710 525 710 q 529 714 528 711 l 547 725 q 551 726 550 725 q 554 726 551 726 q 560 721 560 726 q 559 719 560 719 q 558 717 558 718 l 554 710 q 545 694 551 707 q 519 672 539 682 l 510 667 m 711 708 q 712 704 711 706 q 713 700 713 703 q 710 685 710 692 l 707 678 q 700 669 706 675 l 694 665 q 678 660 689 660 q 669 664 674 660 l 669 671 l 678 686 q 693 700 685 694 l 711 708 m 1233 -1 q 1238 -10 1233 -8 q 1244 -11 1242 -11 l 1250 -11 q 1260 -6 1256 -10 q 1265 7 1265 -3 l 1265 18 q 1256 14 1261 14 l 1244 11 q 1238 8 1242 11 q 1233 -1 1233 6 m 728 -185 q 719 -189 724 -189 l 708 -190 l 700 -194 q 696 -204 696 -199 q 708 -214 696 -214 l 713 -214 q 715 -213 714 -214 q 717 -212 715 -212 l 725 -207 q 728 -197 728 -204 l 728 -185 m 1101 -204 l 1126 -204 l 1126 -229 l 1101 -229 l 1101 -204 m 482 -204 l 507 -204 l 507 -229 l 482 -229 l 482 -204 m 415 28 q 409 41 413 35 q 397 47 406 47 q 379 28 382 47 l 415 28 m 1292 910 q 1285 901 1290 907 l 1307 932 l 1339 978 q 1340 981 1338 978 q 1346 985 1343 983 l 1346 983 q 1343 975 1346 981 l 1332 960 q 1326 953 1329 954 l 1300 919 l 1292 910 z "}," ":{"ha":490,"x_min":0,"x_max":0,"o":""},"N":{"ha":719,"x_min":0,"x_max":650,"o":"m 519 903 q 573 885 549 903 q 615 817 597 867 q 641 678 632 767 q 650 451 650 590 q 641 224 650 311 q 615 86 632 136 q 573 18 597 36 q 519 0 549 0 q 503 0 511 0 q 489 3 496 0 q 359 124 421 22 q 258 431 297 226 q 249 478 254 456 q 239 524 244 501 q 242 413 239 474 q 258 290 246 353 q 244 130 254 188 q 217 43 233 72 q 180 7 201 14 q 132 0 158 0 q 77 18 101 0 q 35 86 53 36 q 9 224 18 136 q 0 451 0 311 q 9 678 0 590 q 35 815 18 765 q 77 884 53 865 q 131 903 101 903 q 192 892 157 906 q 265 835 226 878 q 341 714 303 792 q 413 513 379 636 l 426 464 q 424 512 428 485 q 415 565 421 539 q 403 613 410 590 q 393 647 397 635 q 410 778 399 728 q 438 856 422 828 q 474 893 454 883 q 519 903 494 903 m 140 821 q 177 829 164 821 q 190 853 190 838 q 177 876 190 868 q 140 885 164 885 q 103 876 117 885 q 90 853 90 868 q 103 829 90 838 q 140 821 117 821 m 519 821 q 563 853 563 821 q 519 885 563 885 q 475 853 475 885 q 519 821 475 821 z "},"Z":{"ha":696,"x_min":-1,"x_max":626,"o":"m 314 226 q 542 195 457 226 q 626 111 626 164 q 542 27 626 58 q 314 -4 457 -4 q 86 27 171 -4 q 1 111 1 58 q 19 213 1 161 q 67 316 38 264 q 131 420 96 368 q 203 525 167 472 q 242 583 224 557 q 279 633 261 610 l 410 671 l 308 672 q 83 703 167 672 q -1 788 -1 735 q 83 872 -1 840 q 311 903 168 903 q 538 872 454 903 q 622 788 622 840 q 621 771 622 776 q 608 710 619 746 q 574 627 597 675 q 513 517 550 579 q 421 376 475 456 l 344 269 l 200 229 l 311 226 l 314 226 m 311 838 q 419 844 379 838 q 460 861 460 850 q 419 878 460 872 q 311 885 379 885 q 201 878 242 885 q 161 861 161 872 q 201 844 161 850 q 311 838 242 838 m 381 158 q 447 165 422 158 q 472 182 472 171 q 447 199 472 193 q 381 206 422 206 q 315 199 339 206 q 290 182 290 193 q 315 165 290 171 q 381 158 339 158 z "},"Y":{"ha":649,"x_min":-42,"x_max":581,"o":"m 393 282 q 378 136 389 192 q 352 50 368 81 q 314 10 336 19 q 265 0 292 0 q 213 10 236 0 q 172 50 189 19 q 147 136 156 81 q 138 282 138 192 q 147 432 138 379 q 124 466 136 447 q 101 503 113 485 q 78 538 89 522 q 63 564 68 554 q -12 699 11 644 q -39 789 -36 753 q -27 847 -42 825 q 13 885 -12 868 q 65 901 38 900 q 124 883 93 903 q 187 818 154 864 q 254 694 219 772 q 235 639 244 671 q 224 575 226 607 l 276 685 q 350 814 315 767 q 415 883 385 861 q 474 903 446 904 q 526 885 501 901 q 566 847 551 868 q 578 789 581 825 q 551 699 575 753 q 476 564 528 644 q 453 528 465 547 q 429 490 442 510 q 405 453 417 471 q 383 422 393 436 q 390 360 388 394 q 393 282 392 325 m 472 885 q 440 876 453 885 q 428 853 428 868 q 440 829 428 838 q 472 821 453 821 q 515 853 515 821 q 472 885 515 885 m 68 821 q 100 829 88 821 q 113 853 113 838 q 100 876 113 868 q 68 885 88 885 q 25 853 25 885 q 68 821 25 821 z "},"W":{"ha":956,"x_min":-33,"x_max":886,"o":"m 831 897 q 871 863 856 886 q 885 785 886 839 q 862 640 883 731 q 793 406 840 549 q 707 177 744 263 q 638 49 669 92 q 581 -1 607 7 q 529 4 554 -8 q 482 46 507 15 q 426 139 457 76 q 380 56 401 86 q 340 11 358 25 q 303 -3 321 -3 q 268 4 285 -4 q 227 38 249 13 q 181 110 206 63 q 126 229 156 157 q 61 406 96 301 q -9 640 13 549 q -32 785 -31 731 q -17 863 -33 839 q 24 897 -1 886 q 60 905 40 904 q 100 893 79 906 q 142 853 121 881 q 185 777 164 826 q 226 655 206 728 q 264 478 246 582 q 275 424 268 454 q 286 374 282 394 q 278 299 283 342 q 275 221 272 256 q 296 310 285 260 q 318 422 307 360 q 252 647 272 560 q 231 787 232 735 q 245 863 229 839 q 286 897 261 886 q 315 903 299 903 q 349 899 332 904 q 381 881 365 893 q 408 847 396 868 q 393 807 401 831 q 378 758 385 783 q 369 706 372 732 q 367 658 365 681 q 418 802 392 750 q 471 878 444 854 q 522 903 497 901 q 568 897 547 906 q 609 863 593 886 q 624 787 625 839 q 602 647 622 735 q 536 422 582 560 q 557 317 547 364 q 576 231 567 269 q 576 303 579 264 q 568 374 572 343 q 579 424 574 397 q 590 478 585 450 q 628 655 608 582 q 669 777 649 728 q 712 853 690 826 q 754 893 733 881 q 794 905 775 906 q 831 897 814 904 m 57 821 q 100 853 100 821 q 57 885 100 885 q 13 853 13 885 q 57 821 13 821 m 322 821 q 365 853 365 821 q 322 885 365 885 q 278 853 278 885 q 322 821 278 821 m 490 853 q 503 829 490 838 q 535 821 515 821 q 567 829 554 821 q 579 853 579 838 q 567 876 579 868 q 535 885 554 885 q 503 876 515 885 q 490 853 490 868 m 800 821 q 832 829 819 821 q 844 853 844 838 q 832 876 844 868 q 800 885 819 885 q 768 876 781 885 q 756 853 756 868 q 768 829 756 838 q 800 821 781 821 z "},"X":{"ha":711,"x_min":-19,"x_max":643,"o":"m 451 443 q 521 343 482 401 q 596 206 572 261 q 622 113 619 150 q 610 53 625 76 q 569 14 594 31 q 519 -7 544 -3 q 463 9 493 -11 q 396 80 432 29 q 315 225 360 131 q 326 249 319 233 q 338 286 332 265 q 349 329 344 307 q 357 371 354 351 q 326 304 344 342 q 285 218 308 267 q 211 86 246 135 q 146 16 176 38 q 88 -4 115 -6 q 36 14 61 -3 q -4 53 11 31 q -17 113 -19 76 q 10 206 -14 150 q 85 343 33 261 q 183 479 143 433 q 155 518 169 497 q 125 564 140 539 q 50 699 74 644 q 24 789 26 753 q 35 847 21 825 q 75 885 50 868 q 128 901 100 900 q 186 883 156 903 q 249 818 217 864 q 317 694 282 772 q 298 639 307 671 q 286 575 289 607 l 339 685 q 413 814 378 767 q 478 883 447 861 q 536 903 508 904 q 589 885 564 901 q 628 847 614 868 q 640 789 643 825 q 614 699 638 753 q 539 564 590 644 q 492 495 514 525 q 451 443 471 465 m 131 821 q 163 829 150 821 q 175 853 175 838 q 163 876 175 868 q 131 885 150 885 q 88 853 88 885 q 131 821 88 821 m 535 885 q 503 876 515 885 q 490 853 490 868 q 503 829 490 838 q 535 821 515 821 q 578 853 578 821 q 535 885 578 885 z "},"V":{"ha":681,"x_min":-46,"x_max":611,"o":"m 556 897 q 596 863 581 886 q 610 785 611 839 q 587 640 608 731 q 517 406 565 549 q 453 228 482 301 q 399 109 424 156 q 352 38 374 63 q 311 4 331 13 q 260 -1 286 -8 q 203 49 233 7 q 134 177 172 92 q 49 406 96 263 q -22 640 0 549 q -44 785 -43 731 q -31 863 -46 839 q 10 897 -15 886 q 67 901 36 907 q 129 853 97 896 q 192 722 161 811 q 250 478 222 633 q 278 332 265 394 q 303 221 292 269 q 305 283 306 244 q 297 385 304 322 q 306 428 303 408 q 315 478 310 449 q 373 722 342 633 q 436 853 404 811 q 499 901 468 896 q 556 897 529 907 m 44 821 q 88 853 88 821 q 44 885 88 885 q 0 853 0 885 q 44 821 0 821 m 522 821 q 565 853 565 821 q 522 885 565 885 q 490 876 503 885 q 478 853 478 868 q 490 829 478 838 q 522 821 503 821 z "},"U":{"ha":632,"x_min":0,"x_max":563,"o":"m 439 903 q 491 887 468 903 q 530 822 514 871 q 554 685 546 774 q 563 451 563 597 q 542 217 563 306 q 486 81 522 129 q 398 16 450 32 q 282 0 346 0 q 165 16 217 0 q 76 81 113 32 q 20 217 40 129 q 0 451 0 306 q 9 685 0 597 q 34 822 18 774 q 73 887 50 871 q 124 903 96 903 q 183 885 160 903 q 222 817 207 867 q 242 678 236 767 q 247 451 247 590 q 247 319 247 367 q 251 247 247 271 q 261 218 254 224 q 281 213 268 213 l 397 214 l 310 238 q 315 307 315 258 q 315 451 315 356 q 322 678 315 590 q 342 817 328 767 q 379 885 356 867 q 439 903 403 903 m 125 821 q 169 853 169 821 q 125 885 169 885 q 82 853 82 885 q 125 821 82 821 m 435 821 q 478 853 478 821 q 435 885 478 885 q 390 853 390 885 q 435 821 390 821 z "},"T":{"ha":668,"x_min":-33,"x_max":628,"o":"m 628 788 q 538 703 628 735 q 297 672 449 672 q 270 672 283 672 q 243 674 257 672 q 293 656 263 663 q 361 650 324 650 q 376 651 368 650 q 390 651 383 651 q 401 545 397 607 q 406 400 406 483 q 397 198 406 276 q 370 76 388 119 q 328 16 353 32 q 275 0 304 0 q 220 15 244 0 q 178 72 196 29 q 152 192 161 114 q 143 400 143 271 q 148 567 143 499 q 164 681 153 635 q 19 719 71 692 q -33 788 -33 747 q -10 835 -33 814 q 57 872 14 857 q 161 894 100 886 q 297 903 222 903 q 433 894 372 903 q 538 872 494 886 q 604 835 581 857 q 628 788 628 814 m 139 861 q 181 844 139 850 q 297 838 224 838 q 413 844 369 838 q 456 861 456 850 q 413 878 456 872 q 297 885 369 885 q 181 878 224 885 q 139 861 139 872 z "},"S":{"ha":688,"x_min":-7,"x_max":624,"o":"m 307 569 q 489 527 418 569 q 592 422 560 485 q 617 285 624 358 q 565 148 610 211 q 435 42 519 85 q 231 0 351 0 q 46 31 99 0 q -7 115 -7 63 q 3 163 -7 142 q 42 198 13 183 q 128 221 72 213 q 278 229 185 229 q 366 249 338 229 q 394 292 394 268 q 369 336 394 317 q 297 356 343 356 q 128 396 194 356 q 33 497 63 436 q 6 629 3 558 q 47 761 10 700 q 151 863 83 822 q 317 903 219 903 q 506 872 451 903 q 561 788 561 840 q 549 740 561 761 q 506 704 536 719 q 426 681 476 689 q 301 672 376 672 q 237 656 258 672 q 215 621 215 640 q 238 585 215 601 q 307 569 261 569 m 335 885 q 248 878 281 885 q 215 861 215 872 q 248 844 215 850 q 335 838 281 838 q 423 844 390 838 q 456 861 456 850 q 423 878 456 872 q 335 885 390 885 m 218 160 q 282 166 258 160 q 306 183 306 172 q 282 200 306 194 q 218 206 258 206 q 154 200 178 206 q 131 183 131 194 q 154 166 131 172 q 218 160 178 160 m 335 504 q 385 510 367 504 q 403 526 403 515 q 385 544 403 538 q 335 550 367 550 q 286 544 304 550 q 268 526 268 538 q 286 510 268 515 q 335 504 304 504 z "},"R":{"ha":676,"x_min":-11,"x_max":611,"o":"m 500 335 q 572 203 550 256 q 596 117 594 151 q 582 63 597 83 q 542 26 567 43 q 487 6 517 10 q 426 22 457 3 q 365 90 396 42 q 307 226 335 139 q 281 283 296 264 q 239 310 267 303 q 167 328 196 317 q 192 308 176 315 q 222 294 207 300 q 247 284 236 289 q 258 272 258 279 q 248 171 258 219 q 219 84 238 122 q 179 23 201 46 q 132 0 157 0 q 35 103 71 0 q 0 406 0 207 q 10 588 0 510 q 40 717 21 665 q -11 788 -11 747 q 69 872 -11 840 q 283 903 149 903 q 456 864 386 903 q 563 765 525 825 q 606 634 600 706 q 588 497 611 563 q 510 380 564 431 q 376 313 457 329 q 430 313 400 308 q 489 329 460 317 l 500 335 m 303 519 q 353 543 333 519 q 374 596 372 567 q 359 649 376 625 q 299 672 342 672 q 198 677 243 672 q 117 689 153 682 q 163 667 135 676 q 228 654 192 657 q 246 653 233 653 q 255 592 251 628 q 261 517 258 557 q 281 519 271 518 q 303 519 292 519 m 271 885 q 178 878 213 885 q 144 861 144 872 q 178 844 144 850 q 271 838 213 838 q 363 844 329 838 q 397 861 397 850 q 363 878 397 872 q 271 885 329 885 m 264 454 q 314 460 296 454 q 332 476 332 465 q 314 494 332 488 q 264 500 296 500 q 215 494 233 500 q 197 476 197 488 q 215 460 197 465 q 264 454 233 454 z "},"Q":{"ha":647,"x_min":-6,"x_max":579,"o":"m 468 211 q 547 170 515 196 q 578 115 578 144 q 500 31 578 63 q 289 0 422 0 q 78 31 156 0 q 0 115 0 63 q 39 178 0 151 q 149 218 78 204 q 54 321 90 256 q 6 463 18 386 q 6 617 -6 539 q 53 758 18 694 q 147 863 89 822 q 289 903 206 903 q 412 874 358 903 q 501 796 465 844 q 556 685 538 747 q 577 558 575 624 q 565 428 579 492 q 518 311 550 364 q 437 224 486 258 q 322 181 388 189 q 397 182 357 176 q 468 211 438 188 m 288 339 q 300 357 294 339 q 309 403 306 375 q 314 465 313 431 q 315 534 315 500 q 313 597 315 568 q 306 644 310 626 l 404 671 l 288 672 q 272 647 278 672 q 263 585 267 622 q 260 506 260 549 q 264 426 261 463 q 273 364 267 389 q 288 339 279 339 m 199 853 q 223 829 199 838 q 289 821 247 821 q 353 829 329 821 q 378 853 378 838 q 353 876 378 868 q 289 885 329 885 q 223 876 247 885 q 199 853 199 868 z "},"P":{"ha":682,"x_min":-11,"x_max":613,"o":"m 283 903 q 467 857 394 903 q 576 743 540 811 q 612 594 613 675 q 576 446 611 514 q 472 332 540 378 q 303 286 403 286 q 171 307 222 286 q 206 280 183 292 q 258 263 229 268 q 247 163 258 210 q 219 79 236 115 q 178 22 201 43 q 132 0 156 0 q 35 103 71 0 q 0 406 0 207 q 10 588 0 510 q 40 717 21 665 q -11 788 -11 746 q 69 872 -11 840 q 283 903 149 903 m 264 433 q 314 440 296 433 q 332 457 332 446 q 314 474 332 468 q 264 481 296 481 q 215 474 233 481 q 197 457 197 468 q 215 440 197 446 q 264 433 233 433 m 303 499 q 356 526 336 499 q 378 585 376 553 q 363 645 381 618 q 299 672 344 672 q 198 677 243 672 q 117 689 153 682 q 163 667 135 676 q 228 654 192 657 q 246 653 233 653 q 255 584 251 626 q 261 497 258 542 q 281 499 271 499 q 303 499 292 499 m 271 838 q 363 844 329 838 q 397 861 397 850 q 363 878 397 872 q 271 885 329 885 q 178 878 213 885 q 144 861 144 872 q 178 844 144 850 q 271 838 213 838 z "},"O":{"ha":632,"x_min":0,"x_max":563,"o":"m 281 903 q 397 885 344 903 q 486 817 450 867 q 542 678 522 767 q 563 451 563 590 q 542 224 563 311 q 486 86 522 136 q 397 18 450 36 q 281 0 344 0 q 165 16 217 0 q 76 81 113 32 q 20 217 40 129 q 0 451 0 306 q 20 685 0 597 q 76 822 40 774 q 165 887 113 871 q 281 903 217 903 m 313 451 q 313 583 313 539 q 311 649 314 628 l 397 671 l 281 672 q 260 669 267 672 q 250 647 253 667 q 247 581 247 626 q 247 451 247 536 q 247 319 247 367 q 251 247 247 271 q 261 218 254 224 q 281 213 268 213 q 301 219 294 213 q 310 251 307 226 q 313 322 313 275 q 313 451 313 369 m 169 853 q 199 829 169 838 q 281 821 229 821 q 363 829 333 821 q 393 853 393 838 q 363 876 393 868 q 281 885 333 885 q 199 876 229 885 q 169 853 169 868 z "},"M":{"ha":921,"x_min":0,"x_max":851,"o":"m 739 901 q 785 873 764 896 q 820 799 806 850 q 843 664 835 749 q 851 451 851 579 q 842 224 851 311 q 815 86 832 136 q 773 18 797 36 q 719 0 749 0 q 672 7 693 0 q 634 43 650 14 q 608 130 618 72 q 593 290 597 188 q 608 413 604 353 q 613 524 613 474 l 592 431 q 550 237 571 317 q 508 107 529 157 q 464 34 486 57 q 419 11 442 11 q 372 34 393 11 q 333 108 351 57 q 298 238 315 158 q 260 431 281 318 l 239 524 q 243 413 239 474 q 258 290 247 353 q 244 130 254 188 q 217 43 233 72 q 180 7 201 14 q 132 0 158 0 q 77 18 101 0 q 35 86 53 36 q 9 224 18 136 q 0 451 0 311 q 9 678 0 590 q 35 815 18 765 q 77 884 53 865 q 131 903 101 903 q 189 892 156 906 q 260 835 222 878 q 340 717 299 793 q 424 522 382 642 q 441 469 433 494 q 456 421 449 444 q 455 462 457 439 q 449 508 453 485 q 439 551 444 531 q 429 588 433 572 q 522 763 476 697 q 608 862 568 829 q 682 901 649 894 q 739 901 715 908 m 715 821 q 752 829 739 821 q 765 853 765 838 q 752 876 765 868 q 715 885 739 885 q 678 876 692 885 q 665 853 665 868 q 678 829 665 838 q 715 821 692 821 m 140 821 q 177 829 164 821 q 190 853 190 838 q 177 876 190 868 q 140 885 164 885 q 103 876 117 885 q 90 853 90 868 q 103 829 90 838 q 140 821 117 821 z "},"L":{"ha":689,"x_min":-8,"x_max":653,"o":"m 322 229 q 563 199 474 229 q 653 115 653 168 q 629 67 653 89 q 563 31 606 46 q 458 8 519 17 q 322 0 397 0 q 186 8 247 0 q 82 31 125 17 q 15 67 39 46 q -8 115 -8 89 q 46 183 -8 156 q 22 303 31 228 q 14 501 14 379 q 23 710 14 631 q 49 831 32 789 q 91 888 67 874 q 146 903 115 903 q 201 887 176 903 q 242 826 225 871 q 269 704 260 782 q 278 501 278 626 q 273 352 278 415 q 260 244 268 289 q 239 172 251 200 q 211 126 226 143 q 251 163 231 135 q 285 229 271 190 l 322 229 m 388 165 q 451 169 428 164 q 475 186 474 175 q 452 203 475 197 q 389 213 429 210 q 325 208 349 214 q 301 192 301 203 q 324 174 300 181 q 388 165 347 167 m 146 821 q 178 829 165 821 q 190 853 190 838 q 178 876 190 868 q 146 885 165 885 q 114 876 126 885 q 101 853 101 868 q 114 829 101 838 q 146 821 126 821 z "},"K":{"ha":704,"x_min":0,"x_max":638,"o":"m 532 347 q 607 213 583 267 q 634 122 631 158 q 622 65 638 86 q 582 26 607 43 q 529 8 557 10 q 471 28 501 7 q 406 97 440 50 q 332 226 371 144 q 292 308 310 272 q 263 371 275 343 q 249 185 260 257 q 222 72 239 113 q 183 15 206 31 q 132 0 160 0 q 77 16 101 0 q 35 81 53 32 q 9 217 18 129 q 0 451 0 306 q 9 685 0 597 q 35 822 18 774 q 77 887 53 871 q 132 903 101 903 q 185 886 161 903 q 225 823 208 869 q 251 695 242 776 q 263 485 261 614 q 275 524 271 504 q 281 562 279 544 q 284 592 283 579 q 285 608 285 604 l 322 685 q 396 814 361 767 q 461 883 431 861 q 519 903 492 904 q 571 885 546 901 q 611 847 596 868 q 624 789 626 825 q 597 699 621 753 q 522 564 574 644 q 484 507 503 532 q 450 463 465 482 q 428 438 439 450 q 407 417 418 426 q 388 401 396 407 q 435 422 417 408 q 464 444 453 436 q 532 347 494 407 m 132 821 q 175 853 175 821 q 132 885 175 885 q 88 853 88 885 q 132 821 88 821 m 518 885 q 474 853 474 885 q 518 821 474 821 q 561 853 561 821 q 518 885 561 885 z "},"I":{"ha":500,"x_min":0,"x_max":431,"o":"m 338 206 q 408 115 408 175 q 353 31 408 63 q 204 0 299 0 q 55 31 110 0 q 0 115 0 63 q 24 175 0 150 q 93 214 49 200 q 72 431 72 303 q 104 692 72 593 q 44 731 65 707 q 22 788 22 756 q 78 872 22 840 q 226 903 133 903 q 376 872 321 903 q 431 788 431 840 q 376 703 431 735 q 226 672 321 672 q 210 672 218 672 q 196 674 203 672 q 306 656 236 653 l 314 656 q 331 554 325 611 q 336 431 336 497 q 324 256 336 332 q 289 131 311 179 q 338 206 318 153 m 129 861 q 156 844 129 850 q 226 838 182 838 q 298 844 271 838 q 325 861 325 850 q 298 878 325 872 q 226 885 271 885 q 156 878 182 885 q 129 861 129 872 z "},"J":{"ha":610,"x_min":-8,"x_max":540,"o":"m 540 451 q 520 217 540 306 q 463 81 500 129 q 374 16 426 32 q 258 0 322 0 q 152 16 203 0 q 65 69 101 32 q 10 164 29 106 q 1 308 -8 222 q 46 403 8 371 q 125 436 83 435 q 199 409 167 438 q 226 322 231 381 q 224 264 224 286 q 229 231 225 242 q 241 216 233 219 q 258 213 249 213 q 278 218 271 213 q 288 247 285 224 q 292 319 292 271 q 292 451 292 367 q 297 685 292 597 q 316 822 303 774 q 352 887 329 871 q 410 903 375 903 q 469 885 444 903 q 510 819 494 868 q 532 681 525 769 q 540 451 539 593 m 411 821 q 444 829 432 821 q 457 853 457 838 q 444 876 457 868 q 411 885 432 885 q 364 853 364 885 q 411 821 364 821 m 129 422 q 99 417 110 422 q 88 400 88 411 q 99 383 88 389 q 129 376 110 376 q 160 383 149 376 q 171 400 171 389 q 160 417 171 411 q 129 422 149 422 z "},"H":{"ha":664,"x_min":0,"x_max":594,"o":"m 463 903 q 517 885 493 903 q 559 817 542 867 q 585 678 576 767 q 594 451 594 590 q 585 224 594 311 q 559 86 576 136 q 517 18 542 36 q 463 0 493 0 q 414 12 436 0 q 375 58 392 24 q 348 157 358 93 q 333 325 338 221 q 383 336 361 328 q 419 357 406 344 q 311 344 374 344 q 286 345 299 344 q 261 347 274 346 q 248 173 258 240 q 221 67 238 106 q 181 15 204 29 q 132 0 158 0 q 77 16 101 0 q 35 81 53 32 q 9 217 18 129 q 0 451 0 306 q 9 685 0 597 q 35 822 18 774 q 77 887 53 871 q 132 903 101 903 q 187 885 163 903 q 228 817 211 867 q 255 678 246 767 q 264 451 264 590 l 264 442 q 281 503 274 468 q 286 557 286 529 q 299 558 293 558 q 311 558 304 558 q 332 557 325 558 q 347 735 336 667 q 374 840 357 803 q 413 890 390 878 q 463 903 435 903 m 132 821 q 175 853 175 821 q 132 885 175 885 q 88 853 88 885 q 132 821 88 821 m 463 821 q 506 853 506 821 q 463 885 506 885 q 431 876 443 885 q 418 853 418 868 q 431 829 418 838 q 463 821 443 821 m 411 510 q 400 528 413 521 q 364 539 388 536 q 326 537 340 542 q 311 521 313 532 q 322 503 310 510 q 358 493 335 496 q 396 494 382 490 q 411 510 410 499 z "},"G":{"ha":626,"x_min":0,"x_max":563,"o":"m 554 618 q 526 526 549 561 q 476 476 504 492 q 416 460 447 460 q 360 476 385 461 q 322 517 336 490 q 314 578 308 543 q 319 621 318 604 q 317 649 319 638 l 399 671 l 282 672 q 261 669 268 672 q 251 647 254 667 q 249 581 249 626 q 249 451 249 536 q 249 319 249 367 q 252 247 249 271 q 263 218 256 224 q 282 213 269 213 q 299 216 292 213 q 310 231 306 219 q 315 264 314 242 q 314 322 317 286 q 324 385 311 360 q 359 423 338 410 q 408 437 381 436 q 462 426 436 438 q 508 390 488 414 q 536 328 528 365 q 553 207 553 278 q 522 51 553 108 q 438 -7 490 -7 q 360 40 390 -7 q 381 108 374 68 q 374 214 389 169 q 372 141 379 179 q 347 72 365 103 q 301 20 329 40 q 236 0 274 0 q 138 19 182 0 q 64 90 94 39 q 17 228 33 142 q 0 451 0 315 q 20 685 0 597 q 77 822 40 774 q 166 887 114 871 q 282 903 218 903 q 388 891 335 903 q 480 847 440 879 q 541 760 519 815 q 554 618 563 706 m 282 821 q 364 829 333 821 q 394 853 394 838 q 364 876 394 868 q 282 885 333 885 q 200 876 231 885 q 169 853 169 868 q 200 829 169 838 q 282 821 231 821 m 411 422 q 381 417 392 422 q 369 400 369 411 q 381 383 369 389 q 411 376 392 376 q 442 383 431 376 q 453 400 453 389 q 442 417 453 411 q 411 422 431 422 z "},"F":{"ha":681,"x_min":-19,"x_max":642,"o":"m 642 788 q 552 703 642 735 q 311 672 463 672 q 126 689 201 672 q 236 654 164 661 q 254 653 242 653 q 262 607 258 631 q 268 556 265 583 q 290 558 279 557 q 311 558 300 558 q 463 529 407 558 q 519 451 519 500 q 463 374 519 403 q 311 344 407 344 q 181 364 235 344 q 216 339 193 350 q 267 321 239 328 q 258 192 268 251 q 231 90 249 133 q 189 24 213 47 q 140 0 165 0 q 44 103 81 0 q 8 406 8 207 q 47 713 8 607 q -19 788 -19 743 q 4 835 -19 814 q 71 872 28 857 q 175 894 114 886 q 311 903 236 903 q 447 894 386 903 q 551 872 508 886 q 618 835 594 857 q 642 788 642 814 m 311 539 q 234 533 263 539 q 206 515 206 526 q 234 499 206 504 q 311 493 263 493 q 388 499 360 493 q 417 515 417 504 q 388 533 417 526 q 311 539 360 539 m 153 861 q 196 844 153 850 q 311 838 239 838 q 426 844 383 838 q 469 861 469 850 q 426 878 469 872 q 311 885 383 885 q 196 878 239 885 q 153 861 153 872 z "},"E":{"ha":714,"x_min":-18,"x_max":644,"o":"m 314 229 q 555 199 465 229 q 644 115 644 168 q 621 67 644 89 q 554 31 597 46 q 450 8 511 17 q 314 0 389 0 q 176 8 238 0 q 72 31 115 17 q 6 67 29 46 q -18 115 -18 89 q 47 189 -18 158 q 11 451 11 285 q 47 714 11 618 q -18 788 -18 744 q 6 835 -18 814 q 72 872 29 857 q 176 894 115 886 q 314 903 238 903 q 450 894 389 903 q 554 872 511 886 q 621 835 597 857 q 644 788 644 814 q 555 703 644 735 q 314 672 465 672 q 128 689 204 672 q 174 666 146 675 q 238 654 203 657 q 256 653 244 653 q 269 556 265 613 q 292 558 281 557 q 314 558 303 558 q 466 529 410 558 q 522 451 522 500 q 466 374 522 403 q 314 344 410 344 q 183 364 235 344 q 218 339 196 350 q 268 321 240 328 q 213 132 256 190 q 247 169 231 143 q 276 229 264 194 l 314 229 m 314 885 q 198 878 240 885 q 156 861 156 872 q 198 844 156 850 q 314 838 240 838 q 429 844 386 838 q 472 861 472 850 q 429 878 472 872 q 314 885 386 885 m 314 539 q 237 533 265 539 q 208 515 208 526 q 237 499 208 504 q 314 493 265 493 q 390 499 363 493 q 418 515 418 504 q 390 533 418 526 q 314 539 363 539 m 378 165 q 442 169 418 164 q 465 186 465 175 q 443 203 467 197 q 379 213 419 210 q 316 208 339 214 q 292 192 293 203 q 315 174 292 181 q 378 165 338 167 z "},"D":{"ha":649,"x_min":-6,"x_max":579,"o":"m 289 903 q 415 885 361 903 q 506 817 469 867 q 561 678 543 767 q 579 451 579 590 q 561 224 579 311 q 506 86 543 136 q 415 18 469 36 q 289 0 361 0 l 288 0 q 74 31 153 0 q -6 115 -6 63 q 43 183 -6 156 q 15 299 25 232 q 6 451 6 367 q 15 603 6 536 q 43 718 25 671 q -6 788 -6 747 q 74 872 -6 840 q 288 903 153 903 l 289 903 m 288 229 q 310 233 300 229 q 328 258 321 238 q 341 324 336 279 q 346 451 346 369 q 342 578 346 533 q 330 643 338 622 q 311 668 322 664 q 288 672 300 672 q 121 689 189 672 q 174 664 140 674 q 250 653 208 654 q 269 451 269 567 q 250 244 269 329 q 194 119 231 158 q 235 160 214 131 q 269 229 257 190 l 288 229 m 276 838 q 369 844 335 838 q 403 861 403 850 q 369 878 403 872 q 276 885 335 885 q 184 878 218 885 q 150 861 150 872 q 184 844 150 850 q 276 838 218 838 z "},"C":{"ha":626,"x_min":0,"x_max":563,"o":"m 314 578 q 318 618 317 593 q 319 653 319 643 l 394 671 l 343 671 q 306 672 324 671 q 282 672 288 672 q 261 669 268 672 q 251 647 254 667 q 249 581 249 626 q 249 451 249 536 q 249 319 249 367 q 252 247 249 271 q 263 218 256 224 q 282 213 269 213 q 299 216 292 213 q 310 231 306 219 q 315 264 314 242 q 314 322 317 286 q 342 409 310 381 q 415 436 374 438 q 494 403 457 435 q 539 308 532 371 q 530 164 549 222 q 475 69 511 106 q 388 16 439 32 q 282 0 338 0 q 166 16 218 0 q 77 81 114 32 q 20 217 40 129 q 0 451 0 306 q 20 685 0 597 q 77 822 40 774 q 166 887 114 871 q 282 903 218 903 q 388 891 335 903 q 480 847 440 879 q 541 760 519 815 q 554 618 563 706 q 526 526 549 561 q 476 476 504 492 q 416 460 447 460 q 360 476 385 461 q 322 517 336 490 q 314 578 308 543 m 411 422 q 381 417 392 422 q 369 400 369 411 q 381 383 369 389 q 411 376 392 376 q 442 383 431 376 q 453 400 453 389 q 442 417 453 411 q 411 422 431 422 m 282 821 q 364 829 333 821 q 394 853 394 838 q 364 876 394 868 q 282 885 333 885 q 201 876 231 885 q 171 853 171 868 q 201 829 171 838 q 282 821 231 821 z "},"B":{"ha":654,"x_min":-6,"x_max":586,"o":"m 451 451 q 526 418 496 451 q 569 335 557 385 q 573 226 581 285 q 533 117 565 167 q 440 33 500 67 q 289 0 381 0 q 74 31 154 0 q -6 115 -6 63 q 43 183 -6 154 q 15 299 25 232 q 6 451 6 367 q 15 603 6 536 q 43 718 25 671 q -6 788 -6 749 q 74 872 -6 840 q 289 903 154 903 q 455 869 392 903 q 549 786 518 836 q 583 677 579 736 q 570 568 586 618 q 522 485 554 518 q 451 451 490 451 m 289 229 q 344 247 326 229 q 361 287 361 265 q 347 326 361 308 q 308 344 332 344 q 178 364 229 344 q 213 339 190 350 q 264 321 236 328 q 199 122 247 176 q 238 163 218 133 q 269 229 258 193 l 289 229 m 308 558 q 342 576 328 558 q 357 615 356 594 q 343 654 358 636 q 289 672 328 672 q 122 689 190 672 q 169 667 140 676 q 233 654 197 657 q 251 653 239 653 q 259 607 256 631 q 265 556 263 583 q 287 558 276 557 q 308 558 297 558 m 276 838 q 369 844 335 838 q 403 861 403 850 q 369 878 403 872 q 276 885 335 885 q 184 878 218 885 q 150 861 150 872 q 184 844 150 850 q 276 838 218 838 m 338 515 q 319 533 338 526 q 269 539 301 539 q 221 533 239 539 q 203 515 203 526 q 221 499 203 504 q 269 493 239 493 q 319 499 301 493 q 338 515 338 504 z "},"A":{"ha":764,"x_min":-28,"x_max":694,"o":"m 592 496 q 668 261 644 351 q 693 117 692 171 q 678 38 694 63 q 632 4 661 14 q 594 0 614 -3 q 556 17 575 3 q 515 61 536 32 q 471 136 493 90 q 506 197 508 168 q 434 148 485 165 q 310 131 383 131 q 251 134 278 131 q 200 144 224 138 q 155 65 176 96 q 113 19 133 35 q 73 0 93 3 q 35 4 53 -3 q -11 38 6 14 q -26 117 -28 63 q -1 261 -25 171 q 75 496 22 351 q 158 699 121 619 q 226 824 196 779 q 283 887 257 869 q 333 903 308 904 q 384 887 358 904 q 441 824 410 869 q 509 699 472 779 q 592 496 546 619 m 310 344 q 354 342 333 344 q 394 338 375 340 l 368 424 l 346 503 q 358 572 353 533 q 361 643 363 611 l 299 424 q 269 325 283 371 q 239 240 254 279 q 279 299 264 268 q 301 344 294 329 l 310 344 m 336 885 q 289 853 289 885 q 336 821 289 821 q 372 829 358 821 q 385 853 385 838 q 372 876 385 868 q 336 885 358 885 m 413 297 q 401 316 414 308 q 365 326 389 324 q 314 308 317 331 q 324 290 311 297 q 361 279 338 282 q 397 281 383 276 q 413 297 411 286 z "}}}
